<svg xmlns="http://www.w3.org/2000/svg" xmlns:xlink="http://www.w3.org/1999/xlink" width="2000" zoomAndPan="magnify" viewBox="0 0 1500 1499.999933" height="2000" preserveAspectRatio="xMidYMid meet" version="1.0"><defs><clipPath id="632826f3bd"><path d="M 0.816406 0 L 1467.199219 0 L 1467.199219 1452.625 L 0.816406 1452.625 Z M 0.816406 0 " clip-rule="nonzero"/></clipPath><clipPath id="e8988cd55d"><path d="M 481 386 L 1196.074219 386 L 1196.074219 1260 L 481 1260 Z M 481 386 " clip-rule="nonzero"/></clipPath><clipPath id="af407094f6"><path d="M 271.511719 192.101562 L 987 192.101562 L 987 1066 L 271.511719 1066 Z M 271.511719 192.101562 " clip-rule="nonzero"/></clipPath><clipPath id="ad55a5503e"><rect x="0" width="1468" y="0" height="1453"/></clipPath></defs><g transform="matrix(1, 0, 0, 1, 16, 24)"><g clip-path="url(#ad55a5503e)"><g clip-path="url(#632826f3bd)"><path fill="#5a84e9" d="M 1467.171875 733.277344 C 1467.171875 922.648438 1395.175781 1102.402344 1264.488281 1239.355469 L 1253.484375 1228.855469 L 1249.285156 1224.859375 L 1235.296875 1211.515625 C 1358.804688 1082.085938 1426.839844 912.253906 1426.839844 733.277344 Z M 733.996094 0.0976562 L 733.996094 40.429688 C 919.066406 40.429688 1093.066406 112.496094 1223.917969 243.351562 L 1252.433594 214.835938 C 1113.960938 76.363281 929.835938 0.0976562 733.996094 0.0976562 Z M 41.152344 733.277344 L 0.816406 733.277344 C 0.816406 930.945312 78.335938 1116.289062 219.042969 1255.167969 L 230.386719 1243.6875 L 234.453125 1239.558594 L 247.386719 1226.453125 C 114.402344 1095.222656 41.152344 920.074219 41.152344 733.277344 Z M 171.160156 295.367188 C 73.863281 419.921875 20.1875 574.71875 19.542969 733.277344 L 25.300781 733.277344 C 25.945312 576.210938 79.078125 422.867188 175.289062 299.429688 C 178.234375 295.636719 181.214844 291.914062 184.230469 288.1875 L 179.761719 284.53125 C 176.847656 288.121094 173.96875 291.742188 171.160156 295.367188 Z M 575.371094 1428.285156 C 446.71875 1398.6875 328.222656 1332.820312 234.453125 1239.558594 L 230.386719 1243.6875 C 324.9375 1337.730469 444.449219 1404.105469 574.152344 1433.910156 C 579.605469 1435.195312 585.089844 1436.378906 590.578125 1437.5 L 591.726562 1431.84375 C 586.242188 1430.726562 580.789062 1429.539062 575.371094 1428.285156 Z M 351.691406 131.460938 L 354.808594 136.335938 C 359.449219 133.390625 364.15625 130.476562 368.863281 127.667969 C 478.855469 61.222656 604.730469 26.140625 733.996094 26.003906 L 733.996094 20.246094 C 603.816406 20.382812 477.0625 55.671875 366.289062 122.484375 C 361.378906 125.363281 356.535156 128.378906 351.691406 131.460938 Z M 929.835938 1419.074219 C 923.910156 1420.800781 917.914062 1422.394531 911.921875 1423.953125 L 913.378906 1429.507812 C 919.371094 1427.980469 925.296875 1426.355469 931.222656 1424.628906 C 1053.542969 1389.679688 1165.570312 1321.410156 1253.484375 1228.855469 L 1249.285156 1224.859375 C 1162.148438 1316.667969 1051.140625 1384.363281 929.835938 1419.074219 Z M 1240.410156 229.941406 C 1239.902344 229.433594 1239.363281 228.925781 1238.855469 228.417969 L 1234.789062 232.480469 C 1235.296875 232.953125 1235.839844 233.496094 1236.347656 234.003906 C 1369.640625 367.464844 1443.363281 544.679688 1444.074219 733.277344 L 1449.867188 733.277344 C 1449.15625 543.125 1374.820312 364.484375 1240.410156 229.941406 Z M 185.179688 268.003906 C 175.628906 268.003906 167.90625 275.757812 167.90625 285.273438 C 167.90625 294.792969 175.664062 302.546875 185.179688 302.546875 C 194.695312 302.546875 202.449219 294.792969 202.449219 285.273438 C 202.449219 275.757812 194.726562 268.003906 185.179688 268.003906 Z M 591.390625 1417.484375 C 581.839844 1417.484375 574.117188 1425.238281 574.117188 1434.753906 C 574.117188 1444.304688 581.871094 1452.027344 591.390625 1452.027344 C 600.9375 1452.027344 608.660156 1444.269531 608.660156 1434.753906 C 608.695312 1425.207031 600.9375 1417.484375 591.390625 1417.484375 Z M 914.054688 1408.816406 C 904.503906 1408.816406 896.785156 1416.570312 896.785156 1426.085938 C 896.785156 1435.636719 904.539062 1443.355469 914.054688 1443.355469 C 923.605469 1443.355469 931.324219 1435.601562 931.324219 1426.085938 C 931.324219 1416.570312 923.605469 1408.816406 914.054688 1408.816406 Z M 352.269531 115.308594 C 342.71875 115.308594 334.996094 123.0625 334.996094 132.578125 C 334.996094 142.09375 342.753906 149.847656 352.269531 149.847656 C 361.785156 149.847656 369.539062 142.09375 369.539062 132.578125 C 369.539062 123.0625 361.816406 115.308594 352.269531 115.308594 Z M 734.367188 1392.964844 C 737.550781 1392.964844 740.125 1390.359375 740.125 1387.207031 C 740.089844 1384.023438 737.515625 1381.453125 734.332031 1381.453125 C 731.148438 1381.453125 728.574219 1384.058594 728.574219 1387.207031 C 728.574219 1390.390625 731.183594 1392.964844 734.367188 1392.964844 Z M 708.425781 1392.492188 C 711.507812 1392.492188 714.046875 1390.054688 714.183594 1386.972656 C 714.285156 1383.789062 711.8125 1381.078125 708.664062 1380.976562 C 705.480469 1380.875 702.769531 1383.347656 702.667969 1386.496094 C 702.566406 1389.679688 705.039062 1392.355469 708.1875 1392.492188 C 708.292969 1392.492188 708.359375 1392.492188 708.425781 1392.492188 Z M 760.273438 1392.457031 C 760.339844 1392.457031 760.441406 1392.457031 760.511719 1392.457031 C 763.695312 1392.320312 766.167969 1389.648438 766.03125 1386.464844 C 765.929688 1383.28125 763.21875 1380.773438 760.035156 1380.945312 C 756.851562 1381.046875 754.382812 1383.753906 754.515625 1386.9375 C 754.652344 1390.054688 757.191406 1392.457031 760.273438 1392.457031 Z M 682.585938 1390.96875 C 685.566406 1390.96875 688.074219 1388.664062 688.3125 1385.652344 C 688.582031 1382.46875 686.175781 1379.691406 682.992188 1379.417969 C 679.8125 1379.183594 677.066406 1381.554688 676.796875 1384.738281 C 676.527344 1387.917969 678.929688 1390.664062 682.113281 1390.933594 C 682.25 1390.96875 682.382812 1390.96875 682.585938 1390.96875 Z M 786.148438 1390.898438 C 786.316406 1390.898438 786.453125 1390.898438 786.621094 1390.867188 C 786.65625 1390.867188 786.65625 1390.867188 786.65625 1390.867188 C 789.839844 1390.59375 792.175781 1387.851562 791.9375 1384.667969 C 791.667969 1381.484375 788.921875 1379.148438 785.707031 1379.351562 L 785.742188 1379.351562 C 782.558594 1379.621094 780.1875 1382.398438 780.421875 1385.582031 C 780.660156 1388.597656 783.167969 1390.898438 786.148438 1390.898438 Z M 656.75 1388.394531 C 659.628906 1388.394531 662.132812 1386.226562 662.472656 1383.3125 C 662.84375 1380.128906 660.574219 1377.253906 657.425781 1376.878906 C 654.242188 1376.507812 651.398438 1378.742188 650.992188 1381.925781 C 650.617188 1385.109375 652.886719 1387.953125 656.039062 1388.324219 C 656.308594 1388.359375 656.511719 1388.394531 656.75 1388.394531 Z M 811.917969 1388.324219 C 812.1875 1388.324219 812.390625 1388.292969 812.628906 1388.257812 C 815.8125 1387.886719 818.046875 1385.007812 817.675781 1381.859375 C 817.269531 1378.675781 814.425781 1376.4375 811.242188 1376.8125 C 808.058594 1377.183594 805.824219 1380.0625 806.195312 1383.246094 C 806.601562 1386.160156 809.074219 1388.324219 811.917969 1388.324219 Z M 631.078125 1384.804688 C 633.890625 1384.804688 636.328125 1382.773438 636.769531 1379.960938 C 637.277344 1376.8125 635.144531 1373.867188 632.027344 1373.359375 C 628.878906 1372.851562 625.929688 1375.015625 625.390625 1378.097656 C 624.914062 1381.25 627.015625 1384.195312 630.164062 1384.738281 C 630.46875 1384.769531 630.808594 1384.804688 631.078125 1384.804688 Z M 837.585938 1384.667969 C 837.890625 1384.667969 838.230469 1384.636719 838.535156 1384.601562 C 841.683594 1384.09375 843.820312 1381.113281 843.277344 1377.964844 C 842.804688 1374.8125 839.824219 1372.679688 836.671875 1373.222656 C 833.523438 1373.695312 831.390625 1376.675781 831.933594 1379.824219 C 832.371094 1382.671875 834.8125 1384.667969 837.585938 1384.667969 Z M 605.578125 1380.199219 C 608.253906 1380.199219 610.660156 1378.300781 611.199219 1375.558594 C 611.84375 1372.445312 609.8125 1369.394531 606.695312 1368.785156 C 603.582031 1368.140625 600.53125 1370.175781 599.890625 1373.289062 C 599.246094 1376.40625 601.277344 1379.453125 604.425781 1380.097656 C 604.800781 1380.128906 605.207031 1380.199219 605.578125 1380.199219 Z M 863.121094 1380.027344 C 863.496094 1380.027344 863.902344 1379.960938 864.273438 1379.894531 C 867.390625 1379.25 869.386719 1376.238281 868.777344 1373.121094 C 868.132812 1369.972656 865.085938 1368.007812 861.96875 1368.617188 C 858.855469 1369.226562 856.855469 1372.273438 857.464844 1375.390625 C 858.007812 1378.132812 860.445312 1380.027344 863.121094 1380.027344 Z M 580.28125 1374.507812 C 582.890625 1374.507812 585.226562 1372.75 585.902344 1370.140625 C 586.648438 1367.023438 584.75 1363.910156 581.667969 1363.164062 C 578.554688 1362.417969 575.4375 1364.28125 574.695312 1367.363281 C 573.949219 1370.480469 575.8125 1373.59375 578.925781 1374.339844 C 579.367188 1374.441406 579.839844 1374.507812 580.28125 1374.507812 Z M 888.417969 1374.339844 C 888.894531 1374.339844 889.332031 1374.273438 889.808594 1374.171875 C 892.890625 1373.425781 894.785156 1370.308594 894.007812 1367.195312 C 893.261719 1364.113281 890.144531 1362.214844 887.03125 1362.996094 C 883.949219 1363.738281 882.085938 1366.890625 882.832031 1369.972656 C 883.476562 1372.578125 885.8125 1374.339844 888.417969 1374.339844 Z M 555.222656 1367.835938 C 557.726562 1367.835938 560.03125 1366.210938 560.742188 1363.707031 C 561.621094 1360.660156 559.859375 1357.441406 556.777344 1356.5625 C 553.730469 1355.679688 550.515625 1357.441406 549.667969 1360.523438 C 548.785156 1363.570312 550.546875 1366.789062 553.597656 1367.632812 C 554.171875 1367.769531 554.679688 1367.835938 555.222656 1367.835938 Z M 913.480469 1367.632812 C 913.988281 1367.632812 914.527344 1367.566406 915.070312 1367.429688 C 918.117188 1366.550781 919.878906 1363.332031 919.03125 1360.285156 C 918.152344 1357.238281 914.933594 1355.476562 911.886719 1356.359375 C 908.839844 1357.238281 907.042969 1360.457031 907.925781 1363.503906 C 908.671875 1366.007812 910.972656 1367.632812 913.480469 1367.632812 Z M 530.464844 1360.148438 C 532.871094 1360.148438 535.140625 1358.625 535.953125 1356.222656 C 536.96875 1353.207031 535.308594 1349.921875 532.292969 1348.941406 C 529.28125 1347.925781 526.03125 1349.585938 525.011719 1352.566406 C 523.996094 1355.578125 525.65625 1358.828125 528.671875 1359.84375 C 529.246094 1360.046875 529.855469 1360.148438 530.464844 1360.148438 Z M 938.199219 1359.945312 C 938.808594 1359.945312 939.417969 1359.84375 940.027344 1359.640625 C 943.042969 1358.625 944.667969 1355.375 943.652344 1352.363281 C 942.636719 1349.347656 939.386719 1347.722656 936.371094 1348.738281 C 933.359375 1349.753906 931.730469 1353.003906 932.75 1356.019531 C 933.5625 1358.421875 935.796875 1359.945312 938.199219 1359.945312 Z M 505.980469 1351.445312 C 508.316406 1351.445312 510.519531 1350.023438 511.367188 1347.722656 C 512.484375 1344.742188 510.992188 1341.421875 508.011719 1340.304688 C 505.035156 1339.1875 501.714844 1340.679688 500.597656 1343.65625 C 499.480469 1346.636719 500.96875 1349.957031 503.949219 1351.074219 C 504.628906 1351.3125 505.269531 1351.445312 505.980469 1351.445312 Z M 962.617188 1351.210938 C 963.292969 1351.210938 964.003906 1351.109375 964.648438 1350.835938 C 967.628906 1349.71875 969.121094 1346.367188 968 1343.421875 C 966.882812 1340.441406 963.566406 1338.949219 960.585938 1340.070312 C 957.605469 1341.1875 956.113281 1344.539062 957.234375 1347.484375 C 958.113281 1349.789062 960.3125 1351.210938 962.617188 1351.210938 Z M 481.871094 1341.761719 C 484.105469 1341.761719 486.238281 1340.441406 487.1875 1338.238281 C 488.441406 1335.292969 487.085938 1331.941406 484.140625 1330.6875 C 481.226562 1329.433594 477.839844 1330.789062 476.585938 1333.703125 C 475.332031 1336.648438 476.6875 1340 479.632812 1341.253906 C 480.347656 1341.59375 481.125 1341.761719 481.871094 1341.761719 Z M 986.59375 1341.523438 C 987.371094 1341.523438 988.117188 1341.390625 988.863281 1341.050781 C 991.808594 1339.796875 993.164062 1336.445312 991.875 1333.5 C 990.625 1330.550781 987.269531 1329.199219 984.324219 1330.449219 L 984.324219 1330.484375 C 981.378906 1331.738281 980.023438 1335.125 981.3125 1338.035156 C 982.226562 1340.238281 984.359375 1341.523438 986.59375 1341.523438 Z M 458.164062 1331.058594 C 460.296875 1331.058594 462.363281 1329.839844 463.378906 1327.777344 C 464.734375 1324.898438 463.480469 1321.476562 460.636719 1320.089844 C 457.757812 1318.734375 454.304688 1319.988281 452.949219 1322.832031 C 451.59375 1325.710938 452.8125 1329.128906 455.691406 1330.519531 C 456.503906 1330.890625 457.351562 1331.058594 458.164062 1331.058594 Z M 1010.199219 1330.890625 C 1011.042969 1330.925781 1011.855469 1330.722656 1012.667969 1330.347656 C 1015.515625 1328.960938 1016.765625 1325.539062 1015.414062 1322.695312 C 1014.023438 1319.816406 1010.605469 1318.5625 1007.726562 1319.953125 C 1004.847656 1321.308594 1003.628906 1324.726562 1004.980469 1327.605469 C 1005.929688 1329.671875 1008.03125 1330.890625 1010.199219 1330.890625 Z M 434.933594 1319.445312 C 437 1319.445312 439.03125 1318.328125 440.046875 1316.363281 C 441.535156 1313.550781 440.453125 1310.0625 437.640625 1308.574219 C 434.863281 1307.117188 431.375 1308.167969 429.851562 1310.976562 C 428.398438 1313.789062 429.445312 1317.277344 432.257812 1318.765625 C 433.105469 1319.277344 434.050781 1319.445312 434.933594 1319.445312 Z M 1033.328125 1319.34375 C 1034.242188 1319.34375 1035.15625 1319.105469 1036.003906 1318.664062 C 1036.003906 1318.632812 1036.003906 1318.632812 1036.003906 1318.632812 C 1038.8125 1317.175781 1039.898438 1313.6875 1038.40625 1310.84375 C 1036.949219 1308.066406 1033.460938 1306.949219 1030.617188 1308.4375 C 1027.808594 1309.929688 1026.691406 1313.417969 1028.214844 1316.261719 C 1029.261719 1318.226562 1031.226562 1319.308594 1033.328125 1319.34375 Z M 412.210938 1306.914062 C 414.207031 1306.914062 416.136719 1305.863281 417.1875 1304.035156 C 418.8125 1301.257812 417.863281 1297.769531 415.089844 1296.179688 C 412.34375 1294.585938 408.824219 1295.503906 407.230469 1298.277344 C 405.640625 1301.054688 406.554688 1304.542969 409.332031 1306.136719 C 410.246094 1306.675781 411.226562 1306.914062 412.210938 1306.914062 Z M 1055.984375 1306.8125 C 1056.964844 1306.8125 1057.945312 1306.574219 1058.863281 1306.035156 C 1061.605469 1304.441406 1062.554688 1300.921875 1060.925781 1298.175781 C 1059.335938 1295.402344 1055.8125 1294.484375 1053.070312 1296.078125 C 1050.328125 1297.703125 1049.378906 1301.191406 1050.972656 1303.933594 C 1052.054688 1305.761719 1053.984375 1306.8125 1055.984375 1306.8125 Z M 389.992188 1293.46875 C 391.890625 1293.46875 393.753906 1292.523438 394.871094 1290.792969 C 396.5625 1288.121094 395.785156 1284.53125 393.074219 1282.835938 C 390.398438 1281.144531 386.8125 1281.957031 385.117188 1284.632812 C 383.425781 1287.339844 384.238281 1290.898438 386.914062 1292.589844 C 387.859375 1293.199219 388.910156 1293.46875 389.992188 1293.46875 Z M 1078.097656 1293.402344 C 1079.148438 1293.402344 1080.230469 1293.132812 1081.179688 1292.523438 C 1083.855469 1290.828125 1084.667969 1287.238281 1082.972656 1284.5625 C 1081.28125 1281.855469 1077.691406 1281.074219 1075.015625 1282.769531 C 1072.339844 1284.460938 1071.527344 1288.019531 1073.21875 1290.726562 C 1074.335938 1292.453125 1076.199219 1293.402344 1078.097656 1293.402344 Z M 368.355469 1279.144531 C 370.183594 1279.144531 371.976562 1278.265625 373.09375 1276.671875 C 374.925781 1274.066406 374.28125 1270.476562 371.640625 1268.648438 C 369.03125 1266.820312 365.40625 1267.496094 363.613281 1270.101562 C 361.816406 1272.710938 362.460938 1276.335938 365.070312 1278.128906 C 366.085938 1278.839844 367.238281 1279.144531 368.355469 1279.144531 Z M 1099.703125 1279.113281 C 1100.820312 1279.113281 1101.9375 1278.808594 1102.953125 1278.09375 C 1105.5625 1276.265625 1106.238281 1272.710938 1104.410156 1270.070312 C 1102.582031 1267.460938 1099.023438 1266.785156 1096.382812 1268.613281 C 1093.777344 1270.441406 1093.097656 1273.996094 1094.925781 1276.605469 C 1096.078125 1278.230469 1097.875 1279.113281 1099.703125 1279.113281 Z M 347.289062 1263.972656 C 349.050781 1263.972656 350.777344 1263.195312 351.894531 1261.703125 C 353.824219 1259.132812 353.316406 1255.542969 350.777344 1253.609375 C 348.203125 1251.714844 344.613281 1252.222656 342.71875 1254.761719 C 340.789062 1257.300781 341.296875 1260.925781 343.835938 1262.824219 C 344.886719 1263.601562 346.105469 1263.972656 347.289062 1263.972656 Z M 1120.734375 1263.941406 C 1121.953125 1263.941406 1123.136719 1263.566406 1124.1875 1262.789062 C 1126.726562 1260.890625 1127.234375 1257.300781 1125.304688 1254.730469 C 1123.40625 1252.1875 1119.820312 1251.679688 1117.246094 1253.609375 C 1114.703125 1255.507812 1114.195312 1259.097656 1116.128906 1261.671875 C 1117.246094 1263.160156 1118.972656 1263.941406 1120.734375 1263.941406 Z M 326.902344 1247.988281 C 328.5625 1247.988281 330.222656 1247.246094 331.375 1245.855469 C 333.40625 1243.417969 333.03125 1239.761719 330.527344 1237.761719 L 330.5625 1237.761719 C 328.089844 1235.730469 324.464844 1236.101562 322.433594 1238.574219 C 320.402344 1241.046875 320.808594 1244.671875 323.246094 1246.667969 C 324.296875 1247.550781 325.617188 1247.988281 326.902344 1247.988281 Z M 1141.085938 1247.957031 C 1142.371094 1247.957031 1143.691406 1247.550781 1144.742188 1246.667969 C 1147.179688 1244.636719 1147.554688 1241.046875 1145.554688 1238.574219 C 1143.558594 1236.101562 1139.898438 1235.765625 1137.460938 1237.761719 C 1134.988281 1239.761719 1134.617188 1243.382812 1136.648438 1245.855469 C 1137.765625 1247.246094 1139.460938 1247.957031 1141.085938 1247.957031 Z M 1160.828125 1231.191406 C 1162.21875 1231.191406 1163.570312 1230.71875 1164.65625 1229.738281 C 1167.058594 1227.636719 1167.261719 1224.011719 1165.128906 1221.609375 C 1163.03125 1219.203125 1159.371094 1219 1157.003906 1221.132812 C 1154.597656 1223.234375 1154.394531 1226.890625 1156.527344 1229.261719 C 1157.644531 1230.515625 1159.238281 1231.191406 1160.828125 1231.191406 Z M 307.125 1231.160156 C 308.71875 1231.160156 310.308594 1230.480469 311.460938 1229.226562 C 313.5625 1226.824219 313.359375 1223.199219 310.988281 1221.066406 C 308.582031 1218.96875 304.957031 1219.203125 302.859375 1221.574219 C 300.726562 1223.945312 300.960938 1227.601562 303.332031 1229.703125 C 304.417969 1230.683594 305.773438 1231.160156 307.125 1231.160156 Z M 1179.894531 1213.617188 C 1181.351562 1213.617188 1182.773438 1213.074219 1183.855469 1211.992188 C 1186.160156 1209.789062 1186.226562 1206.132812 1184.027344 1203.828125 C 1181.824219 1201.527344 1178.167969 1201.457031 1175.863281 1203.660156 C 1173.597656 1205.863281 1173.496094 1209.519531 1175.695312 1211.820312 C 1176.882812 1213.007812 1178.371094 1213.617188 1179.894531 1213.617188 Z M 288.09375 1213.582031 C 289.585938 1213.582031 291.109375 1212.972656 292.226562 1211.789062 C 294.460938 1209.519531 294.359375 1205.863281 292.054688 1203.660156 C 289.753906 1201.425781 286.128906 1201.527344 283.894531 1203.796875 C 281.695312 1206.097656 281.796875 1209.722656 284.0625 1211.957031 C 285.214844 1213.039062 286.636719 1213.582031 288.09375 1213.582031 Z M 1198.214844 1195.261719 C 1199.738281 1195.261719 1201.230469 1194.6875 1202.382812 1193.5 C 1202.347656 1193.5 1202.347656 1193.5 1202.347656 1193.5 C 1204.546875 1191.199219 1204.480469 1187.574219 1202.210938 1185.339844 C 1199.910156 1183.136719 1196.285156 1183.207031 1194.050781 1185.507812 C 1191.816406 1187.777344 1191.917969 1191.433594 1194.21875 1193.671875 C 1195.371094 1194.753906 1196.761719 1195.261719 1198.214844 1195.261719 Z M 269.738281 1195.261719 C 271.195312 1195.261719 272.617188 1194.71875 273.734375 1193.636719 C 276.003906 1191.433594 276.105469 1187.777344 273.871094 1185.476562 C 271.667969 1183.207031 268.011719 1183.105469 265.742188 1185.304688 C 263.441406 1187.507812 263.339844 1191.199219 265.574219 1193.46875 C 266.726562 1194.652344 268.25 1195.261719 269.738281 1195.261719 Z M 1215.824219 1176.230469 C 1217.417969 1176.230469 1219.007812 1175.550781 1220.160156 1174.300781 C 1222.261719 1171.894531 1222.023438 1168.269531 1219.6875 1166.136719 C 1217.28125 1164.039062 1213.660156 1164.273438 1211.523438 1166.613281 C 1209.425781 1169.015625 1209.664062 1172.640625 1212 1174.773438 C 1213.082031 1175.753906 1214.472656 1176.230469 1215.824219 1176.230469 Z M 252.164062 1176.230469 C 253.519531 1176.230469 254.871094 1175.753906 255.957031 1174.773438 C 258.359375 1172.671875 258.5625 1169.015625 256.429688 1166.644531 C 254.332031 1164.242188 250.707031 1164.039062 248.304688 1166.171875 C 245.898438 1168.269531 245.695312 1171.929688 247.828125 1174.300781 C 249.015625 1175.550781 250.570312 1176.230469 252.164062 1176.230469 Z M 235.367188 1156.484375 C 236.621094 1156.484375 237.941406 1156.046875 238.988281 1155.199219 C 241.460938 1153.167969 241.800781 1149.542969 239.800781 1147.105469 L 239.800781 1147.070312 C 237.769531 1144.632812 234.148438 1144.261719 231.707031 1146.257812 C 229.238281 1148.289062 228.898438 1151.914062 230.894531 1154.386719 C 232.046875 1155.773438 233.707031 1156.484375 235.367188 1156.484375 Z M 1232.65625 1156.484375 C 1234.316406 1156.484375 1235.976562 1155.773438 1237.125 1154.386719 C 1239.160156 1151.914062 1238.785156 1148.292969 1236.28125 1146.257812 C 1233.84375 1144.261719 1230.21875 1144.632812 1228.1875 1147.070312 C 1226.15625 1149.542969 1226.527344 1153.167969 1229 1155.199219 C 1230.050781 1156.046875 1231.335938 1156.484375 1232.65625 1156.484375 Z M 219.347656 1136.132812 C 220.566406 1136.132812 221.753906 1135.726562 222.800781 1134.949219 C 225.375 1133.050781 225.851562 1129.429688 223.953125 1126.886719 C 222.023438 1124.347656 218.433594 1123.839844 215.894531 1125.769531 C 213.355469 1127.667969 212.847656 1131.257812 214.742188 1133.832031 C 215.894531 1135.320312 217.585938 1136.132812 219.347656 1136.132812 Z M 1248.640625 1136.066406 C 1250.367188 1136.066406 1252.09375 1135.285156 1253.246094 1133.796875 C 1255.144531 1131.257812 1254.636719 1127.632812 1252.09375 1125.738281 C 1249.554688 1123.804688 1245.933594 1124.316406 1244.035156 1126.855469 C 1242.140625 1129.394531 1242.613281 1133.019531 1245.152344 1134.914062 C 1246.238281 1135.691406 1247.457031 1136.066406 1248.640625 1136.066406 Z M 204.210938 1115.136719 C 205.328125 1115.136719 206.480469 1114.796875 207.460938 1114.085938 C 210.070312 1112.257812 210.746094 1108.667969 208.917969 1106.09375 C 207.089844 1103.488281 203.535156 1102.808594 200.925781 1104.640625 C 198.316406 1106.46875 197.640625 1110.058594 199.46875 1112.664062 C 199.46875 1112.699219 199.46875 1112.699219 199.46875 1112.699219 C 200.585938 1114.257812 202.347656 1115.136719 204.210938 1115.136719 Z M 1263.847656 1115.035156 C 1265.675781 1115.035156 1267.46875 1114.15625 1268.554688 1112.5625 C 1268.585938 1112.5625 1268.585938 1112.5625 1268.585938 1112.5625 C 1270.382812 1109.957031 1269.738281 1106.332031 1267.132812 1104.539062 C 1264.523438 1102.707031 1260.898438 1103.386719 1259.105469 1105.992188 L 1259.105469 1105.960938 C 1257.308594 1108.566406 1257.953125 1112.191406 1260.5625 1113.984375 C 1261.578125 1114.730469 1262.730469 1115.035156 1263.847656 1115.035156 Z M 189.886719 1093.53125 C 190.933594 1093.53125 192.019531 1093.261719 192.96875 1092.652344 C 195.644531 1090.957031 196.457031 1087.367188 194.761719 1084.691406 C 193.070312 1082.015625 189.480469 1081.203125 186.804688 1082.929688 C 184.128906 1084.625 183.316406 1088.179688 185.007812 1090.855469 C 186.125 1092.582031 187.988281 1093.53125 189.886719 1093.53125 Z M 1278.171875 1093.394531 C 1280.066406 1093.394531 1281.929688 1092.480469 1283.046875 1090.71875 C 1283.015625 1090.71875 1283.015625 1090.71875 1283.015625 1090.71875 C 1284.742188 1088.046875 1283.929688 1084.488281 1281.253906 1082.761719 C 1278.542969 1081.070312 1274.988281 1081.882812 1273.292969 1084.558594 C 1271.601562 1087.230469 1272.378906 1090.820312 1275.089844 1092.515625 C 1276.070312 1093.125 1277.121094 1093.394531 1278.171875 1093.394531 Z M 176.476562 1071.382812 C 177.457031 1071.382812 178.472656 1071.113281 179.355469 1070.605469 C 182.128906 1069.011719 183.046875 1065.492188 181.453125 1062.746094 C 179.863281 1059.972656 176.339844 1059.058594 173.597656 1060.648438 C 170.820312 1062.238281 169.90625 1065.761719 171.496094 1068.503906 C 172.546875 1070.367188 174.476562 1071.382812 176.476562 1071.382812 Z M 1291.617188 1071.214844 C 1293.648438 1071.214844 1295.578125 1070.164062 1296.628906 1068.335938 C 1298.21875 1065.558594 1297.269531 1062.070312 1294.527344 1060.445312 C 1291.75 1058.855469 1288.261719 1059.800781 1286.671875 1062.578125 C 1285.046875 1065.320312 1285.992188 1068.84375 1288.738281 1070.433594 C 1289.652344 1070.941406 1290.667969 1071.214844 1291.617188 1071.214844 Z M 163.945312 1048.761719 C 164.824219 1048.761719 165.773438 1048.558594 166.621094 1048.085938 C 169.398438 1046.59375 170.515625 1043.105469 169.023438 1040.296875 C 167.570312 1037.484375 164.082031 1036.402344 161.234375 1037.890625 C 158.425781 1039.347656 157.339844 1042.835938 158.832031 1045.679688 C 159.882812 1047.609375 161.878906 1048.761719 163.945312 1048.761719 Z M 1304.179688 1048.492188 C 1306.246094 1048.492188 1308.277344 1047.375 1309.292969 1045.410156 C 1310.785156 1042.597656 1309.699219 1039.109375 1306.890625 1037.621094 C 1304.113281 1036.128906 1300.625 1037.214844 1299.101562 1040.058594 C 1297.644531 1042.835938 1298.726562 1046.324219 1301.539062 1047.847656 C 1302.351562 1048.253906 1303.265625 1048.492188 1304.179688 1048.492188 Z M 152.363281 1025.597656 C 153.210938 1025.597656 154.023438 1025.429688 154.835938 1025.054688 C 157.714844 1023.667969 158.933594 1020.246094 157.578125 1017.367188 C 156.191406 1014.492188 152.769531 1013.269531 149.890625 1014.625 C 147.011719 1016.015625 145.792969 1019.433594 147.148438 1022.3125 C 148.128906 1024.414062 150.195312 1025.597656 152.363281 1025.597656 Z M 1315.796875 1025.226562 C 1317.960938 1025.226562 1319.996094 1024.007812 1321.011719 1021.941406 C 1321.011719 1021.972656 1321.011719 1021.972656 1321.011719 1021.972656 C 1322.363281 1019.097656 1321.144531 1015.640625 1318.265625 1014.289062 C 1315.390625 1012.898438 1311.96875 1014.152344 1310.582031 1017.03125 C 1309.226562 1019.875 1310.445312 1023.328125 1313.324219 1024.683594 C 1314.136719 1025.054688 1314.984375 1025.226562 1315.796875 1025.226562 Z M 141.695312 1002.0625 C 142.476562 1002.0625 143.21875 1001.925781 143.964844 1001.585938 C 146.910156 1000.335938 148.265625 996.949219 146.980469 994.003906 C 145.726562 991.089844 142.339844 989.703125 139.425781 990.988281 C 136.480469 992.242188 135.125 995.628906 136.414062 998.574219 C 137.328125 1000.707031 139.460938 1002.0625 141.695312 1002.0625 Z M 1326.460938 1001.585938 C 1328.699219 1001.585938 1330.832031 1000.265625 1331.78125 998.066406 C 1333.03125 995.121094 1331.679688 991.765625 1328.765625 990.515625 C 1325.820312 989.261719 1322.464844 990.617188 1321.214844 993.527344 C 1319.960938 996.441406 1321.28125 999.828125 1324.226562 1001.078125 C 1324.972656 1001.417969 1325.71875 1001.585938 1326.460938 1001.585938 Z M 132.011719 978.085938 C 132.6875 978.085938 133.398438 977.984375 134.074219 977.714844 C 137.054688 976.5625 138.546875 973.242188 137.394531 970.296875 C 136.277344 967.316406 132.957031 965.792969 129.976562 966.945312 C 127 968.0625 125.507812 971.414062 126.660156 974.359375 C 126.625 974.359375 126.625 974.359375 126.625 974.359375 C 127.507812 976.664062 129.707031 978.085938 132.011719 978.085938 Z M 1336.214844 977.476562 C 1338.519531 977.476562 1340.71875 976.054688 1341.601562 973.75 C 1342.71875 970.769531 1341.226562 967.453125 1338.214844 966.335938 C 1335.234375 965.214844 1331.914062 966.671875 1330.796875 969.6875 C 1329.644531 972.667969 1331.136719 975.984375 1334.148438 977.101562 C 1334.828125 977.375 1335.503906 977.476562 1336.214844 977.476562 Z M 123.273438 953.636719 C 123.882812 953.636719 124.527344 953.535156 125.101562 953.332031 C 128.117188 952.3125 129.742188 949.03125 128.726562 946.050781 C 127.710938 943.035156 124.457031 941.375 121.445312 942.425781 C 118.429688 943.441406 116.804688 946.691406 117.820312 949.707031 C 118.632812 952.109375 120.902344 953.636719 123.273438 953.636719 Z M 1344.917969 952.992188 C 1347.324219 952.992188 1349.59375 951.46875 1350.40625 949.03125 C 1351.421875 946.015625 1349.796875 942.765625 1346.78125 941.75 C 1343.769531 940.734375 1340.484375 942.390625 1339.5 945.371094 C 1338.484375 948.386719 1340.109375 951.636719 1343.125 952.652344 C 1343.699219 952.855469 1344.308594 952.992188 1344.917969 952.992188 Z M 115.550781 928.914062 C 116.058594 928.914062 116.601562 928.847656 117.175781 928.675781 C 120.226562 927.796875 121.988281 924.613281 121.105469 921.566406 C 120.226562 918.515625 117.042969 916.722656 113.960938 917.636719 C 110.914062 918.515625 109.152344 921.734375 110.03125 924.78125 C 110.742188 927.253906 113.046875 928.914062 115.550781 928.914062 Z M 1352.640625 928.203125 C 1355.144531 928.203125 1357.449219 926.542969 1358.160156 924.035156 C 1359.039062 920.988281 1357.28125 917.773438 1354.199219 916.890625 C 1351.148438 916.011719 1347.933594 917.773438 1347.085938 920.855469 C 1346.207031 923.902344 1347.96875 927.117188 1351.015625 927.964844 C 1351.558594 928.167969 1352.097656 928.203125 1352.640625 928.203125 Z M 108.847656 903.851562 C 109.320312 903.851562 109.761719 903.785156 110.234375 903.683594 C 113.316406 902.9375 115.214844 899.789062 114.433594 896.707031 C 113.6875 893.625 110.539062 891.765625 107.457031 892.507812 C 104.375 893.253906 102.480469 896.402344 103.257812 899.484375 C 103.902344 902.09375 106.238281 903.851562 108.847656 903.851562 Z M 1359.3125 903.175781 C 1361.917969 903.175781 1364.257812 901.414062 1364.898438 898.808594 C 1365.679688 895.691406 1363.78125 892.578125 1360.699219 891.832031 C 1357.617188 891.050781 1354.46875 892.949219 1353.722656 896.03125 C 1352.980469 899.113281 1354.839844 902.261719 1357.921875 903.007812 C 1358.398438 903.109375 1358.871094 903.175781 1359.3125 903.175781 Z M 103.15625 878.554688 C 103.53125 878.554688 103.9375 878.523438 104.308594 878.453125 C 107.425781 877.8125 109.421875 874.796875 108.8125 871.648438 C 108.167969 868.53125 105.121094 866.535156 102.007812 867.144531 C 98.890625 867.820312 96.890625 870.835938 97.5 873.949219 C 98.042969 876.695312 100.480469 878.554688 103.15625 878.554688 Z M 1365 877.878906 C 1367.675781 877.878906 1370.113281 876.015625 1370.65625 873.273438 C 1371.300781 870.125 1369.269531 867.109375 1366.152344 866.464844 C 1363.003906 865.824219 1359.988281 867.855469 1359.34375 870.96875 C 1358.703125 874.085938 1360.734375 877.132812 1363.851562 877.777344 C 1364.222656 877.84375 1364.628906 877.878906 1365 877.878906 Z M 98.484375 853.089844 C 98.789062 853.089844 99.09375 853.054688 99.398438 852.988281 C 102.546875 852.515625 104.679688 849.535156 104.140625 846.382812 C 103.664062 843.234375 100.683594 841.101562 97.535156 841.644531 C 94.386719 842.117188 92.253906 845.097656 92.761719 848.246094 C 93.234375 851.058594 95.671875 853.089844 98.484375 853.089844 Z M 1369.640625 852.378906 C 1372.417969 852.378906 1374.890625 850.347656 1375.328125 847.503906 C 1375.804688 844.351562 1373.671875 841.40625 1370.554688 840.898438 C 1367.40625 840.425781 1364.460938 842.523438 1363.953125 845.671875 C 1363.441406 848.824219 1365.578125 851.734375 1368.691406 852.277344 C 1369.03125 852.34375 1369.335938 852.378906 1369.640625 852.378906 Z M 94.828125 827.421875 C 95.0625 827.421875 95.300781 827.421875 95.539062 827.386719 C 98.6875 827.015625 100.957031 824.136719 100.550781 820.953125 C 100.175781 817.800781 97.296875 815.535156 94.148438 815.941406 C 90.964844 816.3125 88.730469 819.191406 89.101562 822.339844 C 89.476562 825.285156 91.980469 827.421875 94.828125 827.421875 Z M 1373.265625 826.675781 C 1376.144531 826.675781 1378.613281 824.542969 1378.953125 821.59375 C 1379.324219 818.445312 1377.089844 815.566406 1373.90625 815.195312 C 1370.757812 814.789062 1367.878906 817.058594 1367.507812 820.242188 C 1367.132812 823.390625 1369.371094 826.269531 1372.554688 826.640625 C 1372.789062 826.675781 1373.027344 826.675781 1373.265625 826.675781 Z M 92.21875 801.613281 C 92.386719 801.613281 92.523438 801.613281 92.691406 801.582031 C 95.875 801.308594 98.214844 798.566406 97.976562 795.382812 C 97.707031 792.199219 94.929688 789.863281 91.746094 790.066406 C 88.5625 790.371094 86.226562 793.113281 86.460938 796.296875 C 86.734375 799.347656 89.273438 801.613281 92.21875 801.613281 Z M 1375.804688 800.902344 C 1378.785156 800.902344 1381.289062 798.636719 1381.527344 795.585938 C 1381.796875 792.402344 1379.425781 789.625 1376.246094 789.390625 C 1373.0625 789.117188 1370.285156 791.488281 1370.011719 794.671875 C 1369.777344 797.855469 1372.148438 800.632812 1375.328125 800.871094 C 1375.5 800.902344 1375.667969 800.902344 1375.804688 800.902344 Z M 90.628906 775.742188 C 90.730469 775.742188 90.796875 775.707031 90.898438 775.707031 C 94.082031 775.605469 96.554688 772.898438 96.417969 769.746094 C 96.28125 766.566406 93.609375 764.058594 90.425781 764.226562 C 87.242188 764.328125 84.734375 767.039062 84.902344 770.222656 C 85.039062 773.304688 87.578125 775.742188 90.628906 775.742188 Z M 1377.363281 775.03125 C 1380.410156 775.03125 1382.984375 772.59375 1383.085938 769.511719 C 1383.1875 766.328125 1380.75 763.617188 1377.566406 763.515625 C 1374.382812 763.414062 1371.707031 765.855469 1371.605469 769.035156 C 1371.46875 772.21875 1373.941406 774.894531 1377.089844 774.996094 C 1377.191406 775.03125 1377.292969 775.03125 1377.363281 775.03125 Z M 90.121094 749.835938 C 93.300781 749.835938 95.875 747.226562 95.875 744.078125 C 95.875 740.894531 93.269531 738.320312 90.121094 738.320312 C 86.9375 738.320312 84.363281 740.929688 84.363281 744.078125 C 84.363281 747.261719 86.96875 749.835938 90.121094 749.835938 Z M 1377.871094 749.125 C 1381.054688 749.125 1383.625 746.515625 1383.625 743.367188 C 1383.625 743.097656 1383.625 742.894531 1383.558594 742.621094 C 1383.59375 742.386719 1383.625 742.148438 1383.625 741.945312 C 1383.625 738.761719 1381.019531 736.1875 1377.871094 736.222656 C 1374.6875 736.222656 1372.113281 738.796875 1372.113281 741.980469 C 1372.113281 742.25 1372.148438 742.453125 1372.179688 742.691406 C 1372.148438 742.925781 1372.113281 743.164062 1372.113281 743.367188 C 1372.113281 746.515625 1374.6875 749.125 1377.871094 749.125 Z M 90.628906 723.894531 C 93.710938 723.894531 96.28125 721.492188 96.382812 718.375 C 96.484375 715.191406 94.015625 712.515625 90.863281 712.378906 C 87.679688 712.277344 84.972656 714.75 84.871094 717.902344 C 84.769531 721.085938 87.242188 723.792969 90.390625 723.894531 C 90.457031 723.894531 90.527344 723.894531 90.628906 723.894531 Z M 1377.292969 721.761719 C 1377.394531 721.761719 1377.464844 721.761719 1377.566406 721.761719 C 1380.75 721.625 1383.21875 718.949219 1383.050781 715.765625 C 1382.949219 712.582031 1380.242188 710.078125 1377.058594 710.246094 C 1373.875 710.382812 1371.402344 713.058594 1371.535156 716.242188 C 1371.671875 719.355469 1374.210938 721.761719 1377.292969 721.761719 Z M 92.152344 698.023438 C 95.132812 698.023438 97.636719 695.71875 97.875 692.707031 C 98.113281 689.523438 95.742188 686.746094 92.558594 686.472656 C 89.375 686.238281 86.632812 688.609375 86.359375 691.789062 C 86.089844 694.972656 88.492188 697.75 91.675781 697.988281 C 91.8125 698.023438 91.980469 698.023438 92.152344 698.023438 Z M 1375.667969 695.886719 C 1375.839844 695.886719 1375.972656 695.855469 1376.144531 695.855469 C 1379.324219 695.582031 1381.664062 692.808594 1381.425781 689.625 C 1381.15625 686.441406 1378.410156 684.101562 1375.195312 684.339844 C 1372.011719 684.613281 1369.675781 687.386719 1369.910156 690.570312 C 1370.214844 693.585938 1372.722656 695.886719 1375.667969 695.886719 Z M 94.691406 672.21875 C 97.570312 672.21875 100.042969 670.082031 100.378906 667.136719 C 100.753906 663.953125 98.519531 661.109375 95.335938 660.738281 C 92.183594 660.363281 89.304688 662.597656 88.933594 665.78125 C 88.5625 668.933594 90.796875 671.808594 93.980469 672.183594 C 94.21875 672.21875 94.453125 672.21875 94.691406 672.21875 Z M 1373.0625 670.117188 C 1373.296875 670.117188 1373.535156 670.082031 1373.773438 670.050781 C 1376.921875 669.675781 1379.15625 666.796875 1378.785156 663.613281 C 1378.410156 660.433594 1375.53125 658.230469 1372.351562 658.601562 C 1369.199219 658.976562 1366.964844 661.855469 1367.335938 665.039062 C 1367.710938 667.949219 1370.214844 670.117188 1373.0625 670.117188 Z M 98.246094 646.546875 C 101.058594 646.546875 103.496094 644.515625 103.9375 641.703125 C 104.410156 638.554688 102.3125 635.609375 99.160156 635.101562 C 96.011719 634.59375 93.066406 636.761719 92.558594 639.84375 C 92.523438 639.84375 92.523438 639.84375 92.523438 639.84375 C 92.050781 643.023438 94.148438 645.9375 97.296875 646.480469 C 97.636719 646.511719 97.941406 646.546875 98.246094 646.546875 Z M 1369.402344 644.449219 C 1369.707031 644.449219 1370.046875 644.414062 1370.351562 644.347656 C 1373.5 643.839844 1375.632812 640.859375 1375.09375 637.707031 C 1374.585938 634.558594 1371.605469 632.425781 1368.457031 632.96875 C 1365.304688 633.476562 1363.171875 636.457031 1363.714844 639.605469 C 1364.1875 642.414062 1366.625 644.449219 1369.402344 644.449219 Z M 102.851562 621.011719 C 105.5625 621.011719 107.964844 619.148438 108.507812 616.40625 C 109.152344 613.292969 107.121094 610.242188 104.003906 609.601562 C 100.886719 608.992188 97.839844 611.023438 97.195312 614.136719 C 96.554688 617.253906 98.585938 620.300781 101.734375 620.945312 C 102.109375 621.011719 102.480469 621.011719 102.851562 621.011719 Z M 1364.695312 618.945312 C 1365.070312 618.945312 1365.476562 618.878906 1365.847656 618.84375 C 1368.996094 618.167969 1370.960938 615.15625 1370.351562 612.003906 C 1369.707031 608.890625 1366.660156 606.890625 1363.542969 607.535156 C 1360.429688 608.179688 1358.429688 611.226562 1359.039062 614.339844 C 1359.617188 617.085938 1362.019531 618.945312 1364.695312 618.945312 Z M 108.507812 595.714844 C 111.117188 595.714844 113.453125 593.953125 114.097656 591.347656 C 114.839844 588.230469 112.976562 585.117188 109.863281 584.371094 C 106.78125 583.625 103.664062 585.488281 102.921875 588.605469 C 102.175781 591.6875 104.039062 594.800781 107.152344 595.546875 C 107.59375 595.683594 108.066406 595.714844 108.507812 595.714844 Z M 1358.972656 593.648438 C 1359.445312 593.648438 1359.886719 593.582031 1360.363281 593.480469 C 1363.441406 592.734375 1365.339844 589.585938 1364.5625 586.503906 C 1363.816406 583.421875 1360.667969 581.527344 1357.585938 582.304688 C 1354.503906 583.085938 1352.640625 586.199219 1353.386719 589.28125 C 1354.027344 591.890625 1356.367188 593.648438 1358.972656 593.648438 Z M 115.179688 570.691406 C 117.652344 570.691406 119.953125 569.03125 120.699219 566.523438 C 121.578125 563.476562 119.820312 560.257812 116.738281 559.378906 C 113.6875 558.5 110.472656 560.257812 109.589844 563.339844 C 108.710938 566.390625 110.472656 569.605469 113.554688 570.488281 C 114.128906 570.621094 114.636719 570.691406 115.179688 570.691406 Z M 1352.234375 568.625 C 1352.777344 568.625 1353.285156 568.554688 1353.859375 568.386719 C 1356.90625 567.507812 1358.667969 564.289062 1357.789062 561.242188 C 1356.90625 558.195312 1353.691406 556.433594 1350.640625 557.3125 C 1347.59375 558.191406 1345.832031 561.410156 1346.714844 564.457031 C 1347.425781 567 1349.726562 568.625 1352.234375 568.625 Z M 122.867188 545.933594 C 125.269531 545.933594 127.539062 544.410156 128.351562 541.972656 C 129.335938 538.957031 127.710938 535.707031 124.695312 534.691406 C 121.679688 533.675781 118.429688 535.335938 117.414062 538.347656 C 116.398438 541.363281 118.058594 544.613281 121.070312 545.628906 C 121.648438 545.832031 122.257812 545.933594 122.867188 545.933594 Z M 1344.480469 543.902344 C 1345.089844 543.902344 1345.699219 543.800781 1346.308594 543.597656 C 1349.289062 542.582031 1350.945312 539.332031 1349.929688 536.316406 C 1348.882812 533.300781 1345.628906 531.675781 1342.617188 532.691406 C 1339.636719 533.710938 1337.976562 536.992188 1338.992188 539.972656 C 1339.804688 542.378906 1342.039062 543.902344 1344.480469 543.902344 Z M 131.535156 521.449219 C 133.839844 521.449219 136.039062 519.992188 136.921875 517.691406 C 138.039062 514.710938 136.546875 511.390625 133.535156 510.273438 C 130.554688 509.121094 127.269531 510.613281 126.117188 513.628906 C 125.035156 516.605469 126.523438 519.925781 129.503906 521.042969 C 130.183594 521.28125 130.859375 521.449219 131.535156 521.449219 Z M 1335.707031 519.484375 C 1336.386719 519.484375 1337.097656 519.382812 1337.738281 519.113281 C 1340.71875 517.996094 1342.210938 514.644531 1341.09375 511.695312 C 1339.941406 508.714844 1336.621094 507.226562 1333.675781 508.378906 C 1330.695312 509.496094 1329.207031 512.847656 1330.324219 515.792969 C 1331.238281 518.097656 1333.371094 519.484375 1335.707031 519.484375 Z M 141.222656 497.339844 C 143.457031 497.339844 145.554688 496.015625 146.539062 493.816406 C 147.792969 490.871094 146.4375 487.515625 143.492188 486.230469 C 140.542969 484.976562 137.191406 486.367188 135.9375 489.277344 C 134.6875 492.222656 136.039062 495.578125 138.988281 496.863281 C 139.699219 497.136719 140.476562 497.339844 141.222656 497.339844 Z M 1326.023438 495.542969 C 1326.765625 495.542969 1327.546875 495.40625 1328.292969 495.070312 C 1331.203125 493.816406 1332.558594 490.429688 1331.304688 487.484375 C 1330.050781 484.535156 1326.667969 483.183594 1323.71875 484.46875 C 1320.808594 485.722656 1319.453125 489.109375 1320.707031 492.054688 C 1321.652344 494.222656 1323.753906 495.542969 1326.023438 495.542969 Z M 151.855469 473.597656 C 154.023438 473.597656 156.089844 472.378906 157.070312 470.3125 C 158.457031 467.433594 157.207031 463.980469 154.328125 462.625 C 151.449219 461.273438 148.027344 462.492188 146.675781 465.371094 C 145.285156 468.246094 146.539062 471.667969 149.417969 473.058594 C 150.195312 473.429688 151.042969 473.597656 151.855469 473.597656 Z M 1315.355469 471.972656 C 1316.167969 471.972656 1317.015625 471.804688 1317.828125 471.398438 C 1320.671875 470.042969 1321.925781 466.589844 1320.535156 463.742188 C 1319.148438 460.867188 1315.726562 459.644531 1312.847656 461 C 1310.003906 462.390625 1308.75 465.84375 1310.140625 468.6875 C 1311.121094 470.753906 1313.1875 471.972656 1315.355469 471.972656 Z M 163.472656 450.367188 C 165.535156 450.367188 167.570312 449.25 168.585938 447.285156 C 170.074219 444.476562 168.992188 441.019531 166.179688 439.496094 C 163.371094 438.039062 159.882812 439.125 158.390625 441.902344 C 156.933594 444.710938 157.984375 448.199219 160.796875 449.691406 C 161.640625 450.164062 162.589844 450.367188 163.472656 450.367188 Z M 1303.707031 448.84375 C 1304.621094 448.84375 1305.535156 448.640625 1306.414062 448.164062 C 1309.191406 446.710938 1310.308594 443.222656 1308.820312 440.378906 C 1307.363281 437.566406 1303.875 436.484375 1301.03125 437.972656 C 1298.21875 439.429688 1297.136719 442.917969 1298.625 445.761719 C 1299.640625 447.726562 1301.640625 448.84375 1303.707031 448.84375 Z M 176 427.644531 C 178 427.644531 179.929688 426.59375 180.980469 424.765625 C 182.570312 421.988281 181.65625 418.5 178.878906 416.910156 C 176.101562 415.28125 172.613281 416.230469 171.023438 419.007812 C 169.429688 421.785156 170.34375 425.273438 173.121094 426.863281 C 174.003906 427.371094 175.019531 427.644531 176 427.644531 Z M 1291.175781 426.222656 C 1292.15625 426.222656 1293.140625 425.949219 1294.054688 425.441406 C 1296.832031 423.816406 1297.746094 420.328125 1296.152344 417.550781 C 1294.527344 414.808594 1291.039062 413.859375 1288.261719 415.484375 C 1285.519531 417.078125 1284.570312 420.601562 1286.199219 423.34375 C 1287.246094 425.171875 1289.175781 426.222656 1291.175781 426.222656 Z M 189.410156 405.429688 C 191.308594 405.429688 193.171875 404.480469 194.289062 402.753906 C 195.980469 400.042969 195.167969 396.488281 192.492188 394.792969 C 189.816406 393.101562 186.226562 393.914062 184.535156 396.589844 C 182.839844 399.265625 183.65625 402.855469 186.328125 404.546875 C 187.277344 405.125 188.363281 405.429688 189.410156 405.429688 Z M 1277.730469 404.109375 C 1278.78125 404.109375 1279.863281 403.804688 1280.8125 403.226562 C 1283.488281 401.5 1284.300781 397.945312 1282.609375 395.269531 C 1280.878906 392.558594 1277.324219 391.78125 1274.648438 393.472656 C 1271.941406 395.167969 1271.160156 398.757812 1272.855469 401.433594 C 1273.9375 403.160156 1275.835938 404.109375 1277.730469 404.109375 Z M 203.738281 383.753906 C 205.566406 383.753906 207.359375 382.875 208.476562 381.28125 C 210.273438 378.675781 209.628906 375.050781 207.019531 373.289062 C 204.414062 371.460938 200.789062 372.140625 198.996094 374.746094 C 197.199219 377.355469 197.84375 380.945312 200.453125 382.738281 C 201.46875 383.449219 202.585938 383.753906 203.738281 383.753906 Z M 1263.40625 382.535156 C 1264.523438 382.535156 1265.675781 382.230469 1266.65625 381.484375 C 1269.265625 379.691406 1269.941406 376.101562 1268.113281 373.492188 C 1266.285156 370.886719 1262.695312 370.242188 1260.085938 372.039062 C 1257.480469 373.867188 1256.835938 377.421875 1258.632812 380.03125 C 1259.78125 381.65625 1261.578125 382.535156 1263.40625 382.535156 Z M 218.90625 362.691406 C 220.667969 362.691406 222.394531 361.910156 223.511719 360.386719 C 225.445312 357.847656 224.9375 354.257812 222.363281 352.328125 C 219.824219 350.429688 216.234375 350.941406 214.300781 353.480469 C 212.40625 356.054688 212.914062 359.644531 215.453125 361.539062 C 216.46875 362.316406 217.6875 362.691406 218.90625 362.691406 Z M 1248.199219 361.539062 C 1249.417969 361.539062 1250.640625 361.167969 1251.6875 360.355469 C 1254.230469 358.457031 1254.703125 354.867188 1252.804688 352.292969 C 1250.875 349.753906 1247.285156 349.28125 1244.746094 351.175781 C 1242.171875 353.105469 1241.699219 356.695312 1243.628906 359.238281 C 1244.746094 360.726562 1246.472656 361.539062 1248.199219 361.539062 Z M 234.890625 342.269531 C 236.550781 342.269531 238.246094 341.558594 239.394531 340.171875 C 241.429688 337.699219 241.023438 334.074219 238.550781 332.078125 C 236.113281 330.042969 232.453125 330.417969 230.457031 332.890625 C 228.425781 335.363281 228.796875 338.984375 231.269531 340.984375 C 232.320312 341.863281 233.605469 342.269531 234.890625 342.269531 Z M 1232.183594 341.1875 C 1233.46875 341.1875 1234.789062 340.746094 1235.839844 339.898438 C 1238.277344 337.867188 1238.652344 334.246094 1236.652344 331.773438 C 1234.65625 329.332031 1230.996094 328.960938 1228.523438 330.960938 C 1226.085938 332.992188 1225.714844 336.613281 1227.710938 339.085938 C 1228.863281 340.476562 1230.523438 341.1875 1232.183594 341.1875 Z M 251.722656 322.527344 C 253.316406 322.527344 254.90625 321.847656 256.023438 320.5625 C 258.15625 318.160156 257.921875 314.535156 255.550781 312.433594 C 253.179688 310.335938 249.523438 310.539062 247.421875 312.910156 C 245.324219 315.3125 245.558594 318.9375 247.894531 321.035156 C 248.980469 322.054688 250.367188 322.527344 251.722656 322.527344 Z M 1215.351562 321.476562 C 1216.707031 321.476562 1218.09375 321.003906 1219.179688 320.019531 C 1221.550781 317.921875 1221.785156 314.296875 1219.652344 311.894531 C 1219.6875 311.894531 1219.6875 311.894531 1219.6875 311.894531 C 1217.554688 309.523438 1213.929688 309.285156 1211.523438 311.417969 C 1209.121094 313.550781 1208.917969 317.175781 1211.050781 319.582031 L 1211.085938 319.582031 C 1212.203125 320.800781 1213.761719 321.476562 1215.351562 321.476562 Z M 269.300781 303.460938 C 270.789062 303.460938 272.3125 302.851562 273.429688 301.667969 C 275.632812 299.363281 275.5625 295.738281 273.261719 293.503906 C 270.957031 291.304688 267.335938 291.40625 265.101562 293.675781 C 262.898438 295.976562 262.964844 299.632812 265.269531 301.835938 C 266.386719 302.917969 267.84375 303.460938 269.300781 303.460938 Z M 1197.742188 302.445312 C 1199.199219 302.445312 1200.621094 301.902344 1201.738281 300.820312 C 1204.007812 298.585938 1204.074219 294.925781 1201.875 292.65625 C 1199.636719 290.355469 1196.015625 290.289062 1193.710938 292.523438 C 1191.410156 294.722656 1191.339844 298.382812 1193.578125 300.648438 C 1194.726562 301.871094 1196.21875 302.445312 1197.742188 302.445312 Z M 287.621094 285.105469 C 289.042969 285.105469 290.464844 284.5625 291.582031 283.480469 C 293.886719 281.246094 293.953125 277.621094 291.75 275.320312 C 289.515625 273.050781 285.894531 272.949219 283.589844 275.183594 C 281.289062 277.386719 281.21875 281.042969 283.421875 283.3125 C 284.570312 284.53125 286.097656 285.105469 287.621094 285.105469 Z M 1179.386719 284.125 C 1180.910156 284.125 1182.433594 283.546875 1183.550781 282.363281 C 1185.753906 280.058594 1185.6875 276.402344 1183.382812 274.203125 C 1181.082031 271.964844 1177.457031 272.066406 1175.222656 274.371094 C 1173.019531 276.671875 1173.121094 280.296875 1175.390625 282.53125 C 1176.507812 283.617188 1177.964844 284.125 1179.386719 284.125 Z M 306.617188 267.53125 C 307.972656 267.53125 309.363281 267.054688 310.445312 266.074219 C 312.847656 263.972656 313.050781 260.351562 310.917969 257.945312 C 308.785156 255.574219 305.164062 255.339844 302.757812 257.472656 C 300.386719 259.605469 300.148438 263.230469 302.285156 265.632812 C 303.433594 266.851562 305.027344 267.53125 306.617188 267.53125 Z M 1160.289062 266.582031 C 1161.914062 266.582031 1163.46875 265.90625 1164.621094 264.617188 C 1166.722656 262.214844 1166.519531 258.589844 1164.148438 256.488281 C 1161.742188 254.390625 1158.121094 254.59375 1156.019531 256.964844 C 1153.886719 259.367188 1154.125 262.992188 1156.496094 265.09375 C 1157.613281 266.109375 1158.933594 266.582031 1160.289062 266.582031 Z M 326.363281 250.699219 C 327.613281 250.699219 328.933594 250.257812 329.984375 249.414062 C 332.457031 247.378906 332.796875 243.757812 330.796875 241.285156 C 328.765625 238.847656 325.140625 238.507812 322.703125 240.503906 C 320.230469 242.539062 319.894531 246.128906 321.890625 248.597656 C 323.007812 249.988281 324.667969 250.699219 326.363281 250.699219 Z M 1140.542969 249.785156 C 1142.203125 249.785156 1143.863281 249.074219 1145.015625 247.652344 C 1147.046875 245.179688 1146.671875 241.554688 1144.167969 239.558594 C 1141.730469 237.527344 1138.070312 237.933594 1136.074219 240.402344 C 1134.074219 242.84375 1134.449219 246.464844 1136.921875 248.496094 C 1137.96875 249.378906 1139.257812 249.785156 1140.542969 249.785156 Z M 346.714844 234.679688 C 347.933594 234.679688 349.117188 234.308594 350.167969 233.53125 C 352.707031 231.632812 353.214844 228.007812 351.285156 225.46875 C 349.390625 222.929688 345.765625 222.421875 343.226562 224.351562 C 340.6875 226.25 340.179688 229.871094 342.109375 232.410156 C 343.226562 233.902344 344.953125 234.679688 346.714844 234.679688 Z M 1120.125 233.800781 C 1121.882812 233.800781 1123.613281 232.988281 1124.730469 231.496094 C 1126.625 228.957031 1126.117188 225.335938 1123.578125 223.4375 C 1121.039062 221.542969 1117.414062 222.050781 1115.515625 224.589844 C 1113.621094 227.128906 1114.09375 230.753906 1116.667969 232.648438 C 1117.683594 233.429688 1118.902344 233.800781 1120.125 233.800781 Z M 367.675781 219.507812 C 368.828125 219.507812 369.945312 219.171875 370.960938 218.460938 C 373.570312 216.632812 374.246094 213.074219 372.417969 210.433594 C 370.589844 207.824219 367 207.148438 364.390625 208.976562 C 361.785156 210.804688 361.140625 214.394531 362.9375 217.003906 C 364.085938 218.664062 365.882812 219.507812 367.675781 219.507812 Z M 1099.058594 218.664062 C 1100.886719 218.664062 1102.683594 217.78125 1103.765625 216.15625 C 1105.59375 213.550781 1104.917969 209.960938 1102.308594 208.132812 C 1099.703125 206.335938 1096.113281 207.011719 1094.285156 209.585938 C 1092.457031 212.195312 1093.132812 215.816406 1095.742188 217.613281 C 1096.789062 218.324219 1097.90625 218.664062 1099.058594 218.664062 Z M 389.28125 205.21875 C 390.332031 205.21875 391.417969 204.914062 392.398438 204.304688 L 392.398438 204.339844 C 395.074219 202.609375 395.851562 199.054688 394.160156 196.378906 C 392.464844 193.671875 388.875 192.890625 386.199219 194.585938 C 383.527344 196.277344 382.714844 199.867188 384.40625 202.542969 C 385.523438 204.238281 387.351562 205.21875 389.28125 205.21875 Z M 1077.386719 204.371094 C 1079.28125 204.371094 1081.144531 203.421875 1082.261719 201.664062 C 1083.957031 198.988281 1083.144531 195.429688 1080.46875 193.738281 C 1077.757812 192.046875 1074.203125 192.824219 1072.507812 195.53125 C 1070.816406 198.207031 1071.628906 201.796875 1074.304688 203.492188 C 1075.253906 204.066406 1076.335938 204.371094 1077.386719 204.371094 Z M 411.429688 191.738281 C 412.414062 191.738281 413.394531 191.503906 414.308594 190.960938 C 417.050781 189.371094 418 185.847656 416.375 183.105469 C 414.78125 180.328125 411.261719 179.414062 408.519531 181.003906 C 405.773438 182.628906 404.828125 186.117188 406.417969 188.894531 C 407.503906 190.722656 409.433594 191.738281 411.429688 191.738281 Z M 1055.136719 190.925781 C 1057.167969 190.925781 1059.097656 189.878906 1060.148438 188.050781 C 1061.738281 185.273438 1060.792969 181.785156 1058.046875 180.160156 C 1058.046875 180.191406 1058.046875 180.191406 1058.046875 180.191406 C 1055.273438 178.566406 1051.75 179.515625 1050.160156 182.292969 C 1048.566406 185.070312 1049.515625 188.558594 1052.292969 190.148438 C 1053.207031 190.691406 1054.1875 190.925781 1055.136719 190.925781 Z M 434.050781 179.210938 C 434.933594 179.210938 435.882812 179.007812 436.726562 178.53125 C 439.539062 177.078125 440.621094 173.589844 439.132812 170.742188 C 437.675781 167.933594 434.1875 166.847656 431.34375 168.339844 C 428.53125 169.828125 427.449219 173.316406 428.9375 176.164062 C 429.988281 178.09375 431.988281 179.210938 434.050781 179.210938 Z M 1032.414062 178.398438 C 1034.480469 178.398438 1036.476562 177.28125 1037.527344 175.316406 C 1038.984375 172.503906 1037.898438 169.050781 1035.121094 167.527344 C 1032.3125 166.070312 1028.824219 167.152344 1027.332031 169.964844 C 1025.878906 172.742188 1026.925781 176.230469 1029.773438 177.753906 C 1030.617188 178.195312 1031.5 178.398438 1032.414062 178.398438 Z M 457.183594 167.628906 C 458.027344 167.628906 458.839844 167.425781 459.652344 167.050781 C 462.53125 165.664062 463.75 162.242188 462.363281 159.367188 C 461.007812 156.519531 457.589844 155.269531 454.710938 156.65625 C 451.832031 158.011719 450.613281 161.464844 452 164.308594 C 452.984375 166.410156 455.015625 167.628906 457.183594 167.628906 Z M 1009.179688 166.816406 C 1011.347656 166.816406 1013.414062 165.597656 1014.398438 163.53125 C 1015.75 160.652344 1014.5 157.230469 1011.652344 155.878906 C 1008.773438 154.488281 1005.320312 155.742188 1003.964844 158.621094 C 1002.613281 161.464844 1003.863281 164.917969 1006.710938 166.273438 C 1007.488281 166.644531 1008.335938 166.816406 1009.179688 166.816406 Z M 480.753906 156.960938 C 481.496094 156.960938 482.277344 156.824219 483.019531 156.488281 C 485.933594 155.234375 487.289062 151.847656 486.035156 148.933594 C 484.78125 145.988281 481.394531 144.632812 478.449219 145.886719 C 475.535156 147.140625 474.183594 150.527344 475.433594 153.472656 C 476.382812 155.640625 478.484375 156.960938 480.753906 156.960938 Z M 985.476562 156.214844 C 987.710938 156.214844 989.84375 154.894531 990.792969 152.695312 C 992.046875 149.746094 990.691406 146.394531 987.746094 145.140625 C 984.832031 143.890625 981.445312 145.242188 980.191406 148.191406 C 978.941406 151.101562 980.292969 154.488281 983.242188 155.742188 C 983.953125 156.046875 984.730469 156.214844 985.476562 156.214844 Z M 504.695312 147.277344 C 505.371094 147.277344 506.082031 147.175781 506.726562 146.902344 C 509.707031 145.75 511.195312 142.433594 510.078125 139.488281 C 508.929688 136.507812 505.609375 135.015625 502.664062 136.132812 C 499.683594 137.25 498.191406 140.605469 499.308594 143.550781 C 500.191406 145.851562 502.359375 147.277344 504.695312 147.277344 Z M 961.363281 146.53125 C 963.699219 146.53125 965.902344 145.109375 966.75 142.804688 C 967.867188 139.824219 966.375 136.507812 963.394531 135.390625 C 960.417969 134.269531 957.097656 135.761719 955.980469 138.777344 C 954.863281 141.753906 956.351562 145.039062 959.332031 146.191406 C 960.007812 146.394531 960.6875 146.53125 961.363281 146.53125 Z M 529.113281 138.503906 C 529.722656 138.503906 530.363281 138.402344 530.941406 138.199219 C 533.953125 137.183594 535.578125 133.933594 534.5625 130.917969 C 533.546875 127.90625 530.261719 126.277344 527.25 127.296875 C 524.269531 128.3125 522.609375 131.5625 523.660156 134.574219 C 524.472656 137.015625 526.707031 138.503906 529.113281 138.503906 Z M 936.878906 137.859375 C 939.285156 137.859375 941.519531 136.335938 942.332031 133.898438 C 943.347656 130.886719 941.6875 127.632812 938.675781 126.617188 C 935.695312 125.601562 932.375 127.261719 931.425781 130.273438 C 930.410156 133.289062 932.070312 136.539062 935.050781 137.554688 C 935.625 137.757812 936.269531 137.859375 936.878906 137.859375 Z M 553.867188 130.785156 C 554.375 130.785156 554.917969 130.683594 555.492188 130.546875 C 558.539062 129.664062 560.300781 126.449219 559.421875 123.402344 C 558.539062 120.351562 555.324219 118.59375 552.273438 119.472656 C 549.226562 120.351562 547.464844 123.535156 548.347656 126.582031 C 549.058594 129.15625 551.359375 130.785156 553.867188 130.785156 Z M 912.089844 130.171875 C 914.597656 130.171875 916.898438 128.546875 917.609375 126.007812 C 918.492188 122.960938 916.730469 119.742188 913.648438 118.898438 C 910.601562 118.015625 907.382812 119.777344 906.535156 122.859375 C 905.65625 125.90625 907.417969 129.125 910.5 129.96875 C 911.007812 130.140625 911.546875 130.171875 912.089844 130.171875 Z M 578.894531 124.042969 C 579.367188 124.042969 579.808594 123.976562 580.28125 123.875 C 583.363281 123.097656 585.257812 119.980469 584.480469 116.898438 C 583.734375 113.816406 580.585938 111.921875 577.503906 112.699219 C 574.421875 113.445312 572.527344 116.59375 573.304688 119.675781 C 573.949219 122.28125 576.285156 124.042969 578.894531 124.042969 Z M 887.03125 123.535156 C 889.636719 123.535156 891.976562 121.773438 892.617188 119.167969 C 893.363281 116.050781 891.5 112.9375 888.386719 112.191406 C 885.304688 111.445312 882.1875 113.34375 881.441406 116.425781 C 880.664062 119.507812 882.558594 122.621094 885.640625 123.367188 C 886.117188 123.46875 886.554688 123.535156 887.03125 123.535156 Z M 604.15625 118.320312 C 604.5625 118.320312 604.933594 118.285156 605.339844 118.21875 C 608.457031 117.574219 610.457031 114.5625 609.84375 111.445312 C 609.203125 108.296875 606.152344 106.300781 603.039062 106.941406 C 599.921875 107.585938 597.925781 110.601562 598.535156 113.75 C 599.078125 116.457031 601.515625 118.320312 604.15625 118.320312 Z M 861.734375 117.914062 C 864.410156 117.914062 866.8125 116.019531 867.390625 113.273438 C 868 110.160156 865.964844 107.144531 862.851562 106.503906 C 859.734375 105.859375 856.6875 107.890625 856.042969 111.007812 C 855.402344 114.15625 857.464844 117.167969 860.582031 117.8125 C 860.953125 117.847656 861.359375 117.914062 861.734375 117.914062 Z M 629.691406 113.648438 C 629.960938 113.648438 630.300781 113.613281 630.605469 113.546875 C 633.753906 113.070312 635.886719 110.089844 635.347656 106.941406 C 634.835938 103.792969 631.890625 101.660156 628.742188 102.167969 C 628.742188 102.203125 628.742188 102.203125 628.742188 102.203125 C 625.59375 102.675781 623.460938 105.65625 623.96875 108.804688 C 624.441406 111.648438 626.878906 113.648438 629.691406 113.648438 Z M 836.199219 113.308594 C 839.011719 113.308594 841.449219 111.277344 841.886719 108.433594 C 842.394531 105.316406 840.230469 102.371094 837.113281 101.863281 C 833.964844 101.355469 831.019531 103.523438 830.511719 106.605469 C 830.035156 109.785156 832.136719 112.699219 835.285156 113.242188 C 835.589844 113.273438 835.929688 113.308594 836.199219 113.308594 Z M 655.359375 109.988281 C 655.597656 109.988281 655.835938 109.988281 656.039062 109.957031 C 659.21875 109.550781 661.457031 106.707031 661.050781 103.523438 C 660.675781 100.339844 657.796875 98.105469 654.648438 98.511719 C 651.464844 98.882812 649.230469 101.761719 649.601562 104.910156 C 649.976562 107.855469 652.480469 109.988281 655.359375 109.988281 Z M 810.53125 109.71875 C 813.40625 109.71875 815.878906 107.550781 816.21875 104.640625 C 816.589844 101.457031 814.355469 98.613281 811.171875 98.238281 C 807.988281 97.867188 805.144531 100.101562 804.773438 103.285156 C 804.398438 106.46875 806.636719 109.3125 809.816406 109.683594 C 810.089844 109.71875 810.292969 109.71875 810.53125 109.71875 Z M 681.132812 107.382812 C 681.265625 107.382812 681.4375 107.382812 681.605469 107.382812 C 684.789062 107.113281 687.125 104.335938 686.886719 101.152344 C 686.617188 97.96875 683.875 95.632812 680.691406 95.867188 C 677.507812 96.140625 675.171875 98.882812 675.40625 102.097656 C 675.609375 105.078125 678.152344 107.382812 681.132812 107.382812 Z M 784.722656 107.214844 C 787.703125 107.214844 790.210938 104.945312 790.449219 101.894531 C 790.71875 98.714844 788.347656 95.96875 785.164062 95.699219 C 781.980469 95.429688 779.203125 97.832031 778.96875 101.015625 C 778.695312 104.199219 781.066406 106.941406 784.25 107.214844 C 784.453125 107.214844 784.589844 107.214844 784.722656 107.214844 Z M 707.003906 105.789062 C 707.105469 105.789062 707.171875 105.789062 707.242188 105.789062 C 710.425781 105.6875 712.929688 102.980469 712.761719 99.796875 C 712.625 96.613281 709.949219 94.140625 706.765625 94.3125 C 706.765625 94.277344 706.765625 94.277344 706.765625 94.277344 C 703.582031 94.414062 701.113281 97.085938 701.246094 100.304688 C 701.382812 103.351562 703.921875 105.789062 707.003906 105.789062 Z M 758.851562 105.6875 C 761.933594 105.6875 764.472656 103.285156 764.609375 100.167969 C 764.710938 96.984375 762.238281 94.3125 759.054688 94.210938 C 755.871094 94.074219 753.195312 96.578125 753.09375 99.730469 C 752.992188 102.914062 755.464844 105.585938 758.613281 105.6875 C 758.714844 105.6875 758.785156 105.6875 758.851562 105.6875 Z M 732.945312 105.25 C 736.128906 105.25 738.703125 102.640625 738.703125 99.492188 C 738.703125 96.308594 736.09375 93.734375 732.945312 93.734375 C 729.761719 93.734375 727.1875 96.34375 727.1875 99.492188 C 727.152344 102.675781 729.761719 105.25 732.945312 105.25 Z M 732.910156 93.699219 C 732.945312 93.699219 732.945312 93.699219 732.910156 93.699219 C 732.945312 93.699219 732.945312 93.699219 732.910156 93.699219 Z M 738.601562 1251.78125 L 738.601562 1318.054688 L 738.667969 1318.054688 Z M 761.664062 1285.003906 L 767.046875 1317.34375 L 761.664062 1284.664062 L 761.664062 1251.546875 L 756.175781 1251.984375 L 761.664062 1285.003906 L 761.664062 1317.785156 Z M 715.640625 1283.851562 L 710.558594 1316.972656 L 715.640625 1317.34375 Z M 784.621094 1283.820312 L 790.007812 1316.160156 L 784.621094 1283.480469 L 784.621094 1250.359375 L 779.136719 1250.800781 L 784.621094 1283.820312 L 784.621094 1316.601562 Z M 692.714844 1282.597656 L 697.386719 1249.785156 L 692.644531 1249.445312 L 692.644531 1282.972656 L 688.007812 1315.378906 L 692.644531 1282.972656 L 692.644531 1315.6875 Z M 812.222656 1314.128906 L 807.480469 1280.941406 L 807.480469 1248.226562 L 807.480469 1280.941406 L 802.84375 1248.53125 L 807.480469 1281.347656 L 807.480469 1314.464844 Z M 670.566406 1274.8125 L 674.796875 1247.277344 L 670.566406 1274.8125 L 674.492188 1247.210938 L 669.753906 1279.992188 L 664.707031 1312.738281 L 665.113281 1312.808594 Z M 830.679688 1280.636719 L 835.726562 1310.945312 L 830.339844 1278.367188 L 825.632812 1245.484375 L 824.820312 1245.617188 L 830.644531 1280.601562 L 835.015625 1311.082031 Z M 647.164062 1276.03125 L 656.140625 1244.601562 L 647.164062 1276.03125 L 652.144531 1243.722656 L 647.0625 1276.46875 L 637.953125 1308.335938 L 642.085938 1309.25 Z M 853.03125 1274.539062 L 863.394531 1305.660156 L 852.960938 1274.234375 L 848.289062 1241.453125 L 842.429688 1242.84375 L 853.03125 1274.539062 L 857.667969 1307.015625 Z M 624.609375 1271.558594 L 633.585938 1240.132812 L 624.609375 1271.558594 L 629.589844 1239.253906 L 624.507812 1272 L 615.398438 1303.867188 L 619.53125 1304.78125 Z M 884.558594 1301.125 L 875.3125 1268.78125 L 880.832031 1301.96875 Z M 602.15625 1266.582031 L 611.910156 1234.917969 L 607.136719 1233.832031 L 602.054688 1266.953125 L 592.4375 1298.246094 L 602.054688 1266.953125 L 597.078125 1299.328125 Z M 898.070312 1264.617188 L 908.128906 1294.757812 L 897.699219 1263.332031 L 888.589844 1231.464844 L 887.167969 1231.902344 L 898.070312 1264.617188 L 906.808594 1295.164062 Z M 589.761719 1228.550781 L 570.292969 1291.878906 L 570.359375 1291.878906 Z M 930.140625 1287.917969 L 919.269531 1255.269531 L 928.71875 1288.355469 Z M 558.304688 1252.527344 L 572.019531 1222.828125 L 558.304688 1252.527344 L 567.921875 1221.269531 L 558.132812 1252.898438 L 544.25 1282.972656 L 548.449219 1284.5625 Z M 715.605469 1284.226562 L 715.671875 1251.105469 Z M 941.554688 1249.378906 L 954.320312 1279.214844 L 941.316406 1248.734375 L 930.851562 1217.308594 L 928.210938 1218.289062 L 941.554688 1249.378906 L 951.8125 1280.160156 Z M 536.59375 1244.738281 L 550.480469 1214.667969 L 547.027344 1213.277344 L 536.390625 1245.210938 L 522.710938 1274.808594 L 536.359375 1245.210938 L 526.0625 1276.132812 Z M 977.417969 1269.730469 L 962.449219 1239.828125 L 971.625 1272 Z M 866.371094 1237.390625 L 875.414062 1269.257812 Z M 515.429688 1235.628906 L 530.261719 1205.996094 L 525.148438 1203.929688 L 515.292969 1235.933594 L 500.632812 1265.261719 L 515.292969 1235.933594 L 505.644531 1267.257812 Z M 998.277344 1260.25 L 968.609375 1201.019531 L 998.242188 1260.28125 Z M 909.179688 1225.0625 L 919.609375 1256.523438 Z M 494.636719 1225.671875 L 509.46875 1196.007812 L 508.488281 1195.53125 L 493.859375 1227.265625 L 479.835938 1255.269531 L 493.824219 1227.296875 L 480.71875 1255.710938 Z M 1004.167969 1220.625 L 1022.289062 1247.820312 L 1003.964844 1220.21875 L 989.167969 1190.589844 L 985.542969 1192.6875 L 1004.167969 1220.625 L 1018.765625 1249.851562 Z M 474.519531 1214.394531 L 492.640625 1187.203125 L 474.519531 1214.394531 L 489.117188 1185.171875 L 474.25 1214.769531 L 455.863281 1242.335938 L 459.484375 1244.433594 Z M 947.785156 1210.46875 L 962.550781 1240.132812 Z M 1024.21875 1209.417969 L 1042.335938 1236.609375 L 1024.015625 1209.011719 L 1009.214844 1179.378906 L 1005.59375 1181.480469 L 1024.21875 1209.417969 L 1038.8125 1238.644531 Z M 454.4375 1203.152344 L 472.828125 1175.585938 L 470.253906 1174.027344 L 454.066406 1203.695312 L 436.050781 1230.71875 L 454.066406 1203.695312 L 438.523438 1232.207031 Z M 1061.941406 1224.488281 L 1042.910156 1195.9375 L 1026.488281 1168.542969 L 1042.910156 1195.9375 L 1025.199219 1169.355469 L 1043.519531 1196.953125 L 1060.554688 1225.367188 Z M 435.066406 1190.65625 L 454.539062 1163.867188 L 449.832031 1160.992188 L 434.863281 1190.925781 L 415.597656 1217.441406 L 434.863281 1190.925781 L 420.203125 1220.253906 Z M 1062.992188 1184.628906 L 1083.277344 1209.960938 L 1062.621094 1184.050781 L 1044.230469 1156.484375 L 1041.859375 1158.214844 L 1062.992188 1184.628906 L 1081.007812 1211.617188 Z M 435.710938 1150.558594 L 396.734375 1204.132812 L 396.765625 1204.167969 Z M 1101.800781 1196.3125 L 1080.703125 1169.929688 L 1062.6875 1142.90625 L 1080.703125 1169.929688 L 1060.417969 1144.566406 L 1081.078125 1170.472656 L 1099.464844 1198.039062 Z M 398.222656 1163.054688 L 421.386719 1139.890625 L 398.222656 1163.054688 L 417.492188 1136.574219 L 397.953125 1163.328125 L 374.519531 1186.761719 L 378.515625 1190.183594 Z M 1100.855469 1158.28125 L 1120.226562 1181.511719 L 1099.09375 1156.078125 L 1078.367188 1130.140625 L 1077.792969 1130.578125 L 1100.820312 1158.179688 L 1119.75 1181.851562 Z M 380.917969 1147.851562 L 402.589844 1124.011719 L 380.917969 1147.851562 L 401.066406 1122.6875 L 380.34375 1148.527344 L 358.058594 1173.046875 L 359.683594 1174.433594 Z M 1139.800781 1164.34375 L 1115.992188 1140.535156 L 1137.023438 1166.816406 Z M 363.34375 1133.085938 L 386.777344 1109.652344 L 384 1107.179688 L 362.96875 1133.457031 L 339.90625 1156.519531 L 362.96875 1133.457031 L 342.582031 1158.925781 Z M 1156.496094 1148.496094 L 1132.6875 1124.6875 L 1112.335938 1099.21875 L 1132.6875 1124.6875 L 1109.625 1101.625 L 1133.027344 1125.09375 L 1153.71875 1150.964844 Z M 1116.332031 1140.941406 L 1092.929688 1117.472656 Z M 346.984375 1116.898438 L 371.605469 1094.714844 L 370.351562 1093.394531 L 346.171875 1117.574219 L 322.367188 1139.011719 L 346.171875 1117.574219 L 323.515625 1140.230469 Z M 1149.449219 1108.941406 L 1174.917969 1129.292969 L 1149.078125 1108.566406 L 1125.644531 1085.132812 L 1123.171875 1087.910156 L 1149.449219 1108.941406 L 1172.511719 1132 Z M 355.925781 1077.851562 L 306.6875 1122.179688 L 306.71875 1122.214844 Z M 1190.292969 1112.089844 L 1162.183594 1089.601562 L 1138.953125 1070.230469 L 1162.183594 1089.601562 L 1138.578125 1070.707031 L 1164.417969 1091.429688 L 1189.886719 1112.632812 Z M 316.675781 1082.320312 L 288.769531 1100.914062 L 291.75 1104.742188 Z M 1204.886719 1094.277344 L 1176.78125 1071.789062 L 1204.445312 1094.851562 Z M 303.570312 1063.359375 L 328.628906 1044.5625 L 303.570312 1063.359375 L 328.019531 1043.785156 L 302.113281 1064.441406 L 275.597656 1084.320312 L 276.273438 1085.167969 Z M 340.992188 1060.410156 L 316.335938 1082.523438 Z M 1220.429688 1073.585938 L 1192.289062 1054.824219 L 1218.671875 1075.921875 Z M 1178.980469 1073.652344 L 1153.140625 1052.925781 Z M 288.601562 1045.917969 L 316.269531 1027.496094 L 315.828125 1026.816406 L 286.707031 1047.203125 L 261.136719 1064.238281 L 286.605469 1047.238281 L 261.511719 1064.8125 Z M 1165.300781 1036.839844 L 1192.832031 1055.265625 Z M 1206.953125 1036.910156 L 1234.351562 1053.332031 L 1206.003906 1036.265625 L 1178.40625 1017.875 L 1177.523438 1019.265625 L 1206.953125 1036.910156 L 1233.539062 1054.621094 Z M 276.003906 1026.683594 L 304.621094 1009.988281 L 301.84375 1005.921875 L 275.664062 1026.851562 L 247.386719 1043.34375 L 275.664062 1026.851562 L 250.097656 1047.304688 Z M 1218.636719 1017.03125 L 1247.828125 1031.625 L 1218.230469 1016.757812 L 1190.664062 998.371094 L 1188.5625 1001.996094 L 1218.636719 1017.03125 L 1245.796875 1035.148438 Z M 264.929688 1006.566406 L 234.484375 1021.769531 L 235.535156 1023.703125 Z M 1259.375 1011.613281 L 1229.339844 996.574219 L 1257.277344 1015.203125 Z M 292.765625 990.3125 L 264.117188 1006.9375 Z M 253.113281 986.855469 L 282.742188 972.023438 L 281.695312 970.09375 L 252.332031 987.230469 L 223.480469 1001.65625 L 252.332031 987.230469 L 224.496094 1003.484375 Z M 1229.710938 996.847656 L 1200.113281 981.980469 Z M 1269.976562 991.15625 L 1210.679688 961.59375 L 1269.941406 991.226562 Z M 243.695312 965.929688 L 273.53125 953.5 L 243.695312 965.929688 L 272.617188 951.46875 L 242.953125 966.234375 L 212.371094 978.964844 L 213.355469 981.097656 Z M 1250.402344 955.597656 L 1281.964844 964.605469 L 1250.132812 955.464844 L 1220.5 940.664062 L 1218.265625 946.421875 L 1250.402344 955.597656 L 1279.761719 970.261719 Z M 233.335938 945.441406 L 264.21875 932.570312 L 264.082031 932.199219 L 228.695312 947.371094 L 203.09375 958.039062 L 228.492188 947.472656 L 203.195312 958.308594 Z M 1259.308594 934.332031 L 1290.871094 943.339844 L 1259.039062 934.195312 L 1229.40625 919.398438 L 1227.171875 925.15625 L 1259.308594 934.332031 L 1288.667969 948.996094 Z M 225.679688 923.765625 L 257.074219 914.792969 L 225.679688 923.765625 L 255.820312 911.203125 L 225.207031 923.902344 L 193.339844 933.011719 L 194.625 936.703125 Z M 1298.421875 923.019531 L 1266.351562 912.320312 L 1297.441406 925.628906 Z M 217.621094 902.226562 L 249.117188 891.730469 L 248.878906 891.019531 L 215.25 903.039062 L 186.261719 912.691406 L 215.183594 903.039062 L 186.464844 913.300781 Z M 1266.996094 912.589844 L 1235.570312 902.058594 Z M 1305.90625 899.753906 L 1272.753906 890.273438 L 1305.464844 901.179688 Z M 1242.207031 881.535156 L 1274.039062 890.679688 Z M 212.746094 879.707031 L 243.1875 872.089844 L 212.746094 879.707031 L 242.917969 871.070312 L 211.050781 880.113281 L 178.914062 888.140625 L 179.21875 889.257812 Z M 1280.675781 868.601562 L 1312.847656 873.949219 L 1280.203125 868.464844 L 1248.335938 859.355469 L 1247.488281 863.078125 L 1280.675781 868.601562 L 1312.035156 877.574219 Z M 205.328125 857.898438 L 237.769531 850.957031 L 237.5 849.804688 L 203.769531 858.238281 L 172.988281 864.839844 L 203.738281 858.269531 L 173.222656 865.890625 Z M 1318.199219 850.753906 L 1285.078125 846.011719 L 1316.8125 856.578125 Z M 1252.601562 841.371094 L 1285.382812 846.113281 Z M 201.839844 835.109375 L 233.300781 829.859375 L 201.839844 835.109375 L 233.03125 828.4375 L 200.621094 835.3125 L 167.941406 840.761719 L 168.246094 842.320312 Z M 1322.433594 828.132812 L 1287.246094 823.121094 L 1256.9375 818.074219 L 1287.246094 823.121094 L 1256.835938 818.785156 L 1289.617188 823.527344 L 1322.296875 828.976562 Z M 196.726562 812.6875 L 229.609375 807.980469 L 229.472656 807.167969 L 194.492188 812.992188 L 164.011719 817.363281 L 194.421875 813.027344 L 164.113281 818.074219 Z M 1325.75 805.375 L 1290.566406 800.363281 L 1260.257812 795.316406 L 1290.566406 800.363281 L 1260.15625 796.027344 L 1292.9375 800.769531 L 1325.617188 806.21875 Z M 193.949219 789.863281 L 227 787.492188 L 226.628906 784.34375 L 193.375 789.898438 L 160.929688 792.199219 L 193.375 789.898438 L 161.269531 795.25 Z M 1295.714844 777.839844 L 1328.425781 777.839844 L 1295.308594 777.773438 L 1262.492188 773.101562 L 1262.152344 777.839844 L 1295.714844 777.839844 L 1328.121094 782.480469 Z M 191.679688 766.9375 L 225.105469 764.566406 L 225.070312 764.125 L 187.71875 767.242188 L 159.035156 769.308594 L 187.449219 767.277344 L 159.070312 769.644531 Z M 1329.847656 754.8125 L 1296.390625 754.8125 L 1329.410156 760.300781 Z M 1296.730469 754.882812 L 1263.609375 754.8125 Z M 191.070312 743.941406 L 224.191406 743.941406 L 224.089844 741.132812 L 190.394531 743.941406 L 157.949219 743.941406 L 190.394531 743.941406 L 158.050781 746.652344 Z M 1330.324219 731.820312 L 1264.050781 731.886719 L 1330.324219 731.886719 Z M 1330.324219 730.667969 L 1264.050781 730.734375 L 1330.324219 730.734375 Z M 191.75 720.914062 L 158.050781 718.105469 L 157.949219 720.914062 Z M 224.191406 720.914062 L 191.070312 720.847656 L 191.75 720.914062 Z M 1297.066406 707.671875 L 1329.816406 707.671875 L 1297.066406 707.671875 L 1329.441406 702.695312 L 1296.695312 707.671875 L 1263.574219 707.671875 L 1263.949219 712.753906 Z M 225.105469 697.886719 L 191.171875 697.886719 L 158.933594 695.582031 L 191.171875 697.886719 L 158.867188 697.886719 L 191.984375 697.953125 L 225.039062 700.324219 Z M 1262.425781 689.386719 L 1295.238281 684.746094 Z M 1328.019531 680.039062 L 1294.832031 684.78125 L 1328.359375 684.78125 Z M 226.867188 677.363281 L 193.847656 674.960938 Z M 161.101562 669.914062 L 160.796875 672.65625 L 194.558594 675.0625 Z M 1297.710938 661.144531 L 1325.617188 657.148438 L 1298.050781 661.074219 L 1325.582031 656.84375 L 1293.273438 661.753906 L 1260.019531 666.492188 L 1260.085938 666.898438 Z M 229.441406 656.808594 L 191.75 651.421875 L 163.878906 647.121094 L 191.511719 651.390625 L 163.84375 647.425781 L 196.285156 652.101562 L 229.371094 657.179688 Z M 1289.449219 639.128906 L 1322.261719 634.457031 L 1322.195312 634.050781 L 1284.335938 639.875 L 1256.667969 643.839844 L 1284.335938 639.875 L 1256.699219 644.144531 Z M 233.199219 634.085938 L 199.742188 629.308594 L 168.109375 621.996094 L 199.742188 629.277344 L 167.601562 624.671875 L 200.382812 629.410156 L 232.65625 636.863281 Z M 1285.621094 616.40625 L 1317.929688 611.429688 L 1285.621094 616.40625 L 1317.046875 607.433594 L 1285.179688 616.476562 L 1252.433594 621.519531 L 1253.347656 625.652344 Z M 237.5 613.832031 L 201.671875 606.144531 L 172.816406 599.507812 L 201.570312 606.144531 L 172.714844 599.949219 L 204.957031 606.925781 L 237.363281 614.410156 Z M 1279.933594 594.125 L 1312.714844 589.449219 L 1311.5625 584.335938 L 1279.558594 594.191406 L 1247.117188 598.832031 L 1279.558594 594.191406 L 1248.234375 603.808594 Z M 243.054688 592.023438 L 210 584.40625 L 179.082031 574.890625 L 210 584.40625 L 178.507812 577.125 L 210.78125 584.640625 L 242.445312 594.394531 Z M 1305.398438 562.222656 L 1305.398438 562.15625 L 1242.070312 581.695312 Z M 218.128906 562.832031 L 248.980469 572.316406 L 217.351562 562.527344 L 186.429688 550.640625 L 185.652344 552.84375 L 218.128906 562.832031 L 248.269531 574.414062 Z M 1267.03125 549.894531 L 1298.285156 540.277344 L 1267.03125 549.894531 L 1296.730469 536.179688 L 1266.625 550 L 1234.960938 559.75 L 1236.550781 563.949219 Z M 256.53125 550.472656 L 224.054688 540.480469 L 193.914062 528.898438 L 224.054688 540.480469 L 193.203125 531 L 224.835938 540.785156 L 255.753906 552.671875 Z M 1258.9375 528.359375 L 1289.480469 516.402344 L 1288.703125 514.574219 L 1260.289062 527.679688 L 1288.261719 513.695312 L 1259.410156 528.085938 L 1227.78125 540.550781 L 1228.558594 542.3125 L 1228.523438 542.3125 L 1228.558594 542.3125 L 1229 543.292969 Z M 264.183594 531.203125 L 233.300781 519.25 Z M 1220.09375 522.128906 L 1249.757812 507.363281 Z M 203.636719 504.449219 L 202.3125 507.429688 L 233.808594 519.554688 Z M 273.5 510.039062 L 242.039062 497.949219 L 212.949219 483.386719 L 242.039062 497.949219 L 211.660156 486.265625 L 242.546875 498.21875 L 272.175781 513.050781 Z M 1281.421875 497.609375 L 1279.355469 492.496094 L 1249.417969 507.464844 Z M 1269.636719 471.734375 L 1269.601562 471.703125 L 1210.375 501.402344 Z M 253.550781 477.933594 L 282.40625 492.359375 L 252.808594 477.492188 L 224.191406 460.796875 L 223.140625 462.726562 L 253.550781 477.933594 L 281.390625 494.1875 Z M 1229.746094 465.945312 L 1258.96875 451.347656 L 1229.746094 465.945312 L 1256.9375 447.828125 L 1229.339844 466.148438 L 1199.707031 480.980469 L 1201.804688 484.605469 Z M 293.445312 472.074219 L 263.035156 456.871094 L 235.195312 440.613281 L 263.035156 456.871094 L 234.214844 442.441406 L 263.8125 457.308594 L 292.429688 474.003906 Z M 1190.324219 464.625 L 1217.925781 446.304688 Z M 304.246094 454.226562 L 275.664062 437.5 Z M 1246.980469 430.421875 L 1245.425781 427.847656 L 1217.316406 446.574219 Z M 1178.8125 446.304688 L 1205.632812 426.863281 Z M 248.878906 418.027344 L 247.015625 420.871094 L 276.140625 437.835938 Z M 316.980469 434.957031 L 287.855469 417.992188 L 261.511719 398.824219 L 287.824219 417.957031 L 259.714844 401.566406 L 288.296875 418.296875 L 315.085938 437.769531 Z M 1219.347656 388.496094 L 1219.3125 388.460938 L 1165.773438 427.472656 Z M 1235.265625 412.066406 L 1232.386719 407.359375 L 1205.328125 427.035156 Z M 302.589844 400.246094 L 328.5625 419.144531 L 301.808594 399.605469 L 276.171875 378.605469 L 274.988281 380.132812 L 302.589844 400.246094 L 327.445312 420.566406 Z M 1178.945312 389.375 L 1205.429688 370.105469 L 1178.945312 389.375 L 1202.109375 366.210938 L 1178.640625 389.578125 L 1151.855469 409.050781 L 1155.273438 413.046875 Z M 341.90625 402.175781 L 312.273438 378.472656 L 290.363281 360.558594 L 312.035156 378.300781 L 290.160156 360.828125 L 315.660156 381.28125 L 341.632812 402.515625 Z M 1164.722656 371.257812 L 1189.886719 351.109375 L 1164.722656 371.257812 L 1188.566406 349.585938 L 1164.011719 371.835938 L 1138.140625 392.527344 L 1139.527344 394.152344 Z M 356.636719 384.972656 L 330.054688 363.234375 L 306.3125 341.863281 L 330.019531 363.199219 L 305.332031 342.980469 L 330.933594 363.976562 L 355.554688 386.160156 Z M 1148.738281 354.734375 L 1125.269531 378.132812 Z M 347.019531 347.519531 L 371.234375 369.328125 L 346.648438 347.113281 L 324.5 322.492188 L 321.992188 325 L 347.019531 347.519531 L 368.828125 371.734375 Z M 1133.433594 337.425781 L 1156.089844 314.773438 L 1133.433594 337.425781 L 1154.867188 313.621094 L 1132.6875 338.207031 L 1109.253906 361.640625 L 1110.574219 362.894531 Z M 386.402344 354.359375 L 362.226562 330.179688 L 340.789062 306.375 L 362.226562 330.179688 L 339.570312 307.523438 L 362.9375 330.992188 L 385.117188 355.613281 Z M 1174.613281 334.039062 L 1172.140625 331.265625 L 1148.332031 355.070312 Z M 1115.992188 322.390625 L 1139.425781 298.957031 L 1138.105469 297.703125 L 1115.210938 323.136719 L 1092.558594 345.792969 L 1115.210938 323.136719 L 1093.777344 346.945312 Z M 402.117188 340.070312 L 380.003906 315.414062 Z M 1098.855469 306.949219 L 1120.765625 282.632812 L 1098.855469 306.949219 L 1117.007812 279.722656 L 1098.585938 307.253906 L 1076.4375 331.875 L 1080.265625 334.855469 Z M 418.542969 326.320312 L 397.613281 300.648438 Z M 1081.753906 291.4375 L 1101.328125 266.953125 L 1081.753906 291.4375 L 1100.550781 266.378906 L 1080.636719 292.828125 L 1059.910156 318.734375 L 1060.757812 319.410156 Z M 359.007812 289.78125 L 357.789062 290.828125 L 380.78125 316.363281 Z M 396.328125 259.808594 L 396.292969 259.84375 L 435.304688 313.382812 Z M 1043.722656 306.78125 L 1062.144531 279.246094 Z M 376.921875 274.777344 L 376.582031 275.046875 L 400.832031 304.644531 Z M 434.863281 273.828125 L 454 300.175781 L 434.558594 273.355469 L 417.863281 244.738281 L 415.019531 246.601562 L 434.863281 273.828125 L 451.253906 301.9375 Z M 1026.285156 294.960938 L 1043.011719 266.378906 Z M 471.675781 288.796875 L 453.117188 259.640625 L 437.167969 232.277344 L 453.117188 259.605469 L 436.117188 232.886719 L 453.828125 260.824219 L 470.523438 289.476562 Z M 1040.101562 225.707031 L 1040.066406 225.671875 L 1006.742188 282.9375 Z M 1082.839844 253.375 L 1080.46875 251.648438 L 1061.707031 279.789062 Z M 473.675781 249.175781 L 490.300781 277.824219 Z M 1003.289062 243.078125 L 988.421875 272.675781 Z M 479.125 208.742188 L 479.09375 208.773438 L 508.792969 268.003906 Z M 1063.738281 240.503906 L 1059.675781 237.730469 L 1042.777344 266.683594 Z M 983.105469 231.769531 L 997.464844 203.015625 L 983.105469 231.769531 L 995.769531 202.238281 L 982.664062 232.648438 L 967.832031 262.28125 L 969.660156 263.128906 Z M 529.382812 258.046875 L 514.617188 228.382812 Z M 974.773438 192.722656 L 974.402344 192.585938 L 948.664062 253.644531 Z M 548.414062 249.886719 L 534.902344 217.445312 L 523.726562 188.386719 L 534.867188 217.375 L 522.914062 188.691406 L 535.578125 219.238281 L 547.5 250.226562 Z M 458.839844 219.542969 L 456.910156 220.59375 L 474.046875 249.988281 Z M 940.707031 213.480469 L 953.035156 183.917969 L 940.707031 213.480469 L 951.476562 183.308594 L 940.300781 214.464844 L 927.566406 245.042969 L 929.226562 245.6875 Z M 1019.984375 214.464844 L 1018.054688 213.414062 L 1002.847656 243.824219 Z M 557.558594 212.261719 L 569.003906 242.03125 L 557.152344 211.078125 L 546.6875 179.652344 L 545.230469 180.191406 L 557.558594 212.261719 L 567.648438 242.503906 Z M 918.59375 206.808594 L 929.734375 175.621094 L 929.023438 175.382812 L 917.710938 209.316406 L 907.453125 238.035156 L 917.710938 209.316406 L 908.0625 238.238281 Z M 569.242188 172.097656 L 569.171875 172.097656 L 588.714844 235.425781 Z M 897.019531 198.34375 L 905.65625 168.101562 L 897.019531 198.308594 L 904.640625 167.867188 L 896.546875 199.9375 L 887.4375 231.835938 L 888.554688 232.140625 Z M 601.074219 197.363281 L 610.761719 229.027344 Z M 502.730469 197.464844 L 499.75 198.785156 L 514.820312 228.957031 Z M 874.363281 194.144531 L 867.355469 226.519531 Z M 623.425781 191.910156 L 630.808594 224.214844 Z M 852.082031 187.980469 L 858.753906 156.792969 L 852.082031 187.980469 L 857.332031 156.519531 L 851.84375 189.167969 L 844.902344 221.574219 L 846.460938 221.878906 Z M 652.921875 219.78125 L 645.777344 186.421875 L 640.898438 154.625 L 645.777344 186.390625 L 639.035156 154.960938 L 645.910156 187.371094 L 650.957031 220.117188 Z M 824.480469 217.984375 L 829.222656 185.203125 Z M 673.75 216.53125 L 667.957031 178.871094 L 663.960938 151 L 667.890625 178.566406 L 663.65625 151.035156 L 668.566406 183.375 L 673.308594 216.597656 Z M 806.5 181.242188 L 811.039062 149.375 L 806.5 181.242188 L 809.175781 149.171875 L 806.363281 182.15625 L 801.691406 214.972656 L 803.6875 215.207031 Z M 696.609375 213.886719 L 691.460938 180.464844 L 689.15625 148.121094 L 691.460938 180.464844 L 686.515625 148.425781 L 691.492188 181.175781 L 693.863281 214.226562 Z M 783.503906 180.089844 L 781.101562 213.144531 Z M 716.824219 212.535156 L 714.523438 179.480469 Z M 760.542969 178.9375 L 763.289062 145.921875 L 760.476562 145.820312 L 760.476562 179.617188 L 757.769531 211.957031 L 760.476562 179.617188 L 760.476562 212.058594 Z M 737.515625 145.617188 L 737.449219 145.617188 L 737.515625 211.890625 Z M 594.132812 164.953125 L 591.289062 165.699219 L 601.210938 198.003906 Z M 616.484375 159.5 L 615.90625 159.636719 L 624.171875 195.429688 Z M 884.828125 162.71875 L 881.238281 161.734375 L 874.195312 194.652344 Z M 834.675781 152.523438 L 833.863281 152.390625 L 828.851562 187.574219 Z M 786.25 147.074219 L 785.808594 147.039062 L 783.132812 184.730469 Z M 714.523438 146.359375 L 712.117188 146.460938 L 714.523438 180.328125 Z M 714.523438 146.359375 " fill-opacity="1" fill-rule="nonzero"/></g><g clip-path="url(#e8988cd55d)"><path fill="#6a75f1" d="M 565.933594 1065.789062 L 511.476562 1097.199219 L 481.773438 1114.269531 L 502.773438 1126.390625 L 541.011719 1148.582031 L 649.753906 1211.402344 L 733.910156 1259.882812 L 1196.359375 992.894531 L 1196.359375 458.917969 L 1072.425781 387.394531 L 1070.207031 386.199219 C 972.050781 442.875 874.0625 499.378906 775.90625 556.054688 L 775.90625 847.28125 L 796.902344 835.160156 L 842.140625 809.042969 L 859.894531 798.800781 L 905.984375 772.167969 L 944.222656 750.320312 L 944.222656 847.453125 L 802.023438 929.5625 L 734.082031 968.824219 L 650.09375 1017.308594 L 734.253906 1065.789062 L 1028.554688 895.933594 L 1028.554688 604.703125 C 976.828125 634.578125 925.105469 664.453125 873.378906 694.328125 L 860.40625 701.839844 L 860.40625 604.875 C 930.398438 564.417969 1000.558594 523.960938 1070.546875 483.5 L 1112.542969 507.742188 L 1112.542969 944.757812 L 734.253906 1163.261719 L 650.09375 1114.78125 L 602.808594 1087.46875 Z M 565.933594 1065.789062 " fill-opacity="1" fill-rule="evenodd"/></g><g clip-path="url(#af407094f6)"><path fill="#5a84e9" d="M 902.230469 386.199219 L 956.6875 354.789062 L 986.390625 337.714844 L 965.390625 325.597656 L 927.152344 303.40625 L 818.414062 240.582031 L 734.082031 192.101562 L 271.632812 459.089844 L 271.632812 993.066406 L 395.566406 1064.59375 L 397.785156 1065.789062 C 495.945312 1009.113281 593.929688 952.609375 692.089844 895.933594 L 692.089844 604.875 L 671.089844 616.996094 L 625.851562 643.113281 L 608.097656 653.355469 L 562.007812 679.988281 L 524.109375 701.839844 L 524.109375 604.703125 L 666.3125 522.59375 L 734.253906 483.332031 L 818.414062 434.851562 L 734.253906 386.367188 L 439.78125 556.222656 L 439.78125 847.453125 C 491.503906 817.578125 543.230469 787.703125 594.953125 757.832031 L 607.929688 750.320312 L 607.929688 847.28125 C 537.9375 887.738281 467.777344 928.199219 397.785156 968.65625 L 355.792969 944.414062 L 355.792969 507.402344 L 734.082031 288.894531 L 818.242188 337.375 L 865.527344 364.6875 Z M 902.230469 386.199219 " fill-opacity="1" fill-rule="evenodd"/></g></g></g></svg>