<svg xmlns="http://www.w3.org/2000/svg" xmlns:xlink="http://www.w3.org/1999/xlink" width="2000" zoomAndPan="magnify" viewBox="0 0 1500 1499.999933" height="2000" preserveAspectRatio="xMidYMid meet" version="1.0"><defs><clipPath id="1fdb14b0dc"><path d="M 0.828125 0 L 1467.199219 0 L 1467.199219 1452.613281 L 0.828125 1452.613281 Z M 0.828125 0 " clip-rule="nonzero"/></clipPath><clipPath id="a97185f7c7"><path d="M 481 386 L 1196.066406 386 L 1196.066406 1260 L 481 1260 Z M 481 386 " clip-rule="nonzero"/></clipPath><clipPath id="841fbb9ad2"><path d="M 271.519531 192.109375 L 987 192.109375 L 987 1066 L 271.519531 1066 Z M 271.519531 192.109375 " clip-rule="nonzero"/></clipPath><clipPath id="ecccda5faf"><rect x="0" width="1468" y="0" height="1453"/></clipPath></defs><g transform="matrix(1, 0, 0, 1, 16, 24)"><g clip-path="url(#ecccda5faf)"><g clip-path="url(#1fdb14b0dc)"><path fill="#e9effa" d="M 1467.160156 733.277344 C 1467.160156 922.644531 1395.164062 1102.398438 1264.480469 1239.347656 L 1253.476562 1228.847656 L 1249.277344 1224.851562 L 1235.289062 1211.507812 C 1358.792969 1082.078125 1426.828125 912.25 1426.828125 733.277344 Z M 733.996094 0.109375 L 733.996094 40.441406 C 919.0625 40.441406 1093.058594 112.507812 1223.910156 243.359375 L 1252.425781 214.84375 C 1113.953125 76.371094 929.832031 0.109375 733.996094 0.109375 Z M 41.160156 733.277344 L 0.828125 733.277344 C 0.828125 930.941406 78.34375 1116.28125 219.050781 1255.160156 L 230.394531 1243.679688 L 234.460938 1239.550781 L 247.394531 1226.445312 C 114.410156 1095.21875 41.160156 920.070312 41.160156 733.277344 Z M 171.167969 295.375 C 73.875 419.925781 20.199219 574.722656 19.554688 733.277344 L 25.3125 733.277344 C 25.957031 576.210938 79.089844 422.875 175.296875 299.4375 C 178.246094 295.644531 181.226562 291.917969 184.238281 288.195312 L 179.769531 284.539062 C 176.855469 288.128906 173.976562 291.75 171.167969 295.375 Z M 575.375 1428.277344 C 446.722656 1398.679688 328.230469 1332.8125 234.460938 1239.550781 L 230.394531 1243.679688 C 324.945312 1337.722656 444.453125 1404.097656 574.15625 1433.898438 C 579.605469 1435.183594 585.09375 1436.371094 590.578125 1437.488281 L 591.730469 1431.832031 C 586.242188 1430.714844 580.792969 1429.527344 575.375 1428.277344 Z M 351.699219 131.46875 L 354.8125 136.347656 C 359.453125 133.398438 364.160156 130.488281 368.867188 127.675781 C 478.859375 61.234375 604.734375 26.152344 733.996094 26.015625 L 733.996094 20.257812 C 603.820312 20.394531 477.066406 55.679688 366.292969 122.496094 C 361.382812 125.375 356.542969 128.386719 351.699219 131.46875 Z M 929.832031 1419.066406 C 923.90625 1420.792969 917.914062 1422.382812 911.917969 1423.941406 L 913.375 1429.496094 C 919.367188 1427.972656 925.296875 1426.34375 931.222656 1424.617188 C 1053.539062 1389.671875 1165.5625 1321.398438 1253.476562 1228.847656 L 1249.277344 1224.851562 C 1162.144531 1316.660156 1051.136719 1384.355469 929.832031 1419.066406 Z M 1240.402344 229.949219 C 1239.894531 229.441406 1239.355469 228.933594 1238.847656 228.425781 L 1234.78125 232.488281 C 1235.289062 232.960938 1235.832031 233.503906 1236.339844 234.011719 C 1369.628906 367.472656 1443.355469 544.683594 1444.066406 733.277344 L 1449.855469 733.277344 C 1449.144531 543.125 1374.8125 364.492188 1240.402344 229.949219 Z M 185.1875 268.011719 C 175.636719 268.011719 167.917969 275.765625 167.917969 285.28125 C 167.917969 294.796875 175.671875 302.554688 185.1875 302.554688 C 194.703125 302.554688 202.457031 294.796875 202.457031 285.28125 C 202.457031 275.765625 194.738281 268.011719 185.1875 268.011719 Z M 591.390625 1417.472656 C 581.839844 1417.472656 574.121094 1425.226562 574.121094 1434.742188 C 574.121094 1444.292969 581.875 1452.015625 591.390625 1452.015625 C 600.941406 1452.015625 608.664062 1444.261719 608.664062 1434.742188 C 608.695312 1425.195312 600.941406 1417.472656 591.390625 1417.472656 Z M 914.050781 1408.804688 C 904.503906 1408.804688 896.78125 1416.558594 896.78125 1426.074219 C 896.78125 1435.625 904.535156 1443.34375 914.050781 1443.34375 C 923.601562 1443.34375 931.324219 1435.589844 931.324219 1426.074219 C 931.324219 1416.558594 923.601562 1408.804688 914.050781 1408.804688 Z M 352.273438 115.316406 C 342.726562 115.316406 335.003906 123.070312 335.003906 132.585938 C 335.003906 142.101562 342.757812 149.859375 352.273438 149.859375 C 361.789062 149.859375 369.546875 142.101562 369.546875 132.585938 C 369.546875 123.070312 361.824219 115.316406 352.273438 115.316406 Z M 734.367188 1392.957031 C 737.550781 1392.957031 740.125 1390.347656 740.125 1387.199219 C 740.089844 1384.015625 737.515625 1381.441406 734.332031 1381.441406 C 731.148438 1381.441406 728.578125 1384.046875 728.578125 1387.199219 C 728.578125 1390.382812 731.183594 1392.957031 734.367188 1392.957031 Z M 708.425781 1392.480469 C 711.507812 1392.480469 714.046875 1390.042969 714.183594 1386.960938 C 714.285156 1383.777344 711.8125 1381.070312 708.664062 1380.96875 C 705.480469 1380.867188 702.773438 1383.335938 702.671875 1386.488281 C 702.570312 1389.671875 705.039062 1392.347656 708.191406 1392.480469 C 708.292969 1392.480469 708.359375 1392.480469 708.425781 1392.480469 Z M 760.273438 1392.445312 C 760.339844 1392.445312 760.441406 1392.445312 760.511719 1392.445312 C 763.695312 1392.3125 766.164062 1389.636719 766.03125 1386.453125 C 765.929688 1383.269531 763.21875 1380.765625 760.035156 1380.933594 C 756.851562 1381.035156 754.382812 1383.742188 754.515625 1386.925781 C 754.652344 1390.042969 757.191406 1392.445312 760.273438 1392.445312 Z M 682.589844 1390.957031 C 685.570312 1390.957031 688.074219 1388.65625 688.3125 1385.640625 C 688.582031 1382.457031 686.179688 1379.679688 682.996094 1379.410156 C 679.8125 1379.171875 677.070312 1381.542969 676.796875 1384.726562 C 676.527344 1387.910156 678.929688 1390.652344 682.113281 1390.921875 C 682.25 1390.957031 682.386719 1390.957031 682.589844 1390.957031 Z M 786.144531 1390.890625 C 786.316406 1390.890625 786.449219 1390.890625 786.621094 1390.855469 C 786.652344 1390.855469 786.652344 1390.855469 786.652344 1390.855469 C 789.835938 1390.585938 792.171875 1387.839844 791.9375 1384.660156 C 791.664062 1381.476562 788.921875 1379.136719 785.707031 1379.339844 L 785.738281 1379.339844 C 782.554688 1379.613281 780.1875 1382.390625 780.421875 1385.574219 C 780.660156 1388.585938 783.164062 1390.890625 786.144531 1390.890625 Z M 656.75 1388.382812 C 659.628906 1388.382812 662.132812 1386.214844 662.472656 1383.304688 C 662.84375 1380.121094 660.578125 1377.242188 657.425781 1376.871094 C 654.242188 1376.496094 651.398438 1378.730469 650.992188 1381.914062 C 650.621094 1385.097656 652.890625 1387.941406 656.039062 1388.316406 C 656.308594 1388.351562 656.511719 1388.382812 656.75 1388.382812 Z M 811.917969 1388.316406 C 812.1875 1388.316406 812.390625 1388.28125 812.628906 1388.246094 C 815.8125 1387.875 818.046875 1384.996094 817.671875 1381.847656 C 817.265625 1378.664062 814.421875 1376.429688 811.238281 1376.800781 C 808.054688 1377.175781 805.820312 1380.054688 806.195312 1383.234375 C 806.601562 1386.148438 809.070312 1388.316406 811.917969 1388.316406 Z M 631.082031 1384.792969 C 633.890625 1384.792969 636.328125 1382.761719 636.769531 1379.953125 C 637.277344 1376.800781 635.144531 1373.855469 632.027344 1373.347656 C 628.878906 1372.839844 625.933594 1375.007812 625.390625 1378.089844 C 624.917969 1381.238281 627.015625 1384.183594 630.167969 1384.726562 C 630.472656 1384.761719 630.808594 1384.792969 631.082031 1384.792969 Z M 837.585938 1384.660156 C 837.890625 1384.660156 838.230469 1384.625 838.535156 1384.589844 C 841.683594 1384.082031 843.816406 1381.101562 843.273438 1377.953125 C 842.800781 1374.804688 839.820312 1372.671875 836.671875 1373.210938 C 833.523438 1373.6875 831.390625 1376.667969 831.929688 1379.816406 C 832.371094 1382.660156 834.808594 1384.660156 837.585938 1384.660156 Z M 605.582031 1380.1875 C 608.257812 1380.1875 610.660156 1378.292969 611.203125 1375.550781 C 611.84375 1372.433594 609.8125 1369.386719 606.699219 1368.777344 C 603.582031 1368.132812 600.535156 1370.164062 599.890625 1373.28125 C 599.246094 1376.394531 601.28125 1379.441406 604.429688 1380.085938 C 604.800781 1380.121094 605.207031 1380.1875 605.582031 1380.1875 Z M 863.121094 1380.019531 C 863.492188 1380.019531 863.898438 1379.953125 864.269531 1379.882812 C 867.386719 1379.238281 869.386719 1376.226562 868.773438 1373.109375 C 868.132812 1369.960938 865.085938 1367.996094 861.96875 1368.605469 C 858.851562 1369.214844 856.855469 1372.265625 857.464844 1375.378906 C 858.007812 1378.121094 860.445312 1380.019531 863.121094 1380.019531 Z M 580.285156 1374.5 C 582.890625 1374.5 585.226562 1372.738281 585.90625 1370.128906 C 586.652344 1367.015625 584.753906 1363.898438 581.671875 1363.15625 C 578.558594 1362.410156 575.441406 1364.273438 574.695312 1367.355469 C 573.953125 1370.46875 575.8125 1373.585938 578.929688 1374.328125 C 579.371094 1374.429688 579.84375 1374.5 580.285156 1374.5 Z M 888.417969 1374.328125 C 888.890625 1374.328125 889.332031 1374.261719 889.804688 1374.160156 C 892.886719 1373.414062 894.785156 1370.300781 894.003906 1367.183594 C 893.257812 1364.101562 890.144531 1362.207031 887.027344 1362.984375 C 883.945312 1363.730469 882.085938 1366.878906 882.828125 1369.960938 C 883.472656 1372.570312 885.808594 1374.328125 888.417969 1374.328125 Z M 555.222656 1367.828125 C 557.730469 1367.828125 560.03125 1366.203125 560.742188 1363.695312 C 561.625 1360.648438 559.863281 1357.429688 556.78125 1356.550781 C 553.734375 1355.671875 550.515625 1357.429688 549.671875 1360.511719 C 548.789062 1363.5625 550.550781 1366.777344 553.597656 1367.625 C 554.175781 1367.761719 554.683594 1367.828125 555.222656 1367.828125 Z M 913.476562 1367.625 C 913.984375 1367.625 914.527344 1367.558594 915.066406 1367.421875 C 918.117188 1366.539062 919.875 1363.324219 919.03125 1360.277344 C 918.148438 1357.226562 914.933594 1355.46875 911.886719 1356.347656 C 908.835938 1357.226562 907.042969 1360.445312 907.921875 1363.492188 C 908.667969 1366 910.96875 1367.625 913.476562 1367.625 Z M 530.46875 1360.140625 C 532.875 1360.140625 535.140625 1358.617188 535.957031 1356.210938 C 536.972656 1353.199219 535.3125 1349.914062 532.296875 1348.929688 C 529.285156 1347.914062 526.03125 1349.574219 525.015625 1352.554688 C 524 1355.570312 525.660156 1358.820312 528.675781 1359.835938 C 529.25 1360.039062 529.859375 1360.140625 530.46875 1360.140625 Z M 938.199219 1359.9375 C 938.808594 1359.9375 939.417969 1359.835938 940.027344 1359.632812 C 943.039062 1358.617188 944.664062 1355.367188 943.648438 1352.351562 C 942.632812 1349.335938 939.382812 1347.710938 936.367188 1348.726562 C 933.355469 1349.742188 931.730469 1352.996094 932.746094 1356.007812 C 933.558594 1358.414062 935.792969 1359.9375 938.199219 1359.9375 Z M 505.984375 1351.4375 C 508.320312 1351.4375 510.523438 1350.015625 511.371094 1347.710938 C 512.488281 1344.730469 510.996094 1341.414062 508.015625 1340.296875 C 505.035156 1339.179688 501.71875 1340.667969 500.601562 1343.648438 C 499.484375 1346.628906 500.972656 1349.945312 503.953125 1351.066406 C 504.628906 1351.300781 505.273438 1351.4375 505.984375 1351.4375 Z M 962.613281 1351.199219 C 963.292969 1351.199219 964.003906 1351.097656 964.644531 1350.828125 C 967.625 1349.710938 969.117188 1346.359375 968 1343.410156 C 966.878906 1340.429688 963.5625 1338.941406 960.582031 1340.058594 C 957.601562 1341.175781 956.113281 1344.527344 957.230469 1347.476562 C 958.109375 1349.777344 960.3125 1351.199219 962.613281 1351.199219 Z M 481.875 1341.753906 C 484.109375 1341.753906 486.242188 1340.429688 487.191406 1338.230469 C 488.445312 1335.285156 487.089844 1331.929688 484.144531 1330.679688 C 481.230469 1329.425781 477.84375 1330.78125 476.589844 1333.691406 C 475.339844 1336.636719 476.691406 1339.992188 479.640625 1341.246094 C 480.351562 1341.582031 481.128906 1341.753906 481.875 1341.753906 Z M 986.589844 1341.515625 C 987.367188 1341.515625 988.113281 1341.378906 988.859375 1341.039062 C 991.804688 1339.789062 993.160156 1336.433594 991.871094 1333.488281 C 990.621094 1330.542969 987.265625 1329.1875 984.320312 1330.441406 L 984.320312 1330.476562 C 981.375 1331.726562 980.019531 1335.113281 981.308594 1338.027344 C 982.222656 1340.226562 984.355469 1341.515625 986.589844 1341.515625 Z M 458.167969 1331.050781 C 460.300781 1331.050781 462.367188 1329.832031 463.382812 1327.765625 C 464.738281 1324.886719 463.484375 1321.46875 460.640625 1320.078125 C 457.761719 1318.722656 454.308594 1319.976562 452.953125 1322.820312 C 451.597656 1325.699219 452.816406 1329.121094 455.695312 1330.507812 C 456.507812 1330.882812 457.355469 1331.050781 458.167969 1331.050781 Z M 1010.191406 1330.882812 C 1011.039062 1330.914062 1011.851562 1330.710938 1012.664062 1330.339844 C 1015.511719 1328.953125 1016.761719 1325.53125 1015.410156 1322.6875 C 1014.019531 1319.808594 1010.601562 1318.554688 1007.722656 1319.945312 C 1004.84375 1321.296875 1003.625 1324.71875 1004.976562 1327.597656 C 1005.925781 1329.664062 1008.027344 1330.882812 1010.191406 1330.882812 Z M 434.9375 1319.433594 C 437.003906 1319.433594 439.035156 1318.316406 440.050781 1316.355469 C 441.542969 1313.542969 440.457031 1310.054688 437.648438 1308.566406 C 434.871094 1307.109375 431.382812 1308.160156 429.859375 1310.96875 C 428.402344 1313.78125 429.453125 1317.269531 432.261719 1318.757812 C 433.109375 1319.265625 434.058594 1319.433594 434.9375 1319.433594 Z M 1033.324219 1319.332031 C 1034.238281 1319.332031 1035.152344 1319.097656 1036 1318.65625 C 1036 1318.621094 1036 1318.621094 1036 1318.621094 C 1038.808594 1317.167969 1039.890625 1313.679688 1038.402344 1310.832031 C 1036.945312 1308.058594 1033.457031 1306.9375 1030.613281 1308.429688 C 1027.804688 1309.917969 1026.683594 1313.40625 1028.210938 1316.253906 C 1029.257812 1318.214844 1031.222656 1319.300781 1033.324219 1319.332031 Z M 412.214844 1306.90625 C 414.210938 1306.90625 416.144531 1305.855469 417.191406 1304.027344 C 418.816406 1301.25 417.871094 1297.761719 415.09375 1296.171875 C 412.351562 1294.578125 408.828125 1295.492188 407.238281 1298.269531 C 405.644531 1301.046875 406.558594 1304.535156 409.335938 1306.125 C 410.25 1306.667969 411.234375 1306.90625 412.214844 1306.90625 Z M 1055.976562 1306.804688 C 1056.960938 1306.804688 1057.941406 1306.566406 1058.855469 1306.023438 C 1061.597656 1304.433594 1062.546875 1300.910156 1060.921875 1298.167969 C 1059.332031 1295.390625 1055.808594 1294.476562 1053.066406 1296.070312 C 1050.324219 1297.695312 1049.375 1301.183594 1050.964844 1303.925781 C 1052.050781 1305.753906 1053.980469 1306.804688 1055.976562 1306.804688 Z M 390 1293.460938 C 391.894531 1293.460938 393.757812 1292.511719 394.875 1290.785156 C 396.570312 1288.109375 395.789062 1284.519531 393.082031 1282.828125 C 390.40625 1281.132812 386.816406 1281.949219 385.121094 1284.621094 C 383.429688 1287.332031 384.242188 1290.886719 386.917969 1292.582031 C 387.867188 1293.191406 388.914062 1293.460938 390 1293.460938 Z M 1078.089844 1293.394531 C 1079.140625 1293.394531 1080.226562 1293.121094 1081.171875 1292.511719 C 1083.847656 1290.820312 1084.660156 1287.230469 1082.96875 1284.554688 C 1081.273438 1281.847656 1077.683594 1281.066406 1075.011719 1282.761719 C 1072.335938 1284.453125 1071.523438 1288.007812 1073.214844 1290.71875 C 1074.332031 1292.445312 1076.195312 1293.394531 1078.089844 1293.394531 Z M 368.359375 1279.136719 C 370.1875 1279.136719 371.984375 1278.257812 373.101562 1276.664062 C 374.929688 1274.058594 374.285156 1270.46875 371.644531 1268.640625 C 369.039062 1266.808594 365.414062 1267.488281 363.617188 1270.09375 C 361.824219 1272.703125 362.46875 1276.324219 365.074219 1278.121094 C 366.089844 1278.832031 367.242188 1279.136719 368.359375 1279.136719 Z M 1099.695312 1279.101562 C 1100.816406 1279.101562 1101.933594 1278.796875 1102.949219 1278.085938 C 1105.554688 1276.257812 1106.234375 1272.703125 1104.402344 1270.0625 C 1102.574219 1267.453125 1099.019531 1266.777344 1096.378906 1268.605469 C 1093.769531 1270.433594 1093.09375 1273.988281 1094.921875 1276.597656 C 1096.074219 1278.222656 1097.867188 1279.101562 1099.695312 1279.101562 Z M 347.296875 1263.964844 C 349.058594 1263.964844 350.785156 1263.1875 351.902344 1261.695312 C 353.832031 1259.121094 353.324219 1255.53125 350.785156 1253.601562 C 348.210938 1251.707031 344.621094 1252.214844 342.726562 1254.753906 C 340.792969 1257.292969 341.300781 1260.917969 343.84375 1262.8125 C 344.890625 1263.59375 346.109375 1263.964844 347.296875 1263.964844 Z M 1120.726562 1263.929688 C 1121.945312 1263.929688 1123.132812 1263.558594 1124.179688 1262.78125 C 1126.722656 1260.882812 1127.230469 1257.292969 1125.296875 1254.71875 C 1123.402344 1252.179688 1119.8125 1251.671875 1117.238281 1253.601562 C 1114.699219 1255.5 1114.191406 1259.089844 1116.121094 1261.664062 C 1117.238281 1263.152344 1118.964844 1263.929688 1120.726562 1263.929688 Z M 326.910156 1247.980469 C 328.570312 1247.980469 330.230469 1247.238281 331.378906 1245.847656 C 333.410156 1243.410156 333.039062 1239.753906 330.535156 1237.753906 L 330.566406 1237.753906 C 328.09375 1235.722656 324.472656 1236.09375 322.441406 1238.566406 C 320.40625 1241.039062 320.8125 1244.664062 323.253906 1246.660156 C 324.300781 1247.542969 325.625 1247.980469 326.910156 1247.980469 Z M 1141.078125 1247.949219 C 1142.367188 1247.949219 1143.6875 1247.542969 1144.738281 1246.660156 C 1147.175781 1244.628906 1147.546875 1241.039062 1145.550781 1238.566406 C 1143.550781 1236.09375 1139.894531 1235.757812 1137.457031 1237.753906 C 1134.984375 1239.753906 1134.609375 1243.375 1136.644531 1245.847656 C 1137.761719 1247.238281 1139.453125 1247.949219 1141.078125 1247.949219 Z M 1160.824219 1231.183594 C 1162.210938 1231.183594 1163.566406 1230.710938 1164.648438 1229.726562 C 1167.054688 1227.628906 1167.257812 1224.003906 1165.125 1221.601562 C 1163.023438 1219.195312 1159.367188 1218.992188 1156.996094 1221.125 C 1154.589844 1223.226562 1154.386719 1226.882812 1156.523438 1229.253906 C 1157.640625 1230.507812 1159.230469 1231.183594 1160.824219 1231.183594 Z M 307.132812 1231.152344 C 308.726562 1231.152344 310.316406 1230.472656 311.46875 1229.21875 C 313.566406 1226.816406 313.363281 1223.191406 310.992188 1221.058594 C 308.589844 1218.960938 304.964844 1219.195312 302.867188 1221.566406 C 300.734375 1223.9375 300.96875 1227.59375 303.339844 1229.695312 C 304.425781 1230.675781 305.777344 1231.152344 307.132812 1231.152344 Z M 1179.886719 1213.609375 C 1181.34375 1213.609375 1182.765625 1213.066406 1183.851562 1211.984375 C 1186.152344 1209.78125 1186.222656 1206.125 1184.019531 1203.820312 C 1181.820312 1201.519531 1178.160156 1201.453125 1175.859375 1203.652344 C 1173.589844 1205.855469 1173.488281 1209.511719 1175.6875 1211.8125 C 1176.875 1213 1178.363281 1213.609375 1179.886719 1213.609375 Z M 288.101562 1213.574219 C 289.589844 1213.574219 291.113281 1212.964844 292.234375 1211.78125 C 294.46875 1209.511719 294.367188 1205.855469 292.0625 1203.652344 C 289.761719 1201.417969 286.136719 1201.519531 283.902344 1203.789062 C 281.699219 1206.089844 281.800781 1209.714844 284.070312 1211.949219 C 285.222656 1213.035156 286.644531 1213.574219 288.101562 1213.574219 Z M 1198.207031 1195.253906 C 1199.734375 1195.253906 1201.222656 1194.679688 1202.375 1193.492188 C 1202.339844 1193.492188 1202.339844 1193.492188 1202.339844 1193.492188 C 1204.542969 1191.191406 1204.472656 1187.566406 1202.203125 1185.332031 C 1199.902344 1183.132812 1196.277344 1183.199219 1194.042969 1185.5 C 1191.808594 1187.769531 1191.910156 1191.429688 1194.210938 1193.664062 C 1195.363281 1194.746094 1196.753906 1195.253906 1198.207031 1195.253906 Z M 269.746094 1195.253906 C 271.203125 1195.253906 272.625 1194.710938 273.742188 1193.628906 C 276.011719 1191.429688 276.113281 1187.769531 273.878906 1185.46875 C 271.675781 1183.199219 268.019531 1183.097656 265.75 1185.296875 C 263.449219 1187.5 263.347656 1191.191406 265.582031 1193.460938 C 266.734375 1194.644531 268.257812 1195.253906 269.746094 1195.253906 Z M 1215.816406 1176.222656 C 1217.410156 1176.222656 1219 1175.546875 1220.152344 1174.292969 C 1222.253906 1171.886719 1222.015625 1168.265625 1219.679688 1166.132812 C 1217.273438 1164.03125 1213.652344 1164.269531 1211.515625 1166.605469 C 1209.417969 1169.007812 1209.65625 1172.632812 1211.992188 1174.765625 C 1213.074219 1175.75 1214.464844 1176.222656 1215.816406 1176.222656 Z M 252.171875 1176.222656 C 253.527344 1176.222656 254.878906 1175.75 255.964844 1174.765625 C 258.367188 1172.667969 258.570312 1169.007812 256.4375 1166.640625 C 254.339844 1164.234375 250.714844 1164.03125 248.308594 1166.164062 C 245.90625 1168.265625 245.703125 1171.921875 247.835938 1174.292969 C 249.023438 1175.546875 250.578125 1176.222656 252.171875 1176.222656 Z M 235.375 1156.480469 C 236.628906 1156.480469 237.949219 1156.039062 238.996094 1155.191406 C 241.46875 1153.160156 241.808594 1149.539062 239.8125 1147.097656 L 239.8125 1147.066406 C 237.777344 1144.628906 234.15625 1144.253906 231.71875 1146.253906 C 229.246094 1148.285156 228.90625 1151.90625 230.902344 1154.378906 C 232.054688 1155.769531 233.714844 1156.480469 235.375 1156.480469 Z M 1232.648438 1156.480469 C 1234.308594 1156.480469 1235.96875 1155.769531 1237.117188 1154.378906 C 1239.152344 1151.90625 1238.777344 1148.285156 1236.273438 1146.253906 C 1233.835938 1144.253906 1230.210938 1144.628906 1228.179688 1147.066406 C 1226.148438 1149.539062 1226.519531 1153.160156 1228.992188 1155.191406 C 1230.042969 1156.039062 1231.328125 1156.480469 1232.648438 1156.480469 Z M 219.355469 1136.128906 C 220.574219 1136.128906 221.761719 1135.722656 222.8125 1134.941406 C 225.382812 1133.046875 225.859375 1129.421875 223.960938 1126.882812 C 222.03125 1124.34375 218.441406 1123.835938 215.902344 1125.765625 C 213.363281 1127.660156 212.855469 1131.25 214.75 1133.824219 C 215.902344 1135.3125 217.59375 1136.128906 219.355469 1136.128906 Z M 1248.632812 1136.058594 C 1250.359375 1136.058594 1252.085938 1135.28125 1253.238281 1133.789062 C 1255.136719 1131.25 1254.628906 1127.628906 1252.085938 1125.730469 C 1249.546875 1123.800781 1245.921875 1124.308594 1244.027344 1126.847656 C 1242.132812 1129.386719 1242.605469 1133.011719 1245.144531 1134.90625 C 1246.230469 1135.6875 1247.449219 1136.058594 1248.632812 1136.058594 Z M 204.21875 1115.132812 C 205.335938 1115.132812 206.488281 1114.792969 207.46875 1114.082031 C 210.078125 1112.253906 210.753906 1108.664062 208.925781 1106.089844 C 207.097656 1103.480469 203.542969 1102.804688 200.933594 1104.632812 C 198.328125 1106.460938 197.648438 1110.050781 199.476562 1112.660156 C 199.476562 1112.691406 199.476562 1112.691406 199.476562 1112.691406 C 200.59375 1114.25 202.355469 1115.132812 204.21875 1115.132812 Z M 1263.839844 1115.03125 C 1265.667969 1115.03125 1267.460938 1114.148438 1268.546875 1112.558594 C 1268.578125 1112.558594 1268.578125 1112.558594 1268.578125 1112.558594 C 1270.375 1109.949219 1269.730469 1106.328125 1267.121094 1104.53125 C 1264.515625 1102.703125 1260.890625 1103.378906 1259.097656 1105.988281 L 1259.097656 1105.953125 C 1257.300781 1108.5625 1257.945312 1112.183594 1260.554688 1113.980469 C 1261.570312 1114.726562 1262.71875 1115.03125 1263.839844 1115.03125 Z M 189.894531 1093.527344 C 190.945312 1093.527344 192.027344 1093.253906 192.976562 1092.644531 C 195.652344 1090.953125 196.464844 1087.363281 194.769531 1084.6875 C 193.078125 1082.011719 189.488281 1081.199219 186.8125 1082.925781 C 184.136719 1084.621094 183.324219 1088.175781 185.019531 1090.851562 C 186.136719 1092.578125 187.996094 1093.527344 189.894531 1093.527344 Z M 1278.164062 1093.390625 C 1280.058594 1093.390625 1281.921875 1092.476562 1283.039062 1090.714844 C 1283.003906 1090.714844 1283.003906 1090.714844 1283.003906 1090.714844 C 1284.734375 1088.039062 1283.917969 1084.484375 1281.246094 1082.757812 C 1278.535156 1081.0625 1274.980469 1081.875 1273.285156 1084.550781 C 1271.59375 1087.226562 1272.371094 1090.816406 1275.082031 1092.507812 C 1276.0625 1093.121094 1277.113281 1093.390625 1278.164062 1093.390625 Z M 176.484375 1071.378906 C 177.464844 1071.378906 178.480469 1071.105469 179.363281 1070.597656 C 182.140625 1069.007812 183.054688 1065.484375 181.460938 1062.742188 C 179.871094 1059.964844 176.347656 1059.050781 173.605469 1060.644531 C 170.828125 1062.234375 169.914062 1065.757812 171.507812 1068.5 C 172.554688 1070.363281 174.484375 1071.378906 176.484375 1071.378906 Z M 1291.605469 1071.207031 C 1293.640625 1071.207031 1295.570312 1070.160156 1296.617188 1068.332031 C 1298.210938 1065.554688 1297.261719 1062.066406 1294.519531 1060.441406 C 1291.742188 1058.847656 1288.253906 1059.796875 1286.664062 1062.574219 C 1285.039062 1065.316406 1285.984375 1068.839844 1288.726562 1070.429688 C 1289.644531 1070.9375 1290.660156 1071.207031 1291.605469 1071.207031 Z M 163.953125 1048.757812 C 164.835938 1048.757812 165.78125 1048.554688 166.628906 1048.078125 C 169.40625 1046.589844 170.523438 1043.101562 169.035156 1040.289062 C 167.578125 1037.480469 164.089844 1036.394531 161.246094 1037.886719 C 158.433594 1039.34375 157.351562 1042.832031 158.839844 1045.675781 C 159.890625 1047.605469 161.886719 1048.757812 163.953125 1048.757812 Z M 1304.171875 1048.484375 C 1306.238281 1048.484375 1308.269531 1047.367188 1309.285156 1045.402344 C 1310.773438 1042.59375 1309.691406 1039.105469 1306.878906 1037.617188 C 1304.101562 1036.125 1300.613281 1037.210938 1299.089844 1040.054688 C 1297.636719 1042.832031 1298.71875 1046.320312 1301.53125 1047.84375 C 1302.34375 1048.25 1303.257812 1048.484375 1304.171875 1048.484375 Z M 152.371094 1025.59375 C 153.21875 1025.59375 154.03125 1025.425781 154.84375 1025.050781 C 157.722656 1023.664062 158.941406 1020.242188 157.585938 1017.363281 C 156.199219 1014.484375 152.777344 1013.265625 149.902344 1014.621094 C 147.023438 1016.011719 145.804688 1019.429688 147.15625 1022.308594 C 148.140625 1024.410156 150.207031 1025.59375 152.371094 1025.59375 Z M 1315.785156 1025.222656 C 1317.953125 1025.222656 1319.984375 1024 1321 1021.9375 C 1321 1021.96875 1321 1021.96875 1321 1021.96875 C 1322.355469 1019.089844 1321.136719 1015.636719 1318.257812 1014.28125 C 1315.378906 1012.894531 1311.960938 1014.148438 1310.570312 1017.027344 C 1309.214844 1019.871094 1310.4375 1023.324219 1313.3125 1024.679688 C 1314.125 1025.050781 1314.972656 1025.222656 1315.785156 1025.222656 Z M 141.707031 1002.058594 C 142.484375 1002.058594 143.230469 1001.921875 143.972656 1001.582031 C 146.921875 1000.332031 148.273438 996.945312 146.988281 993.996094 C 145.734375 991.085938 142.347656 989.695312 139.4375 990.984375 C 136.488281 992.238281 135.136719 995.625 136.421875 998.570312 C 137.335938 1000.703125 139.46875 1002.058594 141.707031 1002.058594 Z M 1326.453125 1001.582031 C 1328.6875 1001.582031 1330.820312 1000.261719 1331.769531 998.0625 C 1333.023438 995.117188 1331.667969 991.761719 1328.757812 990.511719 C 1325.808594 989.257812 1322.457031 990.613281 1321.203125 993.523438 C 1319.953125 996.4375 1321.273438 999.824219 1324.21875 1001.074219 C 1324.964844 1001.414062 1325.707031 1001.582031 1326.453125 1001.582031 Z M 132.019531 978.082031 C 132.695312 978.082031 133.410156 977.980469 134.085938 977.710938 C 137.066406 976.558594 138.554688 973.238281 137.40625 970.292969 C 136.285156 967.3125 132.96875 965.789062 129.988281 966.941406 C 127.007812 968.058594 125.519531 971.410156 126.667969 974.355469 C 126.636719 974.355469 126.636719 974.355469 126.636719 974.355469 C 127.515625 976.660156 129.71875 978.082031 132.019531 978.082031 Z M 1336.207031 977.472656 C 1338.507812 977.472656 1340.710938 976.050781 1341.589844 973.746094 C 1342.707031 970.765625 1341.21875 967.449219 1338.203125 966.332031 C 1335.222656 965.214844 1331.90625 966.667969 1330.789062 969.683594 C 1329.636719 972.664062 1331.125 975.980469 1334.140625 977.097656 C 1334.816406 977.371094 1335.496094 977.472656 1336.207031 977.472656 Z M 123.28125 953.632812 C 123.890625 953.632812 124.535156 953.53125 125.113281 953.328125 C 128.125 952.3125 129.75 949.027344 128.734375 946.046875 C 127.71875 943.03125 124.46875 941.371094 121.453125 942.421875 C 118.441406 943.4375 116.816406 946.6875 117.832031 949.703125 C 118.644531 952.109375 120.914062 953.632812 123.28125 953.632812 Z M 1344.910156 952.988281 C 1347.3125 952.988281 1349.582031 951.464844 1350.394531 949.027344 C 1351.410156 946.011719 1349.785156 942.761719 1346.773438 941.746094 C 1343.757812 940.730469 1340.472656 942.386719 1339.492188 945.367188 C 1338.476562 948.382812 1340.101562 951.632812 1343.113281 952.648438 C 1343.691406 952.851562 1344.300781 952.988281 1344.910156 952.988281 Z M 115.5625 928.910156 C 116.070312 928.910156 116.613281 928.84375 117.1875 928.671875 C 120.234375 927.792969 121.996094 924.609375 121.117188 921.5625 C 120.234375 918.515625 117.050781 916.71875 113.96875 917.632812 C 110.921875 918.515625 109.160156 921.730469 110.042969 924.777344 C 110.753906 927.25 113.054688 928.910156 115.5625 928.910156 Z M 1352.628906 928.199219 C 1355.136719 928.199219 1357.441406 926.539062 1358.152344 924.035156 C 1359.03125 920.984375 1357.269531 917.769531 1354.1875 916.886719 C 1351.140625 916.007812 1347.921875 917.769531 1347.078125 920.851562 C 1346.195312 923.898438 1347.957031 927.117188 1351.003906 927.960938 C 1351.546875 928.164062 1352.089844 928.199219 1352.628906 928.199219 Z M 108.855469 903.851562 C 109.332031 903.851562 109.769531 903.78125 110.246094 903.679688 C 113.328125 902.9375 115.222656 899.785156 114.445312 896.707031 C 113.699219 893.625 110.550781 891.761719 107.46875 892.507812 C 104.386719 893.25 102.488281 896.402344 103.269531 899.480469 C 103.914062 902.089844 106.25 903.851562 108.855469 903.851562 Z M 1359.300781 903.171875 C 1361.910156 903.171875 1364.246094 901.414062 1364.890625 898.804688 C 1365.667969 895.6875 1363.773438 892.574219 1360.691406 891.828125 C 1357.609375 891.050781 1354.460938 892.945312 1353.714844 896.027344 C 1352.96875 899.109375 1354.832031 902.257812 1357.914062 903.003906 C 1358.386719 903.105469 1358.863281 903.171875 1359.300781 903.171875 Z M 103.167969 878.554688 C 103.539062 878.554688 103.945312 878.519531 104.320312 878.453125 C 107.433594 877.808594 109.433594 874.796875 108.824219 871.644531 C 108.179688 868.53125 105.132812 866.53125 102.015625 867.140625 C 98.902344 867.820312 96.902344 870.832031 97.511719 873.949219 C 98.054688 876.691406 100.492188 878.554688 103.167969 878.554688 Z M 1364.992188 877.875 C 1367.667969 877.875 1370.105469 876.015625 1370.648438 873.269531 C 1371.289062 870.121094 1369.257812 867.109375 1366.144531 866.464844 C 1362.992188 865.820312 1359.980469 867.851562 1359.335938 870.96875 C 1358.691406 874.085938 1360.722656 877.132812 1363.839844 877.773438 C 1364.210938 877.84375 1364.617188 877.875 1364.992188 877.875 Z M 98.492188 853.085938 C 98.800781 853.085938 99.105469 853.054688 99.410156 852.988281 C 102.558594 852.511719 104.691406 849.53125 104.148438 846.382812 C 103.675781 843.234375 100.695312 841.101562 97.546875 841.640625 C 94.398438 842.117188 92.261719 845.097656 92.769531 848.246094 C 93.246094 851.054688 95.683594 853.085938 98.492188 853.085938 Z M 1369.628906 852.375 C 1372.40625 852.375 1374.878906 850.34375 1375.320312 847.5 C 1375.792969 844.351562 1373.660156 841.40625 1370.546875 840.898438 C 1367.394531 840.421875 1364.449219 842.523438 1363.941406 845.671875 C 1363.433594 848.820312 1365.566406 851.734375 1368.683594 852.273438 C 1369.019531 852.34375 1369.324219 852.375 1369.628906 852.375 Z M 94.835938 827.417969 C 95.074219 827.417969 95.3125 827.417969 95.546875 827.386719 C 98.699219 827.011719 100.964844 824.132812 100.558594 820.949219 C 100.1875 817.800781 97.308594 815.53125 94.160156 815.9375 C 90.976562 816.3125 88.742188 819.191406 89.113281 822.339844 C 89.484375 825.285156 91.992188 827.417969 94.835938 827.417969 Z M 1373.253906 826.671875 C 1376.132812 826.671875 1378.605469 824.539062 1378.945312 821.59375 C 1379.316406 818.445312 1377.082031 815.566406 1373.898438 815.195312 C 1370.75 814.789062 1367.871094 817.054688 1367.496094 820.238281 C 1367.125 823.390625 1369.359375 826.265625 1372.542969 826.640625 C 1372.78125 826.671875 1373.015625 826.671875 1373.253906 826.671875 Z M 92.230469 801.613281 C 92.398438 801.613281 92.535156 801.613281 92.703125 801.578125 C 95.886719 801.308594 98.222656 798.566406 97.984375 795.382812 C 97.714844 792.199219 94.9375 789.863281 91.753906 790.066406 C 88.570312 790.371094 86.234375 793.113281 86.472656 796.296875 C 86.742188 799.34375 89.28125 801.613281 92.230469 801.613281 Z M 1375.792969 800.902344 C 1378.773438 800.902344 1381.28125 798.632812 1381.515625 795.585938 C 1381.789062 792.402344 1379.417969 789.625 1376.234375 789.390625 C 1373.050781 789.117188 1370.273438 791.488281 1370.003906 794.671875 C 1369.765625 797.855469 1372.136719 800.632812 1375.320312 800.867188 C 1375.488281 800.902344 1375.660156 800.902344 1375.792969 800.902344 Z M 90.636719 775.742188 C 90.738281 775.742188 90.808594 775.707031 90.910156 775.707031 C 94.089844 775.605469 96.5625 772.898438 96.429688 769.746094 C 96.292969 766.5625 93.617188 764.058594 90.433594 764.226562 C 87.25 764.328125 84.746094 767.039062 84.914062 770.222656 C 85.050781 773.304688 87.589844 775.742188 90.636719 775.742188 Z M 1377.351562 775.03125 C 1380.398438 775.03125 1382.972656 772.59375 1383.074219 769.511719 C 1383.175781 766.328125 1380.738281 763.617188 1377.554688 763.515625 C 1374.371094 763.414062 1371.695312 765.851562 1371.59375 769.035156 C 1371.460938 772.21875 1373.929688 774.894531 1377.082031 774.996094 C 1377.183594 775.03125 1377.285156 775.03125 1377.351562 775.03125 Z M 90.128906 749.835938 C 93.3125 749.835938 95.886719 747.226562 95.886719 744.078125 C 95.886719 740.894531 93.277344 738.320312 90.128906 738.320312 C 86.945312 738.320312 84.371094 740.929688 84.371094 744.078125 C 84.371094 747.261719 86.980469 749.835938 90.128906 749.835938 Z M 1377.859375 749.125 C 1381.042969 749.125 1383.617188 746.515625 1383.617188 743.367188 C 1383.617188 743.097656 1383.617188 742.894531 1383.550781 742.621094 C 1383.582031 742.386719 1383.617188 742.148438 1383.617188 741.945312 C 1383.617188 738.761719 1381.007812 736.1875 1377.859375 736.222656 C 1374.675781 736.222656 1372.101562 738.796875 1372.101562 741.980469 C 1372.101562 742.25 1372.136719 742.453125 1372.171875 742.691406 C 1372.136719 742.925781 1372.101562 743.164062 1372.101562 743.367188 C 1372.101562 746.515625 1374.675781 749.125 1377.859375 749.125 Z M 90.636719 723.894531 C 93.71875 723.894531 96.292969 721.492188 96.394531 718.375 C 96.496094 715.191406 94.023438 712.515625 90.875 712.382812 C 87.691406 712.28125 84.980469 714.75 84.878906 717.902344 C 84.777344 721.085938 87.25 723.792969 90.402344 723.894531 C 90.46875 723.894531 90.535156 723.894531 90.636719 723.894531 Z M 1377.285156 721.761719 C 1377.386719 721.761719 1377.453125 721.761719 1377.554688 721.761719 C 1380.738281 721.625 1383.210938 718.949219 1383.039062 715.765625 C 1382.9375 712.585938 1380.230469 710.078125 1377.046875 710.246094 C 1373.863281 710.382812 1371.390625 713.058594 1371.527344 716.242188 C 1371.664062 719.355469 1374.203125 721.761719 1377.285156 721.761719 Z M 92.160156 698.023438 C 95.140625 698.023438 97.648438 695.71875 97.882812 692.707031 C 98.121094 689.523438 95.75 686.746094 92.566406 686.476562 C 89.382812 686.238281 86.640625 688.609375 86.371094 691.792969 C 86.101562 694.976562 88.503906 697.75 91.6875 697.988281 C 91.824219 698.023438 91.992188 698.023438 92.160156 698.023438 Z M 1375.660156 695.890625 C 1375.828125 695.890625 1375.964844 695.855469 1376.132812 695.855469 C 1379.316406 695.585938 1381.652344 692.808594 1381.414062 689.625 C 1381.144531 686.441406 1378.402344 684.105469 1375.183594 684.339844 C 1372 684.613281 1369.664062 687.390625 1369.902344 690.574219 C 1370.207031 693.585938 1372.710938 695.890625 1375.660156 695.890625 Z M 94.703125 672.21875 C 97.578125 672.21875 100.050781 670.085938 100.390625 667.136719 C 100.761719 663.953125 98.527344 661.109375 95.34375 660.738281 C 92.195312 660.363281 89.316406 662.601562 88.945312 665.785156 C 88.570312 668.933594 90.808594 671.8125 93.988281 672.183594 C 94.226562 672.21875 94.464844 672.21875 94.703125 672.21875 Z M 1373.050781 670.117188 C 1373.289062 670.117188 1373.523438 670.085938 1373.761719 670.050781 C 1376.910156 669.679688 1379.148438 666.800781 1378.773438 663.617188 C 1378.402344 660.433594 1375.523438 658.230469 1372.339844 658.605469 C 1369.191406 658.976562 1366.957031 661.855469 1367.328125 665.039062 C 1367.699219 667.949219 1370.207031 670.117188 1373.050781 670.117188 Z M 98.257812 646.546875 C 101.066406 646.546875 103.507812 644.515625 103.945312 641.707031 C 104.421875 638.554688 102.320312 635.609375 99.171875 635.101562 C 96.023438 634.59375 93.074219 636.761719 92.566406 639.84375 C 92.535156 639.84375 92.535156 639.84375 92.535156 639.84375 C 92.058594 643.027344 94.160156 645.9375 97.308594 646.480469 C 97.648438 646.515625 97.953125 646.546875 98.257812 646.546875 Z M 1369.394531 644.449219 C 1369.699219 644.449219 1370.039062 644.414062 1370.34375 644.347656 C 1373.492188 643.839844 1375.625 640.859375 1375.082031 637.710938 C 1374.574219 634.558594 1371.59375 632.425781 1368.445312 632.96875 C 1365.296875 633.476562 1363.164062 636.457031 1363.703125 639.605469 C 1364.179688 642.417969 1366.617188 644.449219 1369.394531 644.449219 Z M 102.863281 621.015625 C 105.570312 621.015625 107.976562 619.152344 108.519531 616.410156 C 109.160156 613.292969 107.128906 610.246094 104.015625 609.601562 C 100.898438 608.992188 97.851562 611.023438 97.207031 614.140625 C 96.5625 617.253906 98.597656 620.304688 101.746094 620.945312 C 102.117188 621.015625 102.488281 621.015625 102.863281 621.015625 Z M 1364.6875 618.949219 C 1365.058594 618.949219 1365.464844 618.882812 1365.835938 618.847656 C 1368.988281 618.171875 1370.953125 615.15625 1370.339844 612.007812 C 1369.699219 608.890625 1366.652344 606.894531 1363.535156 607.535156 C 1360.417969 608.179688 1358.421875 611.226562 1359.03125 614.34375 C 1359.605469 617.085938 1362.011719 618.949219 1364.6875 618.949219 Z M 108.519531 595.71875 C 111.125 595.71875 113.460938 593.957031 114.105469 591.347656 C 114.851562 588.234375 112.988281 585.117188 109.871094 584.375 C 106.789062 583.628906 103.675781 585.492188 102.929688 588.605469 C 102.183594 591.6875 104.046875 594.804688 107.164062 595.546875 C 107.605469 595.683594 108.078125 595.71875 108.519531 595.71875 Z M 1358.964844 593.652344 C 1359.4375 593.652344 1359.878906 593.585938 1360.351562 593.484375 C 1363.433594 592.738281 1365.328125 589.589844 1364.550781 586.507812 C 1363.804688 583.425781 1360.65625 581.527344 1357.574219 582.308594 C 1354.492188 583.085938 1352.628906 586.203125 1353.375 589.285156 C 1354.019531 591.890625 1356.355469 593.652344 1358.964844 593.652344 Z M 115.1875 570.691406 C 117.660156 570.691406 119.964844 569.03125 120.710938 566.527344 C 121.589844 563.480469 119.828125 560.261719 116.746094 559.382812 C 113.699219 558.5 110.480469 560.261719 109.601562 563.34375 C 108.722656 566.390625 110.480469 569.609375 113.5625 570.488281 C 114.140625 570.625 114.648438 570.691406 115.1875 570.691406 Z M 1352.222656 568.625 C 1352.765625 568.625 1353.273438 568.558594 1353.851562 568.390625 C 1356.898438 567.507812 1358.660156 564.292969 1357.777344 561.242188 C 1356.898438 558.195312 1353.679688 556.433594 1350.632812 557.316406 C 1347.585938 558.195312 1345.824219 561.414062 1346.703125 564.460938 C 1347.414062 567 1349.71875 568.625 1352.222656 568.625 Z M 122.875 545.9375 C 125.28125 545.9375 127.550781 544.414062 128.363281 541.976562 C 129.34375 538.960938 127.71875 535.710938 124.707031 534.695312 C 121.691406 533.679688 118.441406 535.335938 117.425781 538.351562 C 116.410156 541.367188 118.066406 544.617188 121.082031 545.632812 C 121.65625 545.835938 122.265625 545.9375 122.875 545.9375 Z M 1344.46875 543.90625 C 1345.078125 543.90625 1345.6875 543.804688 1346.296875 543.601562 C 1349.277344 542.585938 1350.9375 539.332031 1349.921875 536.320312 C 1348.871094 533.304688 1345.621094 531.679688 1342.605469 532.695312 C 1339.625 533.710938 1337.96875 536.996094 1338.984375 539.976562 C 1339.796875 542.382812 1342.03125 543.90625 1344.46875 543.90625 Z M 131.546875 521.453125 C 133.847656 521.453125 136.050781 519.996094 136.929688 517.695312 C 138.046875 514.714844 136.558594 511.394531 133.542969 510.277344 C 130.5625 509.125 127.277344 510.617188 126.128906 513.628906 C 125.042969 516.609375 126.535156 519.929688 129.515625 521.046875 C 130.191406 521.285156 130.867188 521.453125 131.546875 521.453125 Z M 1335.699219 519.488281 C 1336.375 519.488281 1337.085938 519.386719 1337.730469 519.117188 C 1340.710938 518 1342.199219 514.644531 1341.082031 511.699219 C 1339.929688 508.71875 1336.613281 507.230469 1333.667969 508.382812 C 1330.6875 509.5 1329.195312 512.851562 1330.3125 515.796875 C 1331.226562 518.101562 1333.363281 519.488281 1335.699219 519.488281 Z M 141.230469 497.339844 C 143.464844 497.339844 145.566406 496.019531 146.546875 493.820312 C 147.800781 490.875 146.445312 487.519531 143.5 486.234375 C 140.554688 484.980469 137.203125 486.371094 135.949219 489.28125 C 134.695312 492.226562 136.050781 495.582031 138.996094 496.867188 C 139.707031 497.136719 140.484375 497.339844 141.230469 497.339844 Z M 1326.011719 495.546875 C 1326.757812 495.546875 1327.539062 495.410156 1328.28125 495.074219 C 1331.195312 493.820312 1332.550781 490.433594 1331.296875 487.488281 C 1330.042969 484.539062 1326.65625 483.1875 1323.710938 484.472656 C 1320.796875 485.726562 1319.445312 489.113281 1320.695312 492.058594 C 1321.644531 494.226562 1323.746094 495.546875 1326.011719 495.546875 Z M 151.863281 473.601562 C 154.03125 473.601562 156.097656 472.382812 157.078125 470.316406 C 158.46875 467.4375 157.214844 463.984375 154.335938 462.628906 C 151.457031 461.277344 148.039062 462.496094 146.683594 465.375 C 145.292969 468.253906 146.546875 471.671875 149.425781 473.0625 C 150.207031 473.433594 151.050781 473.601562 151.863281 473.601562 Z M 1315.347656 471.976562 C 1316.160156 471.976562 1317.003906 471.808594 1317.816406 471.402344 C 1320.664062 470.046875 1321.914062 466.59375 1320.527344 463.75 C 1319.140625 460.871094 1315.71875 459.652344 1312.839844 461.003906 C 1309.996094 462.394531 1308.742188 465.847656 1310.132812 468.691406 C 1311.113281 470.757812 1313.179688 471.976562 1315.347656 471.976562 Z M 163.480469 450.371094 C 165.546875 450.371094 167.578125 449.253906 168.59375 447.289062 C 170.082031 444.480469 169 441.023438 166.1875 439.5 C 163.378906 438.046875 159.890625 439.128906 158.398438 441.90625 C 156.945312 444.714844 157.992188 448.203125 160.804688 449.695312 C 161.652344 450.167969 162.597656 450.371094 163.480469 450.371094 Z M 1303.695312 448.847656 C 1304.609375 448.847656 1305.523438 448.644531 1306.40625 448.171875 C 1309.183594 446.714844 1310.300781 443.226562 1308.808594 440.382812 C 1307.355469 437.570312 1303.867188 436.488281 1301.019531 437.976562 C 1298.210938 439.433594 1297.125 442.921875 1298.617188 445.765625 C 1299.632812 447.730469 1301.632812 448.847656 1303.695312 448.847656 Z M 176.011719 427.648438 C 178.007812 427.648438 179.9375 426.597656 180.988281 424.769531 C 182.578125 421.992188 181.664062 418.503906 178.886719 416.914062 C 176.113281 415.289062 172.625 416.234375 171.03125 419.011719 C 169.441406 421.789062 170.355469 425.277344 173.132812 426.871094 C 174.011719 427.378906 175.027344 427.648438 176.011719 427.648438 Z M 1291.167969 426.226562 C 1292.148438 426.226562 1293.128906 425.957031 1294.046875 425.449219 C 1296.820312 423.820312 1297.738281 420.332031 1296.144531 417.558594 C 1294.519531 414.8125 1291.03125 413.867188 1288.253906 415.492188 C 1285.511719 417.082031 1284.5625 420.605469 1286.1875 423.347656 C 1287.238281 425.175781 1289.167969 426.226562 1291.167969 426.226562 Z M 189.421875 405.433594 C 191.316406 405.433594 193.179688 404.484375 194.296875 402.757812 C 195.988281 400.050781 195.175781 396.492188 192.5 394.800781 C 189.828125 393.105469 186.238281 393.917969 184.542969 396.59375 C 182.851562 399.269531 183.664062 402.859375 186.339844 404.554688 C 187.285156 405.128906 188.371094 405.433594 189.421875 405.433594 Z M 1277.722656 404.113281 C 1278.773438 404.113281 1279.855469 403.808594 1280.804688 403.230469 C 1283.480469 401.503906 1284.292969 397.949219 1282.597656 395.273438 C 1280.871094 392.566406 1277.316406 391.785156 1274.640625 393.480469 C 1271.933594 395.171875 1271.152344 398.761719 1272.847656 401.4375 C 1273.929688 403.164062 1275.824219 404.113281 1277.722656 404.113281 Z M 203.746094 383.761719 C 205.574219 383.761719 207.367188 382.878906 208.484375 381.289062 C 210.28125 378.679688 209.636719 375.058594 207.03125 373.296875 C 204.421875 371.46875 200.796875 372.144531 199.003906 374.753906 C 197.210938 377.359375 197.851562 380.949219 200.460938 382.746094 C 201.476562 383.457031 202.59375 383.761719 203.746094 383.761719 Z M 1263.398438 382.542969 C 1264.515625 382.542969 1265.667969 382.238281 1266.648438 381.492188 C 1269.257812 379.695312 1269.933594 376.105469 1268.105469 373.5 C 1266.277344 370.890625 1262.6875 370.25 1260.078125 372.042969 C 1257.472656 373.871094 1256.828125 377.425781 1258.621094 380.035156 C 1259.773438 381.660156 1261.570312 382.542969 1263.398438 382.542969 Z M 218.917969 362.695312 C 220.675781 362.695312 222.402344 361.917969 223.523438 360.394531 C 225.453125 357.855469 224.945312 354.265625 222.371094 352.335938 C 219.832031 350.4375 216.242188 350.945312 214.3125 353.484375 C 212.414062 356.058594 212.921875 359.648438 215.460938 361.546875 C 216.476562 362.324219 217.695312 362.695312 218.917969 362.695312 Z M 1248.191406 361.546875 C 1249.410156 361.546875 1250.632812 361.171875 1251.679688 360.359375 C 1254.21875 358.464844 1254.695312 354.875 1252.796875 352.300781 C 1250.867188 349.761719 1247.277344 349.285156 1244.738281 351.183594 C 1242.164062 353.113281 1241.691406 356.703125 1243.621094 359.242188 C 1244.738281 360.730469 1246.464844 361.546875 1248.191406 361.546875 Z M 234.898438 342.277344 C 236.558594 342.277344 238.253906 341.566406 239.402344 340.175781 C 241.4375 337.703125 241.03125 334.082031 238.558594 332.082031 C 236.121094 330.050781 232.460938 330.421875 230.464844 332.894531 C 228.433594 335.367188 228.804688 338.992188 231.277344 340.988281 C 232.328125 341.871094 233.613281 342.277344 234.898438 342.277344 Z M 1232.175781 341.191406 C 1233.460938 341.191406 1234.78125 340.753906 1235.832031 339.90625 C 1238.269531 337.875 1238.644531 334.25 1236.644531 331.777344 C 1234.648438 329.339844 1230.988281 328.96875 1228.515625 330.964844 C 1226.078125 332.996094 1225.707031 336.621094 1227.703125 339.09375 C 1228.855469 340.480469 1230.515625 341.191406 1232.175781 341.191406 Z M 251.730469 322.535156 C 253.324219 322.535156 254.914062 321.855469 256.03125 320.570312 C 258.164062 318.164062 257.929688 314.542969 255.558594 312.441406 C 253.1875 310.34375 249.53125 310.546875 247.429688 312.914062 C 245.332031 315.320312 245.566406 318.945312 247.902344 321.042969 C 248.988281 322.058594 250.375 322.535156 251.730469 322.535156 Z M 1215.34375 321.484375 C 1216.699219 321.484375 1218.085938 321.007812 1219.171875 320.027344 C 1221.542969 317.925781 1221.777344 314.304688 1219.644531 311.898438 C 1219.679688 311.898438 1219.679688 311.898438 1219.679688 311.898438 C 1217.546875 309.53125 1213.921875 309.292969 1211.519531 311.425781 C 1209.113281 313.558594 1208.910156 317.183594 1211.042969 319.585938 L 1211.078125 319.585938 C 1212.195312 320.804688 1213.753906 321.484375 1215.34375 321.484375 Z M 269.304688 303.46875 C 270.796875 303.46875 272.320312 302.859375 273.4375 301.671875 C 275.640625 299.371094 275.570312 295.746094 273.269531 293.511719 C 270.964844 291.308594 267.34375 291.410156 265.105469 293.679688 C 262.90625 295.984375 262.972656 299.640625 265.277344 301.84375 C 266.394531 302.925781 267.851562 303.46875 269.304688 303.46875 Z M 1197.734375 302.453125 C 1199.191406 302.453125 1200.613281 301.910156 1201.730469 300.824219 C 1204 298.589844 1204.066406 294.933594 1201.867188 292.664062 C 1199.632812 290.363281 1196.007812 290.292969 1193.703125 292.53125 C 1191.402344 294.730469 1191.335938 298.386719 1193.570312 300.65625 C 1194.722656 301.875 1196.210938 302.453125 1197.734375 302.453125 Z M 287.628906 285.113281 C 289.050781 285.113281 290.472656 284.570312 291.589844 283.488281 C 293.890625 281.253906 293.960938 277.628906 291.757812 275.328125 C 289.523438 273.058594 285.898438 272.957031 283.597656 275.191406 C 281.292969 277.390625 281.226562 281.050781 283.429688 283.316406 C 284.578125 284.539062 286.101562 285.113281 287.628906 285.113281 Z M 1179.378906 284.132812 C 1180.902344 284.132812 1182.429688 283.554688 1183.546875 282.371094 C 1185.746094 280.066406 1185.679688 276.410156 1183.375 274.207031 C 1181.074219 271.972656 1177.449219 272.074219 1175.214844 274.378906 C 1173.011719 276.679688 1173.117188 280.304688 1175.382812 282.539062 C 1176.5 283.621094 1177.957031 284.132812 1179.378906 284.132812 Z M 306.625 267.539062 C 307.980469 267.539062 309.367188 267.0625 310.453125 266.082031 C 312.855469 263.980469 313.058594 260.359375 310.925781 257.953125 C 308.792969 255.582031 305.167969 255.347656 302.765625 257.480469 C 300.394531 259.613281 300.15625 263.238281 302.289062 265.640625 C 303.441406 266.859375 305.035156 267.539062 306.625 267.539062 Z M 1160.28125 266.589844 C 1161.90625 266.589844 1163.464844 265.910156 1164.617188 264.625 C 1166.714844 262.21875 1166.511719 258.597656 1164.140625 256.496094 C 1161.738281 254.398438 1158.113281 254.601562 1156.011719 256.972656 C 1153.878906 259.375 1154.117188 263 1156.488281 265.097656 C 1157.605469 266.113281 1158.925781 266.589844 1160.28125 266.589844 Z M 326.367188 250.707031 C 327.621094 250.707031 328.941406 250.265625 329.992188 249.421875 C 332.464844 247.386719 332.800781 243.765625 330.804688 241.292969 C 328.773438 238.855469 325.148438 238.515625 322.710938 240.511719 C 320.238281 242.546875 319.898438 246.136719 321.898438 248.605469 C 323.015625 249.996094 324.675781 250.707031 326.367188 250.707031 Z M 1140.539062 249.792969 C 1142.195312 249.792969 1143.855469 249.082031 1145.007812 247.660156 C 1147.039062 245.1875 1146.667969 241.5625 1144.160156 239.566406 C 1141.722656 237.535156 1138.066406 237.941406 1136.066406 240.410156 C 1134.070312 242.851562 1134.441406 246.472656 1136.914062 248.503906 C 1137.964844 249.386719 1139.25 249.792969 1140.539062 249.792969 Z M 346.71875 234.6875 C 347.941406 234.6875 349.125 234.316406 350.175781 233.539062 C 352.714844 231.640625 353.222656 228.019531 351.292969 225.476562 C 349.394531 222.9375 345.773438 222.429688 343.234375 224.359375 C 340.691406 226.257812 340.183594 229.878906 342.113281 232.421875 C 343.234375 233.910156 344.960938 234.6875 346.71875 234.6875 Z M 1120.117188 233.808594 C 1121.878906 233.808594 1123.605469 232.996094 1124.722656 231.503906 C 1126.621094 228.964844 1126.109375 225.34375 1123.570312 223.445312 C 1121.03125 221.550781 1117.40625 222.058594 1115.511719 224.597656 C 1113.617188 227.136719 1114.089844 230.761719 1116.664062 232.65625 C 1117.679688 233.4375 1118.898438 233.808594 1120.117188 233.808594 Z M 367.683594 219.519531 C 368.835938 219.519531 369.953125 219.179688 370.96875 218.46875 C 373.574219 216.640625 374.253906 213.082031 372.421875 210.441406 C 370.59375 207.835938 367.003906 207.15625 364.398438 208.984375 C 361.789062 210.8125 361.148438 214.402344 362.941406 217.011719 C 364.09375 218.671875 365.886719 219.519531 367.683594 219.519531 Z M 1099.054688 218.671875 C 1100.882812 218.671875 1102.675781 217.789062 1103.761719 216.164062 C 1105.589844 213.558594 1104.914062 209.96875 1102.304688 208.140625 C 1099.695312 206.34375 1096.109375 207.023438 1094.277344 209.59375 C 1092.449219 212.203125 1093.128906 215.828125 1095.734375 217.621094 C 1096.785156 218.332031 1097.902344 218.671875 1099.054688 218.671875 Z M 389.289062 205.226562 C 390.339844 205.226562 391.421875 204.921875 392.402344 204.3125 L 392.402344 204.347656 C 395.078125 202.621094 395.859375 199.0625 394.164062 196.386719 C 392.472656 193.679688 388.882812 192.898438 386.207031 194.59375 C 383.53125 196.285156 382.71875 199.875 384.410156 202.550781 C 385.53125 204.246094 387.359375 205.226562 389.289062 205.226562 Z M 1077.378906 204.378906 C 1079.277344 204.378906 1081.140625 203.433594 1082.257812 201.671875 C 1083.949219 198.996094 1083.136719 195.441406 1080.460938 193.746094 C 1077.753906 192.054688 1074.195312 192.832031 1072.503906 195.542969 C 1070.8125 198.21875 1071.625 201.804688 1074.296875 203.5 C 1075.246094 204.074219 1076.332031 204.378906 1077.378906 204.378906 Z M 411.4375 191.75 C 412.417969 191.75 413.398438 191.511719 414.3125 190.96875 C 417.058594 189.378906 418.003906 185.855469 416.378906 183.113281 C 414.789062 180.335938 411.265625 179.421875 408.523438 181.015625 C 405.78125 182.640625 404.832031 186.128906 406.421875 188.902344 C 407.507812 190.734375 409.4375 191.75 411.4375 191.75 Z M 1055.132812 190.9375 C 1057.164062 190.9375 1059.09375 189.886719 1060.144531 188.058594 C 1061.734375 185.28125 1060.785156 181.792969 1058.042969 180.167969 C 1058.042969 180.199219 1058.042969 180.199219 1058.042969 180.199219 C 1055.265625 178.574219 1051.746094 179.523438 1050.152344 182.300781 C 1048.5625 185.078125 1049.511719 188.566406 1052.285156 190.15625 C 1053.203125 190.699219 1054.183594 190.9375 1055.132812 190.9375 Z M 434.058594 179.21875 C 434.9375 179.21875 435.886719 179.015625 436.730469 178.542969 C 439.542969 177.085938 440.625 173.597656 439.136719 170.753906 C 437.679688 167.941406 434.191406 166.859375 431.347656 168.347656 C 428.539062 169.839844 427.453125 173.328125 428.945312 176.171875 C 429.992188 178.101562 431.992188 179.21875 434.058594 179.21875 Z M 1032.410156 178.40625 C 1034.472656 178.40625 1036.472656 177.289062 1037.523438 175.324219 C 1038.976562 172.515625 1037.894531 169.058594 1035.117188 167.535156 C 1032.308594 166.078125 1028.820312 167.164062 1027.328125 169.972656 C 1025.871094 172.75 1026.921875 176.238281 1029.765625 177.761719 C 1030.613281 178.203125 1031.492188 178.40625 1032.410156 178.40625 Z M 457.1875 167.636719 C 458.03125 167.636719 458.847656 167.433594 459.660156 167.0625 C 462.539062 165.671875 463.757812 162.253906 462.367188 159.375 C 461.011719 156.53125 457.59375 155.277344 454.714844 156.664062 C 451.835938 158.019531 450.617188 161.472656 452.003906 164.320312 C 452.988281 166.417969 455.019531 167.636719 457.1875 167.636719 Z M 1009.175781 166.824219 C 1011.34375 166.824219 1013.410156 165.605469 1014.390625 163.539062 C 1015.746094 160.660156 1014.492188 157.242188 1011.648438 155.886719 C 1008.769531 154.496094 1005.316406 155.75 1003.960938 158.628906 C 1002.609375 161.472656 1003.859375 164.929688 1006.707031 166.28125 C 1007.484375 166.65625 1008.332031 166.824219 1009.175781 166.824219 Z M 480.757812 156.96875 C 481.5 156.96875 482.28125 156.835938 483.023438 156.496094 C 485.9375 155.242188 487.292969 151.855469 486.039062 148.945312 C 484.785156 145.996094 481.398438 144.644531 478.453125 145.894531 C 475.542969 147.148438 474.1875 150.535156 475.441406 153.480469 C 476.386719 155.648438 478.488281 156.96875 480.757812 156.96875 Z M 985.472656 156.226562 C 987.707031 156.226562 989.839844 154.902344 990.789062 152.703125 C 992.042969 149.757812 990.6875 146.402344 987.742188 145.152344 C 984.828125 143.898438 981.441406 145.253906 980.1875 148.199219 C 978.9375 151.113281 980.289062 154.496094 983.238281 155.75 C 983.949219 156.054688 984.726562 156.226562 985.472656 156.226562 Z M 504.699219 147.285156 C 505.375 147.285156 506.085938 147.183594 506.730469 146.914062 C 509.710938 145.761719 511.199219 142.441406 510.082031 139.496094 C 508.929688 136.515625 505.613281 135.027344 502.667969 136.144531 C 499.6875 137.261719 498.195312 140.613281 499.3125 143.558594 C 500.195312 145.863281 502.363281 147.285156 504.699219 147.285156 Z M 961.359375 146.539062 C 963.699219 146.539062 965.898438 145.117188 966.746094 142.816406 C 967.863281 139.835938 966.371094 136.515625 963.394531 135.398438 C 960.414062 134.28125 957.09375 135.769531 955.976562 138.785156 C 954.859375 141.765625 956.347656 145.050781 959.328125 146.199219 C 960.007812 146.402344 960.683594 146.539062 961.359375 146.539062 Z M 529.113281 138.515625 C 529.722656 138.515625 530.367188 138.414062 530.941406 138.210938 C 533.957031 137.191406 535.582031 133.941406 534.566406 130.929688 C 533.550781 127.914062 530.265625 126.289062 527.253906 127.304688 C 524.273438 128.320312 522.613281 131.570312 523.664062 134.585938 C 524.476562 137.023438 526.710938 138.515625 529.113281 138.515625 Z M 936.875 137.871094 C 939.28125 137.871094 941.515625 136.347656 942.328125 133.910156 C 943.34375 130.894531 941.683594 127.644531 938.671875 126.628906 C 935.691406 125.613281 932.371094 127.269531 931.425781 130.285156 C 930.410156 133.296875 932.066406 136.550781 935.046875 137.566406 C 935.625 137.769531 936.265625 137.871094 936.875 137.871094 Z M 553.871094 130.792969 C 554.378906 130.792969 554.917969 130.691406 555.496094 130.554688 C 558.542969 129.675781 560.304688 126.457031 559.421875 123.410156 C 558.542969 120.363281 555.324219 118.601562 552.277344 119.480469 C 549.230469 120.363281 547.46875 123.546875 548.351562 126.59375 C 549.0625 129.167969 551.363281 130.792969 553.871094 130.792969 Z M 912.089844 130.183594 C 914.59375 130.183594 916.898438 128.558594 917.609375 126.019531 C 918.488281 122.96875 916.726562 119.753906 913.644531 118.90625 C 910.597656 118.027344 907.378906 119.785156 906.535156 122.867188 C 905.652344 125.917969 907.414062 129.132812 910.496094 129.980469 C 911.003906 130.148438 911.546875 130.183594 912.089844 130.183594 Z M 578.894531 124.054688 C 579.371094 124.054688 579.808594 123.984375 580.285156 123.882812 C 583.367188 123.105469 585.261719 119.988281 584.484375 116.910156 C 583.738281 113.828125 580.589844 111.929688 577.507812 112.710938 C 574.425781 113.453125 572.527344 116.601562 573.308594 119.683594 C 573.953125 122.292969 576.289062 124.054688 578.894531 124.054688 Z M 887.027344 123.546875 C 889.636719 123.546875 891.972656 121.785156 892.617188 119.175781 C 893.359375 116.0625 891.5 112.945312 888.382812 112.199219 C 885.300781 111.457031 882.1875 113.351562 881.441406 116.433594 C 880.660156 119.515625 882.558594 122.632812 885.640625 123.375 C 886.113281 123.476562 886.554688 123.546875 887.027344 123.546875 Z M 604.160156 118.332031 C 604.566406 118.332031 604.9375 118.296875 605.34375 118.230469 C 608.460938 117.585938 610.457031 114.570312 609.847656 111.457031 C 609.203125 108.308594 606.15625 106.308594 603.039062 106.953125 C 599.925781 107.59375 597.925781 110.609375 598.535156 113.757812 C 599.078125 116.46875 601.515625 118.332031 604.160156 118.332031 Z M 861.730469 117.925781 C 864.40625 117.925781 866.8125 116.027344 867.386719 113.285156 C 867.996094 110.167969 865.964844 107.15625 862.847656 106.511719 C 859.734375 105.867188 856.6875 107.898438 856.042969 111.015625 C 855.398438 114.164062 857.464844 117.179688 860.578125 117.824219 C 860.953125 117.855469 861.359375 117.925781 861.730469 117.925781 Z M 629.691406 113.65625 C 629.964844 113.65625 630.300781 113.625 630.605469 113.554688 C 633.753906 113.082031 635.890625 110.101562 635.347656 106.953125 C 634.839844 103.800781 631.894531 101.667969 628.742188 102.175781 C 628.742188 102.210938 628.742188 102.210938 628.742188 102.210938 C 625.59375 102.683594 623.460938 105.664062 623.96875 108.816406 C 624.441406 111.660156 626.882812 113.65625 629.691406 113.65625 Z M 836.199219 113.320312 C 839.007812 113.320312 841.445312 111.285156 841.886719 108.441406 C 842.394531 105.328125 840.226562 102.378906 837.113281 101.871094 C 833.960938 101.363281 831.015625 103.53125 830.507812 106.613281 C 830.035156 109.796875 832.132812 112.710938 835.285156 113.25 C 835.589844 113.285156 835.925781 113.320312 836.199219 113.320312 Z M 655.363281 110 C 655.597656 110 655.835938 110 656.039062 109.964844 C 659.222656 109.558594 661.457031 106.714844 661.050781 103.53125 C 660.679688 100.347656 657.800781 98.113281 654.648438 98.519531 C 651.46875 98.890625 649.230469 101.769531 649.605469 104.921875 C 649.976562 107.867188 652.484375 110 655.363281 110 Z M 810.527344 109.730469 C 813.40625 109.730469 815.878906 107.5625 816.21875 104.648438 C 816.589844 101.464844 814.355469 98.621094 811.171875 98.25 C 807.988281 97.875 805.144531 100.113281 804.769531 103.292969 C 804.398438 106.476562 806.632812 109.324219 809.816406 109.695312 C 810.089844 109.730469 810.292969 109.730469 810.527344 109.730469 Z M 681.132812 107.390625 C 681.269531 107.390625 681.4375 107.390625 681.605469 107.390625 C 684.789062 107.121094 687.125 104.34375 686.890625 101.160156 C 686.617188 97.976562 683.875 95.640625 680.691406 95.878906 C 677.507812 96.148438 675.171875 98.890625 675.410156 102.109375 C 675.613281 105.089844 678.152344 107.390625 681.132812 107.390625 Z M 784.722656 107.222656 C 787.703125 107.222656 790.210938 104.953125 790.445312 101.90625 C 790.71875 98.722656 788.347656 95.980469 785.164062 95.710938 C 781.980469 95.4375 779.203125 97.84375 778.964844 101.027344 C 778.695312 104.210938 781.066406 106.953125 784.25 107.222656 C 784.453125 107.222656 784.589844 107.222656 784.722656 107.222656 Z M 707.003906 105.800781 C 707.105469 105.800781 707.175781 105.800781 707.242188 105.800781 C 710.425781 105.699219 712.929688 102.988281 712.761719 99.808594 C 712.625 96.625 709.949219 94.152344 706.769531 94.320312 C 706.769531 94.285156 706.769531 94.285156 706.769531 94.285156 C 703.585938 94.421875 701.113281 97.097656 701.246094 100.316406 C 701.382812 103.363281 703.921875 105.800781 707.003906 105.800781 Z M 758.851562 105.699219 C 761.933594 105.699219 764.472656 103.292969 764.609375 100.179688 C 764.710938 96.996094 762.238281 94.320312 759.054688 94.21875 C 755.871094 94.082031 753.195312 96.589844 753.09375 99.738281 C 752.992188 102.921875 755.464844 105.597656 758.613281 105.699219 C 758.714844 105.699219 758.785156 105.699219 758.851562 105.699219 Z M 732.945312 105.257812 C 736.128906 105.257812 738.703125 102.652344 738.703125 99.5 C 738.703125 96.320312 736.09375 93.746094 732.945312 93.746094 C 729.761719 93.746094 727.1875 96.351562 727.1875 99.5 C 727.152344 102.683594 729.761719 105.257812 732.945312 105.257812 Z M 732.910156 93.710938 C 732.945312 93.710938 732.945312 93.710938 732.910156 93.710938 C 732.945312 93.710938 732.945312 93.710938 732.910156 93.710938 Z M 738.601562 1251.773438 L 738.601562 1318.046875 L 738.667969 1318.046875 Z M 761.660156 1284.996094 L 767.046875 1317.335938 L 761.660156 1284.65625 L 761.660156 1251.539062 L 756.175781 1251.976562 L 761.660156 1284.996094 L 761.660156 1317.777344 Z M 715.640625 1283.84375 L 710.558594 1316.964844 L 715.640625 1317.335938 Z M 784.621094 1283.808594 L 790.007812 1316.152344 L 784.621094 1283.472656 L 784.621094 1250.351562 L 779.136719 1250.792969 L 784.621094 1283.808594 L 784.621094 1316.589844 Z M 692.714844 1282.589844 L 697.386719 1249.777344 L 692.644531 1249.4375 L 692.644531 1282.964844 L 688.007812 1315.371094 L 692.644531 1282.964844 L 692.644531 1315.675781 Z M 812.222656 1314.117188 L 807.480469 1280.929688 L 807.480469 1248.21875 L 807.480469 1280.929688 L 802.839844 1248.523438 L 807.480469 1281.339844 L 807.480469 1314.457031 Z M 670.566406 1274.800781 L 674.800781 1247.269531 L 670.566406 1274.800781 L 674.496094 1247.203125 L 669.753906 1279.984375 L 664.707031 1312.730469 L 665.113281 1312.796875 Z M 830.679688 1280.625 L 835.722656 1310.933594 L 830.339844 1278.359375 L 825.632812 1245.476562 L 824.820312 1245.609375 L 830.644531 1280.59375 L 835.011719 1311.070312 Z M 647.167969 1276.019531 L 656.140625 1244.59375 L 647.167969 1276.019531 L 652.144531 1243.714844 L 647.066406 1276.460938 L 637.953125 1308.328125 L 642.085938 1309.242188 Z M 853.027344 1274.53125 L 863.390625 1305.652344 L 852.960938 1274.226562 L 848.289062 1241.445312 L 842.429688 1242.835938 L 853.027344 1274.53125 L 857.667969 1307.007812 Z M 624.613281 1271.550781 L 633.585938 1240.125 L 624.613281 1271.550781 L 629.589844 1239.246094 L 624.511719 1271.992188 L 615.402344 1303.859375 L 619.53125 1304.773438 Z M 884.554688 1301.113281 L 875.3125 1268.773438 L 880.832031 1301.960938 Z M 602.160156 1266.574219 L 611.914062 1234.910156 L 607.136719 1233.824219 L 602.058594 1266.945312 L 592.441406 1298.234375 L 602.058594 1266.945312 L 597.082031 1299.320312 Z M 898.066406 1264.609375 L 908.125 1294.75 L 897.695312 1263.320312 L 888.585938 1231.457031 L 887.164062 1231.894531 L 898.066406 1264.609375 L 906.804688 1295.15625 Z M 589.765625 1228.542969 L 570.292969 1291.871094 L 570.363281 1291.871094 Z M 930.136719 1287.90625 L 919.265625 1255.261719 L 928.714844 1288.347656 Z M 558.304688 1252.519531 L 572.019531 1222.820312 L 558.304688 1252.519531 L 567.921875 1221.261719 L 558.136719 1252.890625 L 544.253906 1282.964844 L 548.453125 1284.554688 Z M 715.605469 1284.214844 L 715.675781 1251.097656 Z M 941.550781 1249.371094 L 954.316406 1279.203125 L 941.3125 1248.726562 L 930.847656 1217.300781 L 928.207031 1218.28125 L 941.550781 1249.371094 L 951.8125 1280.152344 Z M 536.597656 1244.730469 L 550.484375 1214.660156 L 547.027344 1213.269531 L 536.394531 1245.203125 L 522.714844 1274.800781 L 536.363281 1245.203125 L 526.066406 1276.121094 Z M 977.414062 1269.722656 L 962.445312 1239.820312 L 971.621094 1271.992188 Z M 866.371094 1237.382812 L 875.414062 1269.25 Z M 515.433594 1235.621094 L 530.265625 1205.988281 L 525.152344 1203.921875 L 515.296875 1235.925781 L 500.632812 1265.253906 L 515.296875 1235.925781 L 505.648438 1267.25 Z M 998.273438 1260.242188 L 968.609375 1201.011719 L 998.238281 1260.273438 Z M 909.175781 1225.054688 L 919.605469 1256.515625 Z M 494.640625 1225.664062 L 509.472656 1196 L 508.492188 1195.523438 L 493.863281 1227.257812 L 479.84375 1255.261719 L 493.828125 1227.289062 L 480.722656 1255.703125 Z M 1004.164062 1220.617188 L 1022.28125 1247.8125 L 1003.960938 1220.210938 L 989.164062 1190.582031 L 985.539062 1192.679688 L 1004.164062 1220.617188 L 1018.761719 1249.84375 Z M 474.523438 1214.386719 L 492.644531 1187.195312 L 474.523438 1214.386719 L 489.121094 1185.164062 L 474.253906 1214.761719 L 455.867188 1242.324219 L 459.488281 1244.425781 Z M 947.78125 1210.460938 L 962.546875 1240.125 Z M 1024.214844 1209.410156 L 1042.332031 1236.601562 L 1024.011719 1209.003906 L 1009.210938 1179.371094 L 1005.585938 1181.472656 L 1024.214844 1209.410156 L 1038.808594 1238.636719 Z M 454.445312 1203.144531 L 472.832031 1175.578125 L 470.257812 1174.019531 L 454.070312 1203.6875 L 436.054688 1230.710938 L 454.070312 1203.6875 L 438.527344 1232.199219 Z M 1061.9375 1224.480469 L 1042.90625 1195.933594 L 1026.480469 1168.535156 L 1042.90625 1195.933594 L 1025.195312 1169.347656 L 1043.515625 1196.949219 L 1060.550781 1225.359375 Z M 435.074219 1190.648438 L 454.546875 1163.863281 L 449.839844 1160.984375 L 434.871094 1190.917969 L 415.601562 1217.4375 L 434.871094 1190.917969 L 420.207031 1220.246094 Z M 1062.988281 1184.621094 L 1083.273438 1209.953125 L 1062.617188 1184.046875 L 1044.226562 1156.480469 L 1041.855469 1158.207031 L 1062.988281 1184.621094 L 1081.003906 1211.609375 Z M 435.714844 1150.554688 L 396.738281 1204.128906 L 396.773438 1204.160156 Z M 1101.796875 1196.304688 L 1080.699219 1169.921875 L 1062.683594 1142.898438 L 1080.699219 1169.921875 L 1060.414062 1144.558594 L 1081.070312 1170.464844 L 1099.460938 1198.03125 Z M 398.226562 1163.050781 L 421.390625 1139.886719 L 398.226562 1163.050781 L 417.496094 1136.566406 L 397.957031 1163.320312 L 374.523438 1186.753906 L 378.519531 1190.175781 Z M 1100.847656 1158.273438 L 1120.21875 1181.503906 L 1099.085938 1156.074219 L 1078.363281 1130.132812 L 1077.785156 1130.574219 L 1100.816406 1158.171875 L 1119.746094 1181.84375 Z M 380.921875 1147.84375 L 402.597656 1124.003906 L 380.921875 1147.84375 L 401.074219 1122.683594 L 380.347656 1148.523438 L 358.066406 1173.039062 L 359.691406 1174.429688 Z M 1139.792969 1164.335938 L 1115.984375 1140.53125 L 1137.015625 1166.808594 Z M 363.347656 1133.078125 L 386.78125 1109.644531 L 384.003906 1107.171875 L 362.976562 1133.453125 L 339.914062 1156.511719 L 362.976562 1133.453125 L 342.589844 1158.917969 Z M 1156.488281 1148.488281 L 1132.679688 1124.679688 L 1112.328125 1099.214844 L 1132.679688 1124.679688 L 1109.621094 1101.621094 L 1133.019531 1125.085938 L 1153.710938 1150.960938 Z M 1116.324219 1140.9375 L 1092.925781 1117.46875 Z M 346.992188 1116.890625 L 371.609375 1094.710938 L 370.359375 1093.390625 L 346.179688 1117.570312 L 322.371094 1139.003906 L 346.179688 1117.570312 L 323.523438 1140.226562 Z M 1149.445312 1108.933594 L 1174.910156 1129.285156 L 1149.070312 1108.5625 L 1125.636719 1085.128906 L 1123.164062 1087.902344 L 1149.445312 1108.933594 L 1172.503906 1131.996094 Z M 355.933594 1077.847656 L 306.691406 1122.175781 L 306.726562 1122.207031 Z M 1190.285156 1112.082031 L 1162.175781 1089.597656 L 1138.945312 1070.226562 L 1162.175781 1089.597656 L 1138.574219 1070.699219 L 1164.410156 1091.425781 L 1189.878906 1112.625 Z M 316.683594 1082.316406 L 288.777344 1100.90625 L 291.757812 1104.734375 Z M 1204.878906 1094.269531 L 1176.773438 1071.785156 L 1204.441406 1094.847656 Z M 303.578125 1063.351562 L 328.636719 1044.558594 L 303.578125 1063.351562 L 328.027344 1043.777344 L 302.121094 1064.4375 L 275.605469 1084.316406 L 276.28125 1085.160156 Z M 340.996094 1060.40625 L 316.34375 1082.519531 Z M 1220.425781 1073.578125 L 1192.28125 1054.820312 L 1218.664062 1075.917969 Z M 1178.972656 1073.648438 L 1153.136719 1052.921875 Z M 288.609375 1045.914062 L 316.277344 1027.488281 L 315.835938 1026.8125 L 286.710938 1047.199219 L 261.144531 1064.234375 L 286.609375 1047.234375 L 261.519531 1064.808594 Z M 1165.292969 1036.835938 L 1192.824219 1055.257812 Z M 1206.945312 1036.902344 L 1234.34375 1053.328125 L 1205.996094 1036.261719 L 1178.398438 1017.871094 L 1177.519531 1019.261719 L 1206.945312 1036.902344 L 1233.53125 1054.617188 Z M 276.011719 1026.675781 L 304.628906 1009.980469 L 301.851562 1005.917969 L 275.671875 1026.847656 L 247.394531 1043.339844 L 275.671875 1026.847656 L 250.105469 1047.300781 Z M 1218.628906 1017.027344 L 1247.820312 1031.621094 L 1218.222656 1016.753906 L 1190.65625 998.367188 L 1188.558594 1001.988281 L 1218.628906 1017.027344 L 1245.789062 1035.144531 Z M 264.9375 1006.5625 L 234.492188 1021.765625 L 235.542969 1023.695312 Z M 1259.367188 1011.609375 L 1229.332031 996.570312 L 1257.269531 1015.195312 Z M 292.773438 990.308594 L 264.125 1006.933594 Z M 253.121094 986.851562 L 282.75 972.019531 L 281.699219 970.089844 L 252.339844 987.226562 L 223.488281 1001.652344 L 252.339844 987.226562 L 224.503906 1003.480469 Z M 1229.703125 996.84375 L 1200.105469 981.976562 Z M 1269.96875 991.152344 L 1210.671875 961.589844 L 1269.933594 991.222656 Z M 243.703125 965.925781 L 273.539062 953.496094 L 243.703125 965.925781 L 272.625 951.464844 L 242.960938 966.230469 L 212.378906 978.960938 L 213.363281 981.09375 Z M 1250.394531 955.59375 L 1281.957031 964.605469 L 1250.121094 955.460938 L 1220.492188 940.660156 L 1218.257812 946.417969 L 1250.394531 955.59375 L 1279.753906 970.257812 Z M 233.34375 945.4375 L 264.226562 932.566406 L 264.089844 932.195312 L 228.703125 947.367188 L 203.101562 958.035156 L 228.5 947.46875 L 203.203125 958.304688 Z M 1259.300781 934.328125 L 1290.863281 943.335938 L 1259.03125 934.191406 L 1229.398438 919.394531 L 1227.164062 925.152344 L 1259.300781 934.328125 L 1288.660156 948.992188 Z M 225.6875 923.761719 L 257.082031 914.789062 L 225.6875 923.761719 L 255.828125 911.199219 L 225.214844 923.898438 L 193.347656 933.007812 L 194.636719 936.699219 Z M 1298.414062 923.019531 L 1266.34375 912.316406 L 1297.433594 925.625 Z M 217.628906 902.226562 L 249.125 891.726562 L 248.886719 891.015625 L 215.257812 903.039062 L 186.269531 912.6875 L 215.191406 903.039062 L 186.472656 913.300781 Z M 1266.988281 912.585938 L 1235.5625 902.054688 Z M 1305.898438 899.753906 L 1272.746094 890.269531 L 1305.457031 901.175781 Z M 1242.199219 881.535156 L 1274.03125 890.675781 Z M 212.753906 879.707031 L 243.195312 872.085938 L 212.753906 879.707031 L 242.925781 871.070312 L 211.058594 880.113281 L 178.921875 888.136719 L 179.226562 889.253906 Z M 1280.667969 868.597656 L 1312.839844 873.949219 L 1280.195312 868.460938 L 1248.328125 859.351562 L 1247.480469 863.078125 L 1280.667969 868.597656 L 1312.027344 877.570312 Z M 205.335938 857.898438 L 237.777344 850.953125 L 237.507812 849.804688 L 203.777344 858.234375 L 172.996094 864.839844 L 203.746094 858.269531 L 173.234375 865.886719 Z M 1318.191406 850.75 L 1285.070312 846.011719 L 1316.800781 856.574219 Z M 1252.59375 841.371094 L 1285.375 846.113281 Z M 201.847656 835.105469 L 233.308594 829.855469 L 201.847656 835.105469 L 233.039062 828.433594 L 200.628906 835.308594 L 167.949219 840.761719 L 168.253906 842.320312 Z M 1322.421875 828.128906 L 1287.238281 823.117188 L 1256.929688 818.070312 L 1287.238281 823.117188 L 1256.828125 818.78125 L 1289.609375 823.523438 L 1322.289062 828.976562 Z M 196.734375 812.6875 L 229.617188 807.980469 L 229.480469 807.167969 L 194.5 812.992188 L 164.023438 817.359375 L 194.433594 813.027344 L 164.125 818.070312 Z M 1325.742188 805.371094 L 1290.558594 800.359375 L 1260.25 795.316406 L 1290.558594 800.359375 L 1260.148438 796.027344 L 1292.925781 800.765625 L 1325.605469 806.21875 Z M 193.957031 789.863281 L 227.011719 787.492188 L 226.636719 784.34375 L 193.382812 789.898438 L 160.941406 792.199219 L 193.382812 789.898438 L 161.277344 795.246094 Z M 1295.703125 777.839844 L 1328.417969 777.839844 L 1295.296875 777.773438 L 1262.484375 773.101562 L 1262.144531 777.839844 L 1295.703125 777.839844 L 1328.113281 782.480469 Z M 191.6875 766.9375 L 225.113281 764.566406 L 225.078125 764.125 L 187.726562 767.242188 L 159.042969 769.308594 L 187.457031 767.273438 L 159.078125 769.644531 Z M 1329.839844 754.8125 L 1296.382812 754.8125 L 1329.398438 760.300781 Z M 1296.71875 754.882812 L 1263.601562 754.8125 Z M 191.078125 743.941406 L 224.199219 743.941406 L 224.097656 741.132812 L 190.402344 743.941406 L 157.960938 743.941406 L 190.402344 743.941406 L 158.0625 746.652344 Z M 1330.3125 731.820312 L 1264.042969 731.886719 L 1330.3125 731.886719 Z M 1330.3125 730.667969 L 1264.042969 730.734375 L 1330.3125 730.734375 Z M 191.757812 720.914062 L 158.0625 718.105469 L 157.960938 720.914062 Z M 224.199219 720.914062 L 191.078125 720.847656 L 191.757812 720.914062 Z M 1297.058594 707.675781 L 1329.804688 707.675781 L 1297.058594 707.675781 L 1329.433594 702.695312 L 1296.6875 707.675781 L 1263.566406 707.675781 L 1263.941406 712.753906 Z M 225.113281 697.886719 L 191.179688 697.886719 L 158.941406 695.585938 L 191.179688 697.886719 L 158.875 697.886719 L 191.992188 697.953125 L 225.046875 700.324219 Z M 1262.414062 689.386719 L 1295.230469 684.746094 Z M 1328.011719 680.039062 L 1294.824219 684.78125 L 1328.351562 684.78125 Z M 226.875 677.363281 L 193.855469 674.960938 Z M 161.109375 669.914062 L 160.804688 672.65625 L 194.566406 675.0625 Z M 1297.703125 661.144531 L 1325.605469 657.148438 L 1298.042969 661.078125 L 1325.574219 656.84375 L 1293.265625 661.753906 L 1260.011719 666.496094 L 1260.078125 666.902344 Z M 229.449219 656.808594 L 191.757812 651.425781 L 163.886719 647.125 L 191.519531 651.390625 L 163.851562 647.429688 L 196.292969 652.101562 L 229.378906 657.183594 Z M 1289.441406 639.132812 L 1322.253906 634.457031 L 1322.1875 634.050781 L 1284.324219 639.878906 L 1256.660156 643.839844 L 1284.324219 639.878906 L 1256.691406 644.144531 Z M 233.207031 634.085938 L 199.75 629.3125 L 168.121094 621.996094 L 199.75 629.277344 L 167.613281 624.671875 L 200.390625 629.414062 L 232.664062 636.863281 Z M 1285.613281 616.410156 L 1317.917969 611.429688 L 1285.613281 616.410156 L 1317.039062 607.433594 L 1285.171875 616.476562 L 1252.425781 621.523438 L 1253.339844 625.652344 Z M 237.507812 613.835938 L 201.679688 606.148438 L 172.828125 599.511719 L 201.578125 606.148438 L 172.726562 599.949219 L 204.964844 606.925781 L 237.371094 614.410156 Z M 1279.921875 594.125 L 1312.703125 589.453125 L 1311.554688 584.339844 L 1279.550781 594.195312 L 1247.109375 598.832031 L 1279.550781 594.195312 L 1248.226562 603.8125 Z M 243.0625 592.027344 L 210.011719 584.40625 L 179.089844 574.890625 L 210.011719 584.40625 L 178.515625 577.125 L 210.789062 584.644531 L 242.453125 594.398438 Z M 1305.390625 562.226562 L 1305.390625 562.160156 L 1242.0625 581.699219 Z M 218.136719 562.835938 L 248.988281 572.316406 L 217.359375 562.53125 L 186.441406 550.644531 L 185.660156 552.84375 L 218.136719 562.835938 L 248.277344 574.417969 Z M 1267.019531 549.898438 L 1298.277344 540.28125 L 1267.019531 549.898438 L 1296.71875 536.183594 L 1266.613281 550 L 1234.953125 559.753906 L 1236.542969 563.953125 Z M 256.539062 550.476562 L 224.0625 540.484375 L 193.925781 528.902344 L 224.0625 540.484375 L 193.214844 531.003906 L 224.84375 540.789062 L 255.761719 552.675781 Z M 1258.929688 528.363281 L 1289.472656 516.40625 L 1288.695312 514.578125 L 1260.28125 527.683594 L 1288.253906 513.699219 L 1259.402344 528.089844 L 1227.773438 540.550781 L 1228.550781 542.3125 L 1228.515625 542.3125 L 1228.550781 542.3125 L 1228.992188 543.296875 Z M 264.191406 531.207031 L 233.308594 519.253906 Z M 1220.085938 522.128906 L 1249.75 507.367188 Z M 203.644531 504.453125 L 202.324219 507.433594 L 233.816406 519.558594 Z M 273.503906 510.039062 L 242.046875 497.953125 L 212.957031 483.390625 L 242.046875 497.953125 L 211.667969 486.269531 L 242.554688 498.222656 L 272.183594 513.054688 Z M 1281.414062 497.613281 L 1279.347656 492.5 L 1249.410156 507.46875 Z M 1269.628906 471.738281 L 1269.59375 471.707031 L 1210.367188 501.40625 Z M 253.558594 477.9375 L 282.410156 492.363281 L 252.816406 477.496094 L 224.199219 460.800781 L 223.148438 462.730469 L 253.558594 477.9375 L 281.394531 494.191406 Z M 1229.738281 465.949219 L 1258.960938 451.355469 L 1229.738281 465.949219 L 1256.929688 447.832031 L 1229.332031 466.152344 L 1199.699219 480.984375 L 1201.796875 484.609375 Z M 293.453125 472.078125 L 263.042969 456.875 L 235.203125 440.617188 L 263.042969 456.875 L 234.222656 442.449219 L 263.820312 457.3125 L 292.4375 474.007812 Z M 1190.320312 464.628906 L 1217.917969 446.308594 Z M 304.253906 454.230469 L 275.671875 437.503906 Z M 1246.972656 430.425781 L 1245.414062 427.851562 L 1217.308594 446.578125 Z M 1178.804688 446.308594 L 1205.625 426.871094 Z M 248.886719 418.03125 L 247.023438 420.875 L 276.148438 437.839844 Z M 316.988281 434.964844 L 287.863281 417.996094 L 261.519531 398.828125 L 287.832031 417.964844 L 259.722656 401.574219 L 288.304688 418.300781 L 315.089844 437.773438 Z M 1219.339844 388.5 L 1219.304688 388.46875 L 1165.765625 427.480469 Z M 1235.257812 412.070312 L 1232.378906 407.363281 L 1205.320312 427.039062 Z M 302.59375 400.253906 L 328.570312 419.148438 L 301.816406 399.609375 L 276.179688 378.613281 L 274.996094 380.136719 L 302.59375 400.253906 L 327.453125 420.570312 Z M 1178.941406 389.382812 L 1205.421875 370.113281 L 1178.941406 389.382812 L 1202.101562 366.21875 L 1178.636719 389.585938 L 1151.847656 409.058594 L 1155.269531 413.054688 Z M 341.910156 402.183594 L 312.28125 378.476562 L 290.371094 360.5625 L 312.042969 378.308594 L 290.167969 360.835938 L 315.667969 381.289062 L 341.640625 402.519531 Z M 1164.71875 371.265625 L 1189.878906 351.113281 L 1164.71875 371.265625 L 1188.558594 349.589844 L 1164.003906 371.839844 L 1138.132812 392.53125 L 1139.523438 394.15625 Z M 356.644531 384.980469 L 330.058594 363.238281 L 306.320312 341.871094 L 330.027344 363.203125 L 305.339844 342.988281 L 330.941406 363.984375 L 355.558594 386.164062 Z M 1148.734375 354.738281 L 1125.265625 378.140625 Z M 347.027344 347.523438 L 371.238281 369.335938 L 346.652344 347.117188 L 324.503906 322.5 L 322 325.003906 L 347.027344 347.523438 L 368.835938 371.738281 Z M 1133.425781 337.433594 L 1156.082031 314.777344 L 1133.425781 337.433594 L 1154.863281 313.628906 L 1132.679688 338.210938 L 1109.246094 361.648438 L 1110.566406 362.898438 Z M 386.410156 354.367188 L 362.230469 330.1875 L 340.792969 306.378906 L 362.230469 330.1875 L 339.574219 307.53125 L 362.941406 331 L 385.121094 355.617188 Z M 1174.605469 334.046875 L 1172.132812 331.269531 L 1148.328125 355.078125 Z M 1115.984375 322.398438 L 1139.421875 298.964844 L 1138.097656 297.710938 L 1115.207031 323.144531 L 1092.550781 345.796875 L 1115.207031 323.144531 L 1093.769531 346.949219 Z M 402.121094 340.074219 L 380.007812 315.421875 Z M 1098.851562 306.957031 L 1120.761719 282.640625 L 1098.851562 306.957031 L 1117 279.730469 L 1098.578125 307.261719 L 1076.433594 331.878906 L 1080.257812 334.859375 Z M 418.546875 326.324219 L 397.617188 300.65625 Z M 1081.75 291.445312 L 1101.324219 266.960938 L 1081.75 291.445312 L 1100.542969 266.386719 L 1080.632812 292.835938 L 1059.90625 318.742188 L 1060.753906 319.417969 Z M 359.011719 289.785156 L 357.792969 290.835938 L 380.789062 316.371094 Z M 396.332031 259.816406 L 396.296875 259.851562 L 435.308594 313.390625 Z M 1043.71875 306.785156 L 1062.140625 279.253906 Z M 376.929688 274.785156 L 376.589844 275.054688 L 400.835938 304.652344 Z M 434.871094 273.835938 L 454.003906 300.183594 L 434.566406 273.363281 L 417.871094 244.746094 L 415.023438 246.609375 L 434.871094 273.835938 L 451.261719 301.945312 Z M 1026.277344 294.96875 L 1043.007812 266.386719 Z M 471.679688 288.804688 L 453.121094 259.648438 L 437.171875 232.285156 L 453.121094 259.613281 L 436.121094 232.894531 L 453.832031 260.832031 L 470.527344 289.480469 Z M 1040.09375 225.714844 L 1040.0625 225.679688 L 1006.738281 282.945312 Z M 1082.832031 253.382812 L 1080.460938 251.65625 L 1061.699219 279.796875 Z M 473.679688 249.183594 L 490.304688 277.832031 Z M 1003.285156 243.085938 L 988.417969 272.683594 Z M 479.128906 208.75 L 479.097656 208.78125 L 508.796875 268.011719 Z M 1063.734375 240.511719 L 1059.667969 237.738281 L 1042.769531 266.691406 Z M 983.101562 231.777344 L 997.460938 203.027344 L 983.101562 231.777344 L 995.765625 202.246094 L 982.660156 232.65625 L 967.828125 262.289062 L 969.65625 263.136719 Z M 529.386719 258.054688 L 514.621094 228.390625 Z M 974.769531 192.730469 L 974.398438 192.59375 L 948.660156 253.652344 Z M 548.417969 249.894531 L 534.90625 217.453125 L 523.730469 188.394531 L 534.871094 217.382812 L 522.917969 188.699219 L 535.582031 219.246094 L 547.503906 250.234375 Z M 458.847656 219.550781 L 456.914062 220.601562 L 474.050781 249.996094 Z M 940.703125 213.488281 L 953.03125 183.925781 L 940.703125 213.488281 L 951.472656 183.316406 L 940.296875 214.472656 L 927.5625 245.050781 L 929.222656 245.695312 Z M 1019.980469 214.472656 L 1018.050781 213.421875 L 1002.84375 243.832031 Z M 557.5625 212.269531 L 569.007812 242.039062 L 557.15625 211.085938 L 546.691406 179.660156 L 545.234375 180.199219 L 557.5625 212.269531 L 567.652344 242.511719 Z M 918.589844 206.820312 L 929.730469 175.628906 L 929.019531 175.390625 L 917.710938 209.324219 L 907.449219 238.042969 L 917.710938 209.324219 L 908.058594 238.246094 Z M 569.242188 172.105469 L 569.175781 172.105469 L 588.714844 235.433594 Z M 897.019531 198.351562 L 905.652344 168.113281 L 897.019531 198.320312 L 904.636719 167.875 L 896.542969 199.945312 L 887.433594 231.84375 L 888.550781 232.148438 Z M 601.078125 197.371094 L 610.761719 229.035156 Z M 502.734375 197.472656 L 499.753906 198.792969 L 514.824219 228.964844 Z M 874.363281 194.152344 L 867.351562 226.527344 Z M 623.425781 191.917969 L 630.808594 224.226562 Z M 852.082031 187.988281 L 858.75 156.800781 L 852.082031 187.988281 L 857.328125 156.53125 L 851.84375 189.175781 L 844.902344 221.582031 L 846.457031 221.886719 Z M 652.921875 219.789062 L 645.777344 186.433594 L 640.902344 154.632812 L 645.777344 186.398438 L 639.039062 154.972656 L 645.914062 187.378906 L 650.960938 220.128906 Z M 824.480469 217.992188 L 829.222656 185.210938 Z M 673.75 216.539062 L 667.960938 178.878906 L 663.964844 151.011719 L 667.890625 178.574219 L 663.660156 151.042969 L 668.570312 183.382812 L 673.308594 216.605469 Z M 806.5 181.25 L 811.035156 149.382812 L 806.5 181.25 L 809.171875 149.179688 L 806.363281 182.164062 L 801.691406 214.980469 L 803.6875 215.21875 Z M 696.609375 213.894531 L 691.460938 180.472656 L 689.15625 148.132812 L 691.460938 180.472656 L 686.515625 148.4375 L 691.496094 181.183594 L 693.867188 214.234375 Z M 783.503906 180.097656 L 781.101562 213.152344 Z M 716.824219 212.542969 L 714.523438 179.488281 Z M 760.542969 178.949219 L 763.289062 145.929688 L 760.476562 145.828125 L 760.476562 179.625 L 757.765625 211.964844 L 760.476562 179.625 L 760.476562 212.066406 Z M 737.515625 145.625 L 737.449219 145.625 L 737.515625 211.898438 Z M 594.132812 164.960938 L 591.289062 165.707031 L 601.210938 198.015625 Z M 616.484375 159.511719 L 615.910156 159.644531 L 624.171875 195.441406 Z M 884.828125 162.726562 L 881.238281 161.746094 L 874.195312 194.660156 Z M 834.671875 152.535156 L 833.859375 152.398438 L 828.847656 187.582031 Z M 786.246094 147.082031 L 785.808594 147.046875 L 783.132812 184.738281 Z M 714.523438 146.371094 L 712.117188 146.472656 L 714.523438 180.335938 Z M 714.523438 146.371094 " fill-opacity="1" fill-rule="nonzero"/></g><g clip-path="url(#a97185f7c7)"><path fill="#edf2fa" d="M 565.9375 1065.785156 L 511.480469 1097.191406 L 481.777344 1114.265625 L 502.777344 1126.382812 L 541.015625 1148.574219 L 649.753906 1211.394531 L 733.910156 1259.875 L 1196.355469 992.890625 L 1196.355469 458.925781 L 1072.421875 387.398438 L 1070.203125 386.203125 C 972.046875 442.878906 874.0625 499.382812 775.90625 556.054688 L 775.90625 847.28125 L 796.902344 835.160156 L 842.140625 809.042969 L 859.890625 798.800781 L 905.984375 772.167969 L 944.222656 750.320312 L 944.222656 847.449219 L 802.023438 929.558594 L 734.082031 968.824219 L 650.09375 1017.304688 L 734.253906 1065.785156 L 1028.550781 895.929688 L 1028.550781 604.707031 C 976.824219 634.582031 925.101562 664.453125 873.378906 694.328125 L 860.40625 701.839844 L 860.40625 604.878906 C 930.394531 564.421875 1000.554688 523.964844 1070.542969 483.503906 L 1112.539062 507.746094 L 1112.539062 944.753906 L 734.253906 1163.257812 L 650.09375 1114.777344 L 602.808594 1087.460938 Z M 565.9375 1065.785156 " fill-opacity="1" fill-rule="evenodd"/></g><g clip-path="url(#841fbb9ad2)"><path fill="#ffffff" d="M 902.226562 386.203125 L 956.683594 354.792969 L 986.386719 337.722656 L 965.386719 325.601562 L 927.152344 303.410156 L 818.410156 240.589844 L 734.082031 192.109375 L 271.640625 459.09375 L 271.640625 993.0625 L 395.574219 1064.589844 L 397.792969 1065.785156 C 495.949219 1009.109375 593.933594 952.605469 692.089844 895.929688 L 692.089844 604.878906 L 671.09375 616.996094 L 625.855469 643.117188 L 608.101562 653.359375 L 562.011719 679.988281 L 524.113281 701.839844 L 524.113281 604.707031 L 666.3125 522.597656 L 734.253906 483.335938 L 818.410156 434.855469 L 734.253906 386.375 L 439.785156 556.226562 L 439.785156 847.449219 C 491.507812 817.578125 543.234375 787.703125 594.957031 757.828125 L 607.929688 750.320312 L 607.929688 847.28125 C 537.941406 887.738281 467.78125 928.195312 397.792969 968.652344 L 355.796875 944.410156 L 355.796875 507.40625 L 734.082031 288.902344 L 818.242188 337.382812 L 865.527344 364.695312 Z M 902.226562 386.203125 " fill-opacity="1" fill-rule="evenodd"/></g></g></g></svg>